%TF.GenerationSoftware,KiCad,Pcbnew,(6.0.6-0)*%
%TF.CreationDate,2022-08-07T14:06:53-04:00*%
%TF.ProjectId,BatteryLedStripDriver,42617474-6572-4794-9c65-645374726970,rev?*%
%TF.SameCoordinates,PX6160b60PY791ddc0*%
%TF.FileFunction,Legend,Bot*%
%TF.FilePolarity,Positive*%
%FSLAX46Y46*%
G04 Gerber Fmt 4.6, Leading zero omitted, Abs format (unit mm)*
G04 Created by KiCad (PCBNEW (6.0.6-0)) date 2022-08-07 14:06:53*
%MOMM*%
%LPD*%
G01*
G04 APERTURE LIST*
%ADD10C,0.150000*%
G04 APERTURE END LIST*
D10*
X22569714Y1941286D02*
X22569714Y1397000D01*
X22606000Y1288143D01*
X22678571Y1215572D01*
X22787428Y1179286D01*
X22860000Y1179286D01*
X21844000Y1179286D02*
X22206857Y1179286D01*
X22206857Y1941286D01*
X21154571Y1251858D02*
X21190857Y1215572D01*
X21299714Y1179286D01*
X21372285Y1179286D01*
X21481142Y1215572D01*
X21553714Y1288143D01*
X21590000Y1360715D01*
X21626285Y1505858D01*
X21626285Y1614715D01*
X21590000Y1759858D01*
X21553714Y1832429D01*
X21481142Y1905000D01*
X21372285Y1941286D01*
X21299714Y1941286D01*
X21190857Y1905000D01*
X21154571Y1868715D01*
X20610285Y1941286D02*
X20610285Y1397000D01*
X20646571Y1288143D01*
X20719142Y1215572D01*
X20828000Y1179286D01*
X20900571Y1179286D01*
X19884571Y1179286D02*
X20247428Y1179286D01*
X20247428Y1941286D01*
X19195142Y1251858D02*
X19231428Y1215572D01*
X19340285Y1179286D01*
X19412857Y1179286D01*
X19521714Y1215572D01*
X19594285Y1288143D01*
X19630571Y1360715D01*
X19666857Y1505858D01*
X19666857Y1614715D01*
X19630571Y1759858D01*
X19594285Y1832429D01*
X19521714Y1905000D01*
X19412857Y1941286D01*
X19340285Y1941286D01*
X19231428Y1905000D01*
X19195142Y1868715D01*
X18650857Y1941286D02*
X18650857Y1397000D01*
X18687142Y1288143D01*
X18759714Y1215572D01*
X18868571Y1179286D01*
X18941142Y1179286D01*
X17925142Y1179286D02*
X18288000Y1179286D01*
X18288000Y1941286D01*
X17235714Y1251858D02*
X17272000Y1215572D01*
X17380857Y1179286D01*
X17453428Y1179286D01*
X17562285Y1215572D01*
X17634857Y1288143D01*
X17671142Y1360715D01*
X17707428Y1505858D01*
X17707428Y1614715D01*
X17671142Y1759858D01*
X17634857Y1832429D01*
X17562285Y1905000D01*
X17453428Y1941286D01*
X17380857Y1941286D01*
X17272000Y1905000D01*
X17235714Y1868715D01*
X16691428Y1941286D02*
X16691428Y1397000D01*
X16727714Y1288143D01*
X16800285Y1215572D01*
X16909142Y1179286D01*
X16981714Y1179286D01*
X15965714Y1179286D02*
X16328571Y1179286D01*
X16328571Y1941286D01*
X15276285Y1251858D02*
X15312571Y1215572D01*
X15421428Y1179286D01*
X15494000Y1179286D01*
X15602857Y1215572D01*
X15675428Y1288143D01*
X15711714Y1360715D01*
X15748000Y1505858D01*
X15748000Y1614715D01*
X15711714Y1759858D01*
X15675428Y1832429D01*
X15602857Y1905000D01*
X15494000Y1941286D01*
X15421428Y1941286D01*
X15312571Y1905000D01*
X15276285Y1868715D01*
M02*
