%TF.GenerationSoftware,KiCad,Pcbnew,(6.0.6-0)*%
%TF.CreationDate,2022-08-07T14:06:52-04:00*%
%TF.ProjectId,BatteryLedStripDriver,42617474-6572-4794-9c65-645374726970,rev?*%
%TF.SameCoordinates,PX6160b60PY791ddc0*%
%TF.FileFunction,Copper,L2,Bot*%
%TF.FilePolarity,Positive*%
%FSLAX46Y46*%
G04 Gerber Fmt 4.6, Leading zero omitted, Abs format (unit mm)*
G04 Created by KiCad (PCBNEW (6.0.6-0)) date 2022-08-07 14:06:52*
%MOMM*%
%LPD*%
G01*
G04 APERTURE LIST*
%TA.AperFunction,ComponentPad*%
%ADD10R,2.600000X2.600000*%
%TD*%
%TA.AperFunction,ComponentPad*%
%ADD11C,2.600000*%
%TD*%
%TA.AperFunction,ComponentPad*%
%ADD12C,5.400000*%
%TD*%
%TA.AperFunction,ComponentPad*%
%ADD13C,1.440000*%
%TD*%
%TA.AperFunction,ComponentPad*%
%ADD14R,1.700000X1.700000*%
%TD*%
%TA.AperFunction,ComponentPad*%
%ADD15O,1.700000X1.700000*%
%TD*%
%TA.AperFunction,ComponentPad*%
%ADD16C,0.600000*%
%TD*%
%TA.AperFunction,SMDPad,CuDef*%
%ADD17R,5.800000X3.200000*%
%TD*%
%TA.AperFunction,ViaPad*%
%ADD18C,0.800000*%
%TD*%
%TA.AperFunction,Conductor*%
%ADD19C,0.203200*%
%TD*%
G04 APERTURE END LIST*
D10*
%TO.P,J1,1,Pin_1*%
%TO.N,GND*%
X5461000Y34671000D03*
D11*
%TO.P,J1,2,Pin_2*%
%TO.N,/VBATT*%
X5461000Y29671000D03*
%TD*%
D10*
%TO.P,J3,1,Pin_1*%
%TO.N,/VLED*%
X52883000Y29377000D03*
D11*
%TO.P,J3,2,Pin_2*%
%TO.N,GND*%
X52883000Y34377000D03*
%TD*%
D12*
%TO.P,H1,1,1*%
%TO.N,GND*%
X3810000Y41910000D03*
%TD*%
%TO.P,H4,1,1*%
%TO.N,GND*%
X54610000Y3810000D03*
%TD*%
%TO.P,H2,1,1*%
%TO.N,GND*%
X54610000Y41910000D03*
%TD*%
D13*
%TO.P,RV1,1,1*%
%TO.N,Net-(D2-Pad1)*%
X41006000Y10414000D03*
%TO.P,RV1,2,2*%
%TO.N,Net-(C1-Pad1)*%
X38466000Y7874000D03*
%TO.P,RV1,3,3*%
%TO.N,Net-(D1-Pad2)*%
X41006000Y5334000D03*
%TD*%
D12*
%TO.P,H3,1,1*%
%TO.N,GND*%
X8382000Y3810000D03*
%TD*%
D14*
%TO.P,J4,1,Pin_1*%
%TO.N,GND*%
X49911000Y18542000D03*
D15*
%TO.P,J4,2,Pin_2*%
%TO.N,/BST_VOUT*%
X49911000Y21082000D03*
%TD*%
D14*
%TO.P,J2,1,Pin_1*%
%TO.N,Net-(J2-Pad1)*%
X2540000Y17257000D03*
D15*
%TO.P,J2,2,Pin_2*%
%TO.N,/PWR_EN*%
X2540000Y14717000D03*
%TO.P,J2,3,Pin_3*%
%TO.N,Net-(J2-Pad3)*%
X2540000Y12177000D03*
%TD*%
D16*
%TO.P,U2,15,PAD*%
%TO.N,GND*%
X17974000Y15270000D03*
D17*
X20574000Y13970000D03*
D16*
X17974000Y13970000D03*
X19274000Y13970000D03*
X23174000Y13970000D03*
X21874000Y12670000D03*
X20574000Y15270000D03*
X21874000Y13970000D03*
X20574000Y12670000D03*
X23174000Y15270000D03*
X23174000Y12670000D03*
X21874000Y15270000D03*
X19274000Y12670000D03*
X17974000Y12670000D03*
X19274000Y15270000D03*
X20574000Y13970000D03*
%TD*%
D14*
%TO.P,SW1,1,1*%
%TO.N,/VBATT*%
X2540000Y4059000D03*
D15*
%TO.P,SW1,2,2*%
%TO.N,Net-(J2-Pad1)*%
X2540000Y6599000D03*
%TD*%
D18*
%TO.N,/BST_SS*%
X19939000Y19304000D03*
X16891000Y15494000D03*
%TO.N,Net-(D2-Pad1)*%
X50292000Y10414000D03*
%TO.N,/BST_FREQ*%
X15367000Y13462000D03*
X19998500Y8763000D03*
%TO.N,Net-(C1-Pad1)*%
X31877000Y9017000D03*
%TO.N,Net-(Q2-Pad1)*%
X5334000Y20320000D03*
X7467600Y25857200D03*
%TO.N,Net-(R1-Pad2)*%
X34950400Y2590800D03*
X29337000Y8890000D03*
%TO.N,GND*%
X11684000Y19507200D03*
X21590000Y34290000D03*
X17780000Y33020000D03*
X47396400Y18542000D03*
X44450000Y16510000D03*
X7569200Y38252400D03*
X40640000Y24130000D03*
X33020000Y30480000D03*
X49530000Y24130000D03*
X38049200Y14122400D03*
X13970000Y34290000D03*
X29210000Y31750000D03*
X21590000Y31750000D03*
X7366000Y16967200D03*
X27432000Y21793200D03*
X13970000Y36830000D03*
X34696400Y11734800D03*
X13462000Y19507200D03*
X14237000Y11049000D03*
X53340000Y18542000D03*
X36830000Y31826200D03*
X21844000Y7620000D03*
X27432000Y20015200D03*
X14986000Y20777200D03*
X44450000Y36830000D03*
X34645600Y13512800D03*
X55473600Y38100000D03*
X29210000Y36830000D03*
X25400000Y35560000D03*
X9296400Y9194800D03*
X33020000Y35560000D03*
X33020000Y33096200D03*
X36830000Y34290000D03*
X51460400Y38100000D03*
X21590000Y36830000D03*
X44450000Y33020000D03*
X40640000Y35560000D03*
X21590000Y29210000D03*
X29210000Y34290000D03*
X27432000Y18237200D03*
X17780000Y35560000D03*
X25400000Y33020000D03*
X29210000Y29210000D03*
X13970000Y31750000D03*
X53340000Y20320000D03*
X53441600Y38100000D03*
X24130000Y5791200D03*
X3556000Y38252400D03*
X25400000Y30480000D03*
X17780000Y30302200D03*
X5435600Y38252400D03*
X36830000Y36830000D03*
X13970000Y29210000D03*
X11841000Y9779000D03*
X44450000Y25400000D03*
%TD*%
D19*
%TO.N,/BST_SS*%
X19939000Y19304000D02*
X19939000Y18542000D01*
X19939000Y18542000D02*
X16891000Y15494000D01*
%TO.N,Net-(D2-Pad1)*%
X50292000Y10414000D02*
X41006000Y10414000D01*
%TO.N,/BST_FREQ*%
X19998500Y9592500D02*
X16129000Y13462000D01*
X16129000Y13462000D02*
X15367000Y13462000D01*
X19998500Y8763000D02*
X19998500Y9592500D01*
%TO.N,Net-(C1-Pad1)*%
X38466000Y7874000D02*
X33020000Y7874000D01*
X33020000Y7874000D02*
X31877000Y9017000D01*
%TO.N,Net-(Q2-Pad1)*%
X5334000Y23723600D02*
X5334000Y20320000D01*
X7467600Y25857200D02*
X5334000Y23723600D01*
%TO.N,Net-(R1-Pad2)*%
X34950400Y2590800D02*
X34950400Y2895600D01*
X34950400Y2895600D02*
X29337000Y8509000D01*
X29337000Y8509000D02*
X29337000Y8890000D01*
%TD*%
%TA.AperFunction,Conductor*%
%TO.N,GND*%
G36*
X54597103Y45463079D02*
G01*
X54610000Y45460514D01*
X54622169Y45462934D01*
X54634569Y45462934D01*
X54645624Y45463749D01*
X54843942Y45454007D01*
X54952322Y45448682D01*
X54964618Y45447472D01*
X55297520Y45398090D01*
X55309642Y45395680D01*
X55405572Y45371650D01*
X55636101Y45313905D01*
X55647933Y45310316D01*
X55964803Y45196939D01*
X55976227Y45192207D01*
X56280456Y45048317D01*
X56291361Y45042488D01*
X56580024Y44869470D01*
X56590305Y44862600D01*
X56860613Y44662126D01*
X56870171Y44654282D01*
X57119531Y44428275D01*
X57128275Y44419531D01*
X57354282Y44170171D01*
X57362126Y44160613D01*
X57562600Y43890305D01*
X57569470Y43880024D01*
X57742488Y43591361D01*
X57748317Y43580456D01*
X57892207Y43276227D01*
X57896939Y43264803D01*
X58010316Y42947933D01*
X58013905Y42936101D01*
X58095679Y42609645D01*
X58098091Y42597517D01*
X58147471Y42264623D01*
X58148683Y42252317D01*
X58163749Y41945624D01*
X58162934Y41934569D01*
X58162934Y41922169D01*
X58160514Y41910000D01*
X58163079Y41897106D01*
X58165500Y41872524D01*
X58165500Y3847476D01*
X58163079Y3822897D01*
X58160514Y3810000D01*
X58162935Y3797829D01*
X58162935Y3785418D01*
X58162908Y3785418D01*
X58163716Y3774392D01*
X58147964Y3460006D01*
X58146704Y3447458D01*
X58095213Y3107195D01*
X58092704Y3094838D01*
X58007466Y2761446D01*
X58003735Y2749400D01*
X57885598Y2426194D01*
X57880682Y2414581D01*
X57730821Y2104785D01*
X57724768Y2093723D01*
X57544706Y1800481D01*
X57537578Y1790078D01*
X57329098Y1516292D01*
X57320971Y1506660D01*
X57086157Y1255070D01*
X57077116Y1246307D01*
X56818335Y1019454D01*
X56808455Y1011631D01*
X56718473Y947444D01*
X56528295Y811783D01*
X56517675Y804983D01*
X56218959Y634147D01*
X56207713Y628442D01*
X55893406Y488316D01*
X55881646Y483764D01*
X55760656Y443769D01*
X55554906Y375756D01*
X55542764Y372406D01*
X55414704Y343886D01*
X55206860Y297598D01*
X55194430Y295476D01*
X54881976Y258115D01*
X54870814Y258162D01*
X54870815Y258148D01*
X54858434Y257293D01*
X54846124Y258870D01*
X54834147Y255616D01*
X54822318Y254799D01*
X54813638Y254500D01*
X4089115Y254500D01*
X4072555Y255593D01*
X4059569Y257315D01*
X4059568Y257315D01*
X4047265Y258946D01*
X4035274Y255745D01*
X4022889Y254944D01*
X4022887Y254970D01*
X4011940Y253452D01*
X3923018Y252159D01*
X3697023Y248873D01*
X3684437Y249320D01*
X3512925Y264011D01*
X3341404Y278704D01*
X3328943Y280402D01*
X3146339Y314658D01*
X2990541Y343886D01*
X2978294Y346824D01*
X2647931Y443769D01*
X2636040Y447915D01*
X2317008Y577353D01*
X2305605Y582656D01*
X2001058Y743311D01*
X1990253Y749721D01*
X1703265Y939975D01*
X1693155Y947431D01*
X1426598Y1165379D01*
X1417270Y1173819D01*
X1173819Y1417270D01*
X1165379Y1426598D01*
X947431Y1693155D01*
X939975Y1703265D01*
X749721Y1990253D01*
X743311Y2001058D01*
X582656Y2305605D01*
X577353Y2317008D01*
X447915Y2636040D01*
X443769Y2647931D01*
X346824Y2978294D01*
X343886Y2990541D01*
X308744Y3177865D01*
X280402Y3328943D01*
X278703Y3341413D01*
X268545Y3460006D01*
X249320Y3684437D01*
X248873Y3697023D01*
X253452Y4011939D01*
X254970Y4022887D01*
X254944Y4022889D01*
X255745Y4035274D01*
X258946Y4047265D01*
X255593Y4072555D01*
X254500Y4089115D01*
X254500Y4934067D01*
X1435500Y4934067D01*
X1435501Y3183934D01*
X1442612Y3148182D01*
X1445086Y3135745D01*
X1450266Y3109699D01*
X1506516Y3025516D01*
X1590699Y2969266D01*
X1664933Y2954500D01*
X2539858Y2954500D01*
X3415066Y2954501D01*
X3450818Y2961612D01*
X3477126Y2966844D01*
X3477128Y2966845D01*
X3489301Y2969266D01*
X3499621Y2976161D01*
X3499622Y2976162D01*
X3563168Y3018623D01*
X3573484Y3025516D01*
X3629734Y3109699D01*
X3644500Y3183933D01*
X3644499Y4934066D01*
X3629734Y5008301D01*
X3573484Y5092484D01*
X3489301Y5148734D01*
X3415067Y5163500D01*
X2540142Y5163500D01*
X1664934Y5163499D01*
X1633430Y5157233D01*
X1602874Y5151156D01*
X1602872Y5151155D01*
X1590699Y5148734D01*
X1580379Y5141839D01*
X1580378Y5141838D01*
X1543290Y5117056D01*
X1506516Y5092484D01*
X1450266Y5008301D01*
X1435500Y4934067D01*
X254500Y4934067D01*
X254500Y6628036D01*
X1431148Y6628036D01*
X1444424Y6425478D01*
X1445845Y6419882D01*
X1445846Y6419877D01*
X1477782Y6294131D01*
X1494392Y6228731D01*
X1496809Y6223488D01*
X1532621Y6145806D01*
X1579377Y6044384D01*
X1696533Y5878611D01*
X1841938Y5736965D01*
X1846742Y5733755D01*
X1878415Y5712592D01*
X2010720Y5624188D01*
X2016023Y5621910D01*
X2016026Y5621908D01*
X2104707Y5583808D01*
X2197228Y5544058D01*
X2225813Y5537590D01*
X2389579Y5500533D01*
X2389584Y5500532D01*
X2395216Y5499258D01*
X2400987Y5499031D01*
X2400989Y5499031D01*
X2460756Y5496683D01*
X2598053Y5491288D01*
X2698499Y5505852D01*
X2793231Y5519587D01*
X2793236Y5519588D01*
X2798945Y5520416D01*
X2804409Y5522271D01*
X2804414Y5522272D01*
X2985693Y5583808D01*
X2985698Y5583810D01*
X2991165Y5585666D01*
X3168276Y5684853D01*
X3187992Y5701250D01*
X3319913Y5810969D01*
X3324345Y5814655D01*
X3381463Y5883331D01*
X3450453Y5966282D01*
X3450455Y5966285D01*
X3454147Y5970724D01*
X3513845Y6077323D01*
X3550510Y6142792D01*
X3550511Y6142794D01*
X3553334Y6147835D01*
X3555190Y6153302D01*
X3555192Y6153307D01*
X3616728Y6334586D01*
X3616729Y6334591D01*
X3618584Y6340055D01*
X3619412Y6345764D01*
X3619413Y6345769D01*
X3647179Y6537273D01*
X3647712Y6540947D01*
X3649232Y6599000D01*
X3630658Y6801141D01*
X3629090Y6806701D01*
X3577125Y6990954D01*
X3577124Y6990956D01*
X3575557Y6996513D01*
X3564978Y7017967D01*
X3488331Y7173391D01*
X3485776Y7178572D01*
X3364320Y7341221D01*
X3215258Y7479013D01*
X3210375Y7482094D01*
X3210371Y7482097D01*
X3048464Y7584252D01*
X3043581Y7587333D01*
X2855039Y7662554D01*
X2849379Y7663680D01*
X2849375Y7663681D01*
X2661613Y7701029D01*
X2661610Y7701029D01*
X2655946Y7702156D01*
X2650171Y7702232D01*
X2650167Y7702232D01*
X2548793Y7703559D01*
X2452971Y7704813D01*
X2447274Y7703834D01*
X2447273Y7703834D01*
X2258607Y7671415D01*
X2252910Y7670436D01*
X2062463Y7600176D01*
X1888010Y7496388D01*
X1883670Y7492582D01*
X1883666Y7492579D01*
X1739733Y7366352D01*
X1735392Y7362545D01*
X1609720Y7203131D01*
X1607031Y7198020D01*
X1607029Y7198017D01*
X1594073Y7173391D01*
X1515203Y7023485D01*
X1455007Y6829622D01*
X1431148Y6628036D01*
X254500Y6628036D01*
X254500Y12206036D01*
X1431148Y12206036D01*
X1444424Y12003478D01*
X1445845Y11997882D01*
X1445846Y11997877D01*
X1466119Y11918055D01*
X1494392Y11806731D01*
X1496809Y11801488D01*
X1534010Y11720792D01*
X1579377Y11622384D01*
X1696533Y11456611D01*
X1841938Y11314965D01*
X2010720Y11202188D01*
X2016023Y11199910D01*
X2016026Y11199908D01*
X2104707Y11161808D01*
X2197228Y11122058D01*
X2270244Y11105536D01*
X2389579Y11078533D01*
X2389584Y11078532D01*
X2395216Y11077258D01*
X2400987Y11077031D01*
X2400989Y11077031D01*
X2460756Y11074683D01*
X2598053Y11069288D01*
X2698499Y11083852D01*
X2793231Y11097587D01*
X2793236Y11097588D01*
X2798945Y11098416D01*
X2804409Y11100271D01*
X2804414Y11100272D01*
X2985693Y11161808D01*
X2985698Y11161810D01*
X2991165Y11163666D01*
X3168276Y11262853D01*
X3229501Y11313773D01*
X3319913Y11388969D01*
X3324345Y11392655D01*
X3454147Y11548724D01*
X3553334Y11725835D01*
X3555190Y11731302D01*
X3555192Y11731307D01*
X3616728Y11912586D01*
X3616729Y11912591D01*
X3618584Y11918055D01*
X3619412Y11923764D01*
X3619413Y11923769D01*
X3647179Y12115273D01*
X3647712Y12118947D01*
X3649232Y12177000D01*
X3630658Y12379141D01*
X3629090Y12384701D01*
X3577125Y12568954D01*
X3577124Y12568956D01*
X3575557Y12574513D01*
X3564978Y12595967D01*
X3488331Y12751391D01*
X3485776Y12756572D01*
X3364320Y12919221D01*
X3215258Y13057013D01*
X3210375Y13060094D01*
X3210371Y13060097D01*
X3048464Y13162252D01*
X3043581Y13165333D01*
X2855039Y13240554D01*
X2849379Y13241680D01*
X2849375Y13241681D01*
X2661613Y13279029D01*
X2661610Y13279029D01*
X2655946Y13280156D01*
X2650171Y13280232D01*
X2650167Y13280232D01*
X2548793Y13281559D01*
X2452971Y13282813D01*
X2447274Y13281834D01*
X2447273Y13281834D01*
X2258607Y13249415D01*
X2252910Y13248436D01*
X2062463Y13178176D01*
X1888010Y13074388D01*
X1883670Y13070582D01*
X1883666Y13070579D01*
X1815503Y13010801D01*
X1735392Y12940545D01*
X1731817Y12936010D01*
X1731816Y12936009D01*
X1714931Y12914591D01*
X1609720Y12781131D01*
X1607031Y12776020D01*
X1607029Y12776017D01*
X1594073Y12751391D01*
X1515203Y12601485D01*
X1455007Y12407622D01*
X1431148Y12206036D01*
X254500Y12206036D01*
X254500Y13468904D01*
X14707729Y13468904D01*
X14725113Y13311447D01*
X14727723Y13304316D01*
X14727723Y13304314D01*
X14773883Y13178176D01*
X14779553Y13162681D01*
X14783789Y13156378D01*
X14783789Y13156377D01*
X14848487Y13060097D01*
X14867908Y13031195D01*
X14873527Y13026082D01*
X14873528Y13026081D01*
X14884903Y13015731D01*
X14985076Y12924581D01*
X15124293Y12848992D01*
X15277522Y12808793D01*
X15361477Y12807474D01*
X15428319Y12806424D01*
X15428322Y12806424D01*
X15435916Y12806305D01*
X15590332Y12841671D01*
X15660742Y12877083D01*
X15725072Y12909437D01*
X15725075Y12909439D01*
X15731855Y12912849D01*
X15737626Y12917778D01*
X15737629Y12917780D01*
X15846542Y13010801D01*
X15846543Y13010802D01*
X15852314Y13015731D01*
X15857487Y13022930D01*
X15858221Y13023502D01*
X15861889Y13027491D01*
X15862554Y13026879D01*
X15913482Y13066576D01*
X15984185Y13073020D01*
X16048903Y13038496D01*
X17827370Y11260028D01*
X19605495Y9481903D01*
X19639521Y9419591D01*
X19642400Y9392808D01*
X19642400Y9378226D01*
X19622398Y9310105D01*
X19599229Y9283277D01*
X19514265Y9209158D01*
X19514261Y9209154D01*
X19508539Y9204162D01*
X19417450Y9074556D01*
X19406484Y9046429D01*
X19365547Y8941431D01*
X19359906Y8926963D01*
X19358914Y8919430D01*
X19358914Y8919429D01*
X19340364Y8778523D01*
X19339229Y8769904D01*
X19356613Y8612447D01*
X19359223Y8605316D01*
X19359223Y8605314D01*
X19405183Y8479723D01*
X19411053Y8463681D01*
X19415289Y8457378D01*
X19415289Y8457377D01*
X19452457Y8402066D01*
X19499408Y8332195D01*
X19505027Y8327082D01*
X19505028Y8327081D01*
X19589698Y8250038D01*
X19616576Y8225581D01*
X19755793Y8149992D01*
X19909022Y8109793D01*
X19992977Y8108474D01*
X20059819Y8107424D01*
X20059822Y8107424D01*
X20067416Y8107305D01*
X20221832Y8142671D01*
X20292242Y8178083D01*
X20356572Y8210437D01*
X20356575Y8210439D01*
X20363355Y8213849D01*
X20369126Y8218778D01*
X20369129Y8218780D01*
X20478036Y8311796D01*
X20478036Y8311797D01*
X20483814Y8316731D01*
X20576255Y8445376D01*
X20635342Y8592359D01*
X20649058Y8688736D01*
X20657081Y8745109D01*
X20657081Y8745112D01*
X20657662Y8749193D01*
X20657807Y8763000D01*
X20655519Y8781912D01*
X20653602Y8797746D01*
X20641603Y8896904D01*
X28677729Y8896904D01*
X28684761Y8833215D01*
X28693582Y8753318D01*
X28695113Y8739447D01*
X28697723Y8732316D01*
X28697723Y8732314D01*
X28746185Y8599885D01*
X28749553Y8590681D01*
X28753789Y8584378D01*
X28753789Y8584377D01*
X28830100Y8470815D01*
X28837908Y8459195D01*
X28843527Y8454082D01*
X28843528Y8454081D01*
X28945488Y8361305D01*
X28955076Y8352581D01*
X28961749Y8348958D01*
X29015200Y8319936D01*
X29044591Y8296992D01*
X29044999Y8297400D01*
X29045612Y8296787D01*
X29047288Y8294886D01*
X29047908Y8294402D01*
X29048454Y8293808D01*
X29048657Y8293431D01*
X29048609Y8293388D01*
X29048792Y8293181D01*
X29051735Y8287726D01*
X29059382Y8280658D01*
X29059382Y8280657D01*
X29088795Y8253468D01*
X29092361Y8250038D01*
X34330989Y3011410D01*
X34365015Y2949098D01*
X34359287Y2876546D01*
X34311806Y2754763D01*
X34291129Y2597704D01*
X34308513Y2440247D01*
X34311123Y2433116D01*
X34311123Y2433114D01*
X34355749Y2311168D01*
X34362953Y2291481D01*
X34451308Y2159995D01*
X34456927Y2154882D01*
X34456928Y2154881D01*
X34468303Y2144531D01*
X34568476Y2053381D01*
X34707693Y1977792D01*
X34860922Y1937593D01*
X34944877Y1936274D01*
X35011719Y1935224D01*
X35011722Y1935224D01*
X35019316Y1935105D01*
X35173732Y1970471D01*
X35244142Y2005883D01*
X35308472Y2038237D01*
X35308475Y2038239D01*
X35315255Y2041649D01*
X35321026Y2046578D01*
X35321029Y2046580D01*
X35429936Y2139596D01*
X35429936Y2139597D01*
X35435714Y2144531D01*
X35528155Y2273176D01*
X35587242Y2420159D01*
X35609562Y2576993D01*
X35609707Y2590800D01*
X35590676Y2748067D01*
X35534680Y2896254D01*
X35501954Y2943871D01*
X35449255Y3020549D01*
X35449254Y3020551D01*
X35444953Y3026808D01*
X35326675Y3132189D01*
X35186674Y3206316D01*
X35162508Y3212386D01*
X35104107Y3245495D01*
X33001930Y5347672D01*
X40026880Y5347672D01*
X40042872Y5157233D01*
X40095549Y4973527D01*
X40098367Y4968045D01*
X40098368Y4968041D01*
X40180085Y4809037D01*
X40180088Y4809033D01*
X40182905Y4803551D01*
X40301612Y4653780D01*
X40306306Y4649785D01*
X40330086Y4629547D01*
X40447149Y4529918D01*
X40452527Y4526912D01*
X40452529Y4526911D01*
X40492733Y4504442D01*
X40613972Y4436684D01*
X40795728Y4377628D01*
X40985493Y4355000D01*
X40991628Y4355472D01*
X40991630Y4355472D01*
X41055393Y4360378D01*
X41176039Y4369661D01*
X41360108Y4421055D01*
X41365612Y4423835D01*
X41525189Y4504442D01*
X41525191Y4504443D01*
X41530690Y4507221D01*
X41681286Y4624880D01*
X41685312Y4629544D01*
X41685315Y4629547D01*
X41802134Y4764884D01*
X41806161Y4769549D01*
X41900557Y4935717D01*
X41960881Y5117056D01*
X41984833Y5306659D01*
X41985215Y5334000D01*
X41966566Y5524197D01*
X41911329Y5707150D01*
X41821609Y5875889D01*
X41817719Y5880659D01*
X41817716Y5880663D01*
X41704717Y6019213D01*
X41704714Y6019216D01*
X41700822Y6023988D01*
X41669828Y6049629D01*
X41558319Y6141877D01*
X41553570Y6145806D01*
X41385461Y6236702D01*
X41202899Y6293215D01*
X41196781Y6293858D01*
X41196776Y6293859D01*
X41018965Y6312547D01*
X41018963Y6312547D01*
X41012836Y6313191D01*
X40933644Y6305984D01*
X40828652Y6296429D01*
X40828649Y6296428D01*
X40822513Y6295870D01*
X40816607Y6294132D01*
X40816603Y6294131D01*
X40683352Y6254912D01*
X40639180Y6241912D01*
X40469818Y6153372D01*
X40320879Y6033622D01*
X40198036Y5887224D01*
X40195068Y5881826D01*
X40195065Y5881821D01*
X40118584Y5742700D01*
X40105969Y5719754D01*
X40104108Y5713887D01*
X40104107Y5713885D01*
X40074930Y5621908D01*
X40048183Y5537590D01*
X40026880Y5347672D01*
X33001930Y5347672D01*
X29932191Y8417411D01*
X29898165Y8479723D01*
X29903230Y8550538D01*
X29910575Y8566559D01*
X29914755Y8572376D01*
X29917586Y8579419D01*
X29917588Y8579422D01*
X29960354Y8685806D01*
X29973842Y8719359D01*
X29982992Y8783651D01*
X29995581Y8872109D01*
X29995581Y8872112D01*
X29996162Y8876193D01*
X29996307Y8890000D01*
X29980103Y9023904D01*
X31217729Y9023904D01*
X31226421Y8945175D01*
X31233582Y8880318D01*
X31235113Y8866447D01*
X31237723Y8859316D01*
X31237723Y8859314D01*
X31286185Y8726885D01*
X31289553Y8717681D01*
X31293789Y8711378D01*
X31293789Y8711377D01*
X31370100Y8597815D01*
X31377908Y8586195D01*
X31383527Y8581082D01*
X31383528Y8581081D01*
X31397995Y8567917D01*
X31495076Y8479581D01*
X31634293Y8403992D01*
X31787522Y8363793D01*
X31873206Y8362447D01*
X31938320Y8361424D01*
X31938323Y8361424D01*
X31945916Y8361305D01*
X31953317Y8363000D01*
X31960587Y8363764D01*
X32030425Y8350990D01*
X32062849Y8327549D01*
X32731833Y7658565D01*
X32744505Y7642875D01*
X32747327Y7639774D01*
X32752975Y7631026D01*
X32761153Y7624579D01*
X32777367Y7611797D01*
X32781397Y7608216D01*
X32781480Y7608314D01*
X32785437Y7604961D01*
X32789118Y7601280D01*
X32793350Y7598256D01*
X32793352Y7598254D01*
X32803711Y7590851D01*
X32808456Y7587288D01*
X32837895Y7564080D01*
X32837897Y7564079D01*
X32846075Y7557632D01*
X32854180Y7554786D01*
X32861171Y7549790D01*
X32896462Y7539236D01*
X32907071Y7536063D01*
X32912715Y7534229D01*
X32950447Y7520979D01*
X32950450Y7520978D01*
X32957929Y7518352D01*
X32963148Y7517900D01*
X32965859Y7517900D01*
X32968135Y7517802D01*
X32968585Y7517667D01*
X32968583Y7517613D01*
X32968814Y7517598D01*
X32974751Y7515823D01*
X33025149Y7517803D01*
X33030095Y7517900D01*
X37476392Y7517900D01*
X37544513Y7497898D01*
X37588456Y7449498D01*
X37642905Y7343551D01*
X37761612Y7193780D01*
X37766306Y7189785D01*
X37790086Y7169547D01*
X37907149Y7069918D01*
X37912527Y7066912D01*
X37912529Y7066911D01*
X37952733Y7044442D01*
X38073972Y6976684D01*
X38255728Y6917628D01*
X38445493Y6895000D01*
X38451628Y6895472D01*
X38451630Y6895472D01*
X38515393Y6900378D01*
X38636039Y6909661D01*
X38820108Y6961055D01*
X38825612Y6963835D01*
X38985189Y7044442D01*
X38985191Y7044443D01*
X38990690Y7047221D01*
X39141286Y7164880D01*
X39145312Y7169544D01*
X39145315Y7169547D01*
X39262134Y7304884D01*
X39266161Y7309549D01*
X39360557Y7475717D01*
X39362680Y7482097D01*
X39404634Y7608216D01*
X39420881Y7657056D01*
X39444833Y7846659D01*
X39445215Y7874000D01*
X39426566Y8064197D01*
X39371329Y8247150D01*
X39316116Y8350990D01*
X39284503Y8410447D01*
X39284501Y8410450D01*
X39281609Y8415889D01*
X39277719Y8420659D01*
X39277716Y8420663D01*
X39164717Y8559213D01*
X39164714Y8559216D01*
X39160822Y8563988D01*
X39135055Y8585305D01*
X39018319Y8681877D01*
X39013570Y8685806D01*
X38845461Y8776702D01*
X38662899Y8833215D01*
X38656781Y8833858D01*
X38656776Y8833859D01*
X38478965Y8852547D01*
X38478963Y8852547D01*
X38472836Y8853191D01*
X38393644Y8845984D01*
X38288652Y8836429D01*
X38288649Y8836428D01*
X38282513Y8835870D01*
X38276607Y8834132D01*
X38276603Y8834131D01*
X38143352Y8794912D01*
X38099180Y8781912D01*
X37929818Y8693372D01*
X37925018Y8689512D01*
X37925017Y8689512D01*
X37790156Y8581081D01*
X37780879Y8573622D01*
X37658036Y8427224D01*
X37655068Y8421826D01*
X37655065Y8421821D01*
X37603239Y8327549D01*
X37588870Y8301410D01*
X37585565Y8295399D01*
X37535220Y8245341D01*
X37475150Y8230100D01*
X33219692Y8230100D01*
X33151571Y8250102D01*
X33130596Y8267005D01*
X32563019Y8834583D01*
X32528994Y8896895D01*
X32527372Y8941431D01*
X32535581Y8999109D01*
X32535581Y8999112D01*
X32536162Y9003193D01*
X32536307Y9017000D01*
X32517276Y9174267D01*
X32461280Y9322454D01*
X32387152Y9430311D01*
X32375855Y9446749D01*
X32375854Y9446751D01*
X32371553Y9453008D01*
X32253275Y9558389D01*
X32245889Y9562300D01*
X32148794Y9613709D01*
X32113274Y9632516D01*
X31959633Y9671108D01*
X31952034Y9671148D01*
X31952033Y9671148D01*
X31886181Y9671493D01*
X31801221Y9671938D01*
X31793841Y9670166D01*
X31793839Y9670166D01*
X31654563Y9636729D01*
X31654560Y9636728D01*
X31647184Y9634957D01*
X31506414Y9562300D01*
X31387039Y9458162D01*
X31295950Y9328556D01*
X31267178Y9254759D01*
X31244056Y9195454D01*
X31238406Y9180963D01*
X31237414Y9173430D01*
X31237414Y9173429D01*
X31220805Y9047267D01*
X31217729Y9023904D01*
X29980103Y9023904D01*
X29977276Y9047267D01*
X29921280Y9195454D01*
X29859886Y9284783D01*
X29835855Y9319749D01*
X29835854Y9319751D01*
X29831553Y9326008D01*
X29821717Y9334772D01*
X29718946Y9426336D01*
X29713275Y9431389D01*
X29705889Y9435300D01*
X29579988Y9501961D01*
X29579989Y9501961D01*
X29573274Y9505516D01*
X29419633Y9544108D01*
X29412034Y9544148D01*
X29412033Y9544148D01*
X29346181Y9544493D01*
X29261221Y9544938D01*
X29253841Y9543166D01*
X29253839Y9543166D01*
X29114563Y9509729D01*
X29114560Y9509728D01*
X29107184Y9507957D01*
X28966414Y9435300D01*
X28847039Y9331162D01*
X28755950Y9201556D01*
X28744984Y9173429D01*
X28704056Y9068454D01*
X28698406Y9053963D01*
X28697414Y9046430D01*
X28697414Y9046429D01*
X28680805Y8920267D01*
X28677729Y8896904D01*
X20641603Y8896904D01*
X20638776Y8920267D01*
X20582780Y9068454D01*
X20500589Y9188043D01*
X20497355Y9192749D01*
X20497354Y9192751D01*
X20493053Y9199008D01*
X20487268Y9204162D01*
X20396781Y9284783D01*
X20359225Y9345034D01*
X20354600Y9378860D01*
X20354600Y9541078D01*
X20356732Y9561111D01*
X20356930Y9565309D01*
X20359123Y9575494D01*
X20355473Y9606333D01*
X20355156Y9611715D01*
X20355028Y9611704D01*
X20354600Y9616882D01*
X20354600Y9622084D01*
X20352457Y9634957D01*
X20351658Y9639761D01*
X20350823Y9645633D01*
X20346415Y9682875D01*
X20346413Y9682882D01*
X20345189Y9693223D01*
X20341471Y9700966D01*
X20340060Y9709442D01*
X20317298Y9751626D01*
X20314617Y9756889D01*
X20297304Y9792944D01*
X20297303Y9792945D01*
X20293872Y9800091D01*
X20290501Y9804101D01*
X20288562Y9806040D01*
X20287047Y9807692D01*
X20286827Y9808100D01*
X20286868Y9808138D01*
X20286708Y9808319D01*
X20283765Y9813774D01*
X20246718Y9848019D01*
X20243153Y9851449D01*
X19666930Y10427672D01*
X40026880Y10427672D01*
X40033199Y10352423D01*
X40041726Y10250885D01*
X40042872Y10237233D01*
X40095549Y10053527D01*
X40098367Y10048045D01*
X40098368Y10048041D01*
X40180085Y9889037D01*
X40180088Y9889033D01*
X40182905Y9883551D01*
X40301612Y9733780D01*
X40306306Y9729785D01*
X40424774Y9628961D01*
X40447149Y9609918D01*
X40452527Y9606912D01*
X40452529Y9606911D01*
X40490239Y9585836D01*
X40613972Y9516684D01*
X40795728Y9457628D01*
X40985493Y9435000D01*
X40991628Y9435472D01*
X40991630Y9435472D01*
X41055393Y9440378D01*
X41176039Y9449661D01*
X41360108Y9501055D01*
X41366881Y9504476D01*
X41525189Y9584442D01*
X41525191Y9584443D01*
X41530690Y9587221D01*
X41681286Y9704880D01*
X41685312Y9709544D01*
X41685315Y9709547D01*
X41802134Y9844884D01*
X41806161Y9849549D01*
X41812915Y9861437D01*
X41873297Y9967731D01*
X41888298Y9994137D01*
X41939337Y10043487D01*
X41997854Y10057900D01*
X49675572Y10057900D01*
X49743693Y10037898D01*
X49780152Y10002178D01*
X49792908Y9983195D01*
X49910076Y9876581D01*
X50049293Y9800992D01*
X50202522Y9760793D01*
X50286477Y9759474D01*
X50353319Y9758424D01*
X50353322Y9758424D01*
X50360916Y9758305D01*
X50515332Y9793671D01*
X50617159Y9844884D01*
X50650072Y9861437D01*
X50650075Y9861439D01*
X50656855Y9864849D01*
X50662626Y9869778D01*
X50662629Y9869780D01*
X50771536Y9962796D01*
X50771536Y9962797D01*
X50777314Y9967731D01*
X50869755Y10096376D01*
X50928842Y10243359D01*
X50951162Y10400193D01*
X50951307Y10414000D01*
X50932276Y10571267D01*
X50876280Y10719454D01*
X50804669Y10823649D01*
X50790855Y10843749D01*
X50790854Y10843751D01*
X50786553Y10850008D01*
X50668275Y10955389D01*
X50660889Y10959300D01*
X50534988Y11025961D01*
X50534989Y11025961D01*
X50528274Y11029516D01*
X50374633Y11068108D01*
X50367034Y11068148D01*
X50367033Y11068148D01*
X50301181Y11068493D01*
X50216221Y11068938D01*
X50208841Y11067166D01*
X50208839Y11067166D01*
X50069563Y11033729D01*
X50069560Y11033728D01*
X50062184Y11031957D01*
X49921414Y10959300D01*
X49802039Y10855162D01*
X49797672Y10848949D01*
X49797667Y10848943D01*
X49779890Y10823649D01*
X49724356Y10779417D01*
X49676804Y10770100D01*
X41996103Y10770100D01*
X41927982Y10790102D01*
X41884852Y10836946D01*
X41872512Y10860154D01*
X41821609Y10955889D01*
X41817719Y10960659D01*
X41817716Y10960663D01*
X41704717Y11099213D01*
X41704714Y11099216D01*
X41700822Y11103988D01*
X41680521Y11120783D01*
X41558319Y11221877D01*
X41553570Y11225806D01*
X41385461Y11316702D01*
X41202899Y11373215D01*
X41196781Y11373858D01*
X41196776Y11373859D01*
X41018965Y11392547D01*
X41018963Y11392547D01*
X41012836Y11393191D01*
X40933644Y11385984D01*
X40828652Y11376429D01*
X40828649Y11376428D01*
X40822513Y11375870D01*
X40816607Y11374132D01*
X40816603Y11374131D01*
X40683352Y11334912D01*
X40639180Y11321912D01*
X40469818Y11233372D01*
X40465018Y11229512D01*
X40465017Y11229512D01*
X40383121Y11163666D01*
X40320879Y11113622D01*
X40198036Y10967224D01*
X40195068Y10961826D01*
X40195065Y10961821D01*
X40139174Y10860154D01*
X40105969Y10799754D01*
X40104108Y10793887D01*
X40104107Y10793885D01*
X40096562Y10770100D01*
X40048183Y10617590D01*
X40026880Y10427672D01*
X19666930Y10427672D01*
X16417167Y13677435D01*
X16404495Y13693125D01*
X16401673Y13696226D01*
X16396025Y13704974D01*
X16371633Y13724203D01*
X16367603Y13727784D01*
X16367520Y13727686D01*
X16363563Y13731039D01*
X16359882Y13734720D01*
X16355648Y13737746D01*
X16345289Y13745149D01*
X16340544Y13748712D01*
X16311105Y13771920D01*
X16311103Y13771921D01*
X16302925Y13778368D01*
X16294820Y13781214D01*
X16287829Y13786210D01*
X16241938Y13799934D01*
X16236293Y13801768D01*
X16198553Y13815021D01*
X16198550Y13815022D01*
X16191071Y13817648D01*
X16185852Y13818100D01*
X16183141Y13818100D01*
X16180864Y13818198D01*
X16180415Y13818333D01*
X16180417Y13818387D01*
X16180184Y13818402D01*
X16174248Y13820177D01*
X16124385Y13818218D01*
X16123850Y13818197D01*
X16118904Y13818100D01*
X15982764Y13818100D01*
X15914643Y13838102D01*
X15878924Y13872733D01*
X15865855Y13891749D01*
X15865854Y13891751D01*
X15861553Y13898008D01*
X15743275Y14003389D01*
X15735889Y14007300D01*
X15609988Y14073961D01*
X15609989Y14073961D01*
X15603274Y14077516D01*
X15449633Y14116108D01*
X15442034Y14116148D01*
X15442033Y14116148D01*
X15376181Y14116493D01*
X15291221Y14116938D01*
X15283841Y14115166D01*
X15283839Y14115166D01*
X15144563Y14081729D01*
X15144560Y14081728D01*
X15137184Y14079957D01*
X14996414Y14007300D01*
X14877039Y13903162D01*
X14785950Y13773556D01*
X14728406Y13625963D01*
X14727414Y13618430D01*
X14727414Y13618429D01*
X14726241Y13609515D01*
X14707729Y13468904D01*
X254500Y13468904D01*
X254500Y14746036D01*
X1431148Y14746036D01*
X1444424Y14543478D01*
X1445845Y14537882D01*
X1445846Y14537877D01*
X1466119Y14458055D01*
X1494392Y14346731D01*
X1496809Y14341488D01*
X1534010Y14260792D01*
X1579377Y14162384D01*
X1582710Y14157668D01*
X1692505Y14002311D01*
X1696533Y13996611D01*
X1841938Y13854965D01*
X1846742Y13851755D01*
X1896681Y13818387D01*
X2010720Y13742188D01*
X2016023Y13739910D01*
X2016026Y13739908D01*
X2104707Y13701808D01*
X2197228Y13662058D01*
X2270244Y13645536D01*
X2389579Y13618533D01*
X2389584Y13618532D01*
X2395216Y13617258D01*
X2400987Y13617031D01*
X2400989Y13617031D01*
X2460756Y13614683D01*
X2598053Y13609288D01*
X2698499Y13623852D01*
X2793231Y13637587D01*
X2793236Y13637588D01*
X2798945Y13638416D01*
X2804409Y13640271D01*
X2804414Y13640272D01*
X2985693Y13701808D01*
X2985698Y13701810D01*
X2991165Y13703666D01*
X3027837Y13724203D01*
X3127062Y13779772D01*
X3168276Y13802853D01*
X3182907Y13815021D01*
X3319913Y13928969D01*
X3324345Y13932655D01*
X3441869Y14073961D01*
X3450453Y14084282D01*
X3450455Y14084285D01*
X3454147Y14088724D01*
X3553334Y14265835D01*
X3555190Y14271302D01*
X3555192Y14271307D01*
X3616728Y14452586D01*
X3616729Y14452591D01*
X3618584Y14458055D01*
X3619412Y14463764D01*
X3619413Y14463769D01*
X3647179Y14655273D01*
X3647712Y14658947D01*
X3649232Y14717000D01*
X3634836Y14873671D01*
X3631187Y14913387D01*
X3631186Y14913390D01*
X3630658Y14919141D01*
X3624370Y14941437D01*
X3577125Y15108954D01*
X3577124Y15108956D01*
X3575557Y15114513D01*
X3564978Y15135967D01*
X3488331Y15291391D01*
X3485776Y15296572D01*
X3364320Y15459221D01*
X3319228Y15500904D01*
X16231729Y15500904D01*
X16249113Y15343447D01*
X16251723Y15336316D01*
X16251723Y15336314D01*
X16268163Y15291391D01*
X16303553Y15194681D01*
X16391908Y15063195D01*
X16397527Y15058082D01*
X16397528Y15058081D01*
X16408903Y15047731D01*
X16509076Y14956581D01*
X16648293Y14880992D01*
X16801522Y14840793D01*
X16885477Y14839474D01*
X16952319Y14838424D01*
X16952322Y14838424D01*
X16959916Y14838305D01*
X17114332Y14873671D01*
X17215795Y14924701D01*
X17249072Y14941437D01*
X17249075Y14941439D01*
X17255855Y14944849D01*
X17261626Y14949778D01*
X17261629Y14949780D01*
X17370536Y15042796D01*
X17370536Y15042797D01*
X17376314Y15047731D01*
X17468755Y15176376D01*
X17527842Y15323359D01*
X17533965Y15366385D01*
X17549581Y15476109D01*
X17549581Y15476112D01*
X17550162Y15480193D01*
X17550307Y15494000D01*
X17540865Y15572025D01*
X17552538Y15642054D01*
X17576857Y15676256D01*
X20154435Y18253833D01*
X20170125Y18266505D01*
X20173226Y18269327D01*
X20181974Y18274975D01*
X20201203Y18299367D01*
X20204784Y18303397D01*
X20204686Y18303480D01*
X20208039Y18307437D01*
X20211720Y18311118D01*
X20222149Y18325711D01*
X20225712Y18330456D01*
X20248920Y18359895D01*
X20248921Y18359897D01*
X20255368Y18368075D01*
X20258214Y18376180D01*
X20263210Y18383171D01*
X20276934Y18429062D01*
X20278768Y18434707D01*
X20292021Y18472447D01*
X20292022Y18472450D01*
X20294648Y18479929D01*
X20295100Y18485148D01*
X20295100Y18487859D01*
X20295198Y18490136D01*
X20295333Y18490585D01*
X20295387Y18490583D01*
X20295402Y18490816D01*
X20297177Y18496752D01*
X20295197Y18547150D01*
X20295100Y18552096D01*
X20295100Y18689285D01*
X20315102Y18757406D01*
X20339270Y18785096D01*
X20418532Y18852792D01*
X20418535Y18852795D01*
X20424314Y18857731D01*
X20516755Y18986376D01*
X20575842Y19133359D01*
X20598162Y19290193D01*
X20598307Y19304000D01*
X20579276Y19461267D01*
X20523280Y19609454D01*
X20485500Y19664424D01*
X20437855Y19733749D01*
X20437854Y19733751D01*
X20433553Y19740008D01*
X20315275Y19845389D01*
X20307889Y19849300D01*
X20181988Y19915961D01*
X20181989Y19915961D01*
X20175274Y19919516D01*
X20021633Y19958108D01*
X20014034Y19958148D01*
X20014033Y19958148D01*
X19948181Y19958493D01*
X19863221Y19958938D01*
X19855841Y19957166D01*
X19855839Y19957166D01*
X19716563Y19923729D01*
X19716560Y19923728D01*
X19709184Y19921957D01*
X19568414Y19849300D01*
X19449039Y19745162D01*
X19357950Y19615556D01*
X19300406Y19467963D01*
X19279729Y19310904D01*
X19297113Y19153447D01*
X19351553Y19004681D01*
X19439908Y18873195D01*
X19513264Y18806447D01*
X19550185Y18745807D01*
X19548462Y18674832D01*
X19517558Y18624159D01*
X17076724Y16183326D01*
X17014412Y16149300D01*
X16975709Y16147587D01*
X16973633Y16148108D01*
X16966037Y16148148D01*
X16966035Y16148148D01*
X16898163Y16148503D01*
X16815221Y16148938D01*
X16807841Y16147166D01*
X16807839Y16147166D01*
X16668563Y16113729D01*
X16668560Y16113728D01*
X16661184Y16111957D01*
X16520414Y16039300D01*
X16401039Y15935162D01*
X16309950Y15805556D01*
X16302495Y15786435D01*
X16269674Y15702252D01*
X16252406Y15657963D01*
X16251414Y15650430D01*
X16251414Y15650429D01*
X16250312Y15642054D01*
X16231729Y15500904D01*
X3319228Y15500904D01*
X3215258Y15597013D01*
X3210375Y15600094D01*
X3210371Y15600097D01*
X3048464Y15702252D01*
X3043581Y15705333D01*
X2855039Y15780554D01*
X2849379Y15781680D01*
X2849375Y15781681D01*
X2661613Y15819029D01*
X2661610Y15819029D01*
X2655946Y15820156D01*
X2650171Y15820232D01*
X2650167Y15820232D01*
X2548793Y15821559D01*
X2452971Y15822813D01*
X2447274Y15821834D01*
X2447273Y15821834D01*
X2311339Y15798476D01*
X2252910Y15788436D01*
X2062463Y15718176D01*
X1888010Y15614388D01*
X1883670Y15610582D01*
X1883666Y15610579D01*
X1739733Y15484352D01*
X1735392Y15480545D01*
X1609720Y15321131D01*
X1607031Y15316020D01*
X1607029Y15316017D01*
X1594073Y15291391D01*
X1515203Y15141485D01*
X1488009Y15053905D01*
X1459376Y14961691D01*
X1455007Y14947622D01*
X1431148Y14746036D01*
X254500Y14746036D01*
X254500Y18132067D01*
X1435500Y18132067D01*
X1435501Y16381934D01*
X1450266Y16307699D01*
X1506516Y16223516D01*
X1590699Y16167266D01*
X1664933Y16152500D01*
X2539858Y16152500D01*
X3415066Y16152501D01*
X3450818Y16159612D01*
X3477126Y16164844D01*
X3477128Y16164845D01*
X3489301Y16167266D01*
X3499621Y16174161D01*
X3499622Y16174162D01*
X3563168Y16216623D01*
X3573484Y16223516D01*
X3629734Y16307699D01*
X3644500Y16381933D01*
X3644499Y18132066D01*
X3629734Y18206301D01*
X3589507Y18266505D01*
X3580377Y18280168D01*
X3573484Y18290484D01*
X3489301Y18346734D01*
X3415067Y18361500D01*
X2540142Y18361500D01*
X1664934Y18361499D01*
X1629182Y18354388D01*
X1602874Y18349156D01*
X1602872Y18349155D01*
X1590699Y18346734D01*
X1580379Y18339839D01*
X1580378Y18339838D01*
X1528535Y18305197D01*
X1506516Y18290484D01*
X1450266Y18206301D01*
X1435500Y18132067D01*
X254500Y18132067D01*
X254500Y20326904D01*
X4674729Y20326904D01*
X4678365Y20293969D01*
X4686536Y20219965D01*
X4692113Y20169447D01*
X4694723Y20162316D01*
X4694723Y20162314D01*
X4727960Y20071490D01*
X4746553Y20020681D01*
X4750789Y20014378D01*
X4750789Y20014377D01*
X4788043Y19958938D01*
X4834908Y19889195D01*
X4840527Y19884082D01*
X4840528Y19884081D01*
X4946460Y19787691D01*
X4952076Y19782581D01*
X5091293Y19706992D01*
X5244522Y19666793D01*
X5328477Y19665474D01*
X5395319Y19664424D01*
X5395322Y19664424D01*
X5402916Y19664305D01*
X5557332Y19699671D01*
X5647782Y19745162D01*
X5692072Y19767437D01*
X5692075Y19767439D01*
X5698855Y19770849D01*
X5704626Y19775778D01*
X5704629Y19775780D01*
X5813536Y19868796D01*
X5813536Y19868797D01*
X5819314Y19873731D01*
X5911755Y20002376D01*
X5970842Y20149359D01*
X5981464Y20223998D01*
X5992581Y20302109D01*
X5992581Y20302112D01*
X5993162Y20306193D01*
X5993307Y20320000D01*
X5974276Y20477267D01*
X5918280Y20625454D01*
X5858984Y20711731D01*
X5832855Y20749749D01*
X5832854Y20749751D01*
X5828553Y20756008D01*
X5759439Y20817586D01*
X5732281Y20841783D01*
X5694725Y20902034D01*
X5690100Y20935860D01*
X5690100Y21111036D01*
X48802148Y21111036D01*
X48815424Y20908478D01*
X48816845Y20902882D01*
X48816846Y20902877D01*
X48863971Y20717326D01*
X48865392Y20711731D01*
X48867809Y20706488D01*
X48905010Y20625792D01*
X48950377Y20527384D01*
X49067533Y20361611D01*
X49212938Y20219965D01*
X49381720Y20107188D01*
X49387023Y20104910D01*
X49387026Y20104908D01*
X49475707Y20066808D01*
X49568228Y20027058D01*
X49624270Y20014377D01*
X49760579Y19983533D01*
X49760584Y19983532D01*
X49766216Y19982258D01*
X49771987Y19982031D01*
X49771989Y19982031D01*
X49831756Y19979683D01*
X49969053Y19974288D01*
X50069499Y19988852D01*
X50164231Y20002587D01*
X50164236Y20002588D01*
X50169945Y20003416D01*
X50175409Y20005271D01*
X50175414Y20005272D01*
X50356693Y20066808D01*
X50356698Y20066810D01*
X50362165Y20068666D01*
X50539276Y20167853D01*
X50550271Y20176997D01*
X50690913Y20293969D01*
X50695345Y20297655D01*
X50825147Y20453724D01*
X50920773Y20624476D01*
X50921510Y20625792D01*
X50921511Y20625794D01*
X50924334Y20630835D01*
X50926190Y20636302D01*
X50926192Y20636307D01*
X50987728Y20817586D01*
X50987729Y20817591D01*
X50989584Y20823055D01*
X50990412Y20828764D01*
X50990413Y20828769D01*
X51018179Y21020273D01*
X51018712Y21023947D01*
X51020232Y21082000D01*
X51001658Y21284141D01*
X51000090Y21289701D01*
X50948125Y21473954D01*
X50948124Y21473956D01*
X50946557Y21479513D01*
X50935978Y21500967D01*
X50859331Y21656391D01*
X50856776Y21661572D01*
X50735320Y21824221D01*
X50586258Y21962013D01*
X50581375Y21965094D01*
X50581371Y21965097D01*
X50419464Y22067252D01*
X50414581Y22070333D01*
X50226039Y22145554D01*
X50220379Y22146680D01*
X50220375Y22146681D01*
X50032613Y22184029D01*
X50032610Y22184029D01*
X50026946Y22185156D01*
X50021171Y22185232D01*
X50021167Y22185232D01*
X49919793Y22186559D01*
X49823971Y22187813D01*
X49818274Y22186834D01*
X49818273Y22186834D01*
X49629607Y22154415D01*
X49623910Y22153436D01*
X49433463Y22083176D01*
X49259010Y21979388D01*
X49254670Y21975582D01*
X49254666Y21975579D01*
X49234723Y21958089D01*
X49106392Y21845545D01*
X48980720Y21686131D01*
X48978031Y21681020D01*
X48978029Y21681017D01*
X48965073Y21656391D01*
X48886203Y21506485D01*
X48826007Y21312622D01*
X48802148Y21111036D01*
X5690100Y21111036D01*
X5690100Y23523909D01*
X5710102Y23592030D01*
X5727005Y23613004D01*
X7281822Y25167820D01*
X7344134Y25201846D01*
X7378109Y25203172D01*
X7378122Y25203993D01*
X7528919Y25201624D01*
X7528922Y25201624D01*
X7536516Y25201505D01*
X7690932Y25236871D01*
X7761342Y25272283D01*
X7825672Y25304637D01*
X7825675Y25304639D01*
X7832455Y25308049D01*
X7838226Y25312978D01*
X7838229Y25312980D01*
X7947136Y25405996D01*
X7947136Y25405997D01*
X7952914Y25410931D01*
X8045355Y25539576D01*
X8104442Y25686559D01*
X8126762Y25843393D01*
X8126907Y25857200D01*
X8107876Y26014467D01*
X8051880Y26162654D01*
X7962153Y26293208D01*
X7843875Y26398589D01*
X7836489Y26402500D01*
X7710588Y26469161D01*
X7710589Y26469161D01*
X7703874Y26472716D01*
X7550233Y26511308D01*
X7542634Y26511348D01*
X7542633Y26511348D01*
X7476781Y26511693D01*
X7391821Y26512138D01*
X7384441Y26510366D01*
X7384439Y26510366D01*
X7245163Y26476929D01*
X7245160Y26476928D01*
X7237784Y26475157D01*
X7097014Y26402500D01*
X6977639Y26298362D01*
X6886550Y26168756D01*
X6829006Y26021163D01*
X6808329Y25864104D01*
X6817854Y25777833D01*
X6805448Y25707930D01*
X6781710Y25674912D01*
X5118565Y24011767D01*
X5102875Y23999095D01*
X5099774Y23996273D01*
X5091026Y23990625D01*
X5084579Y23982447D01*
X5071797Y23966233D01*
X5068216Y23962203D01*
X5068314Y23962120D01*
X5064961Y23958163D01*
X5061280Y23954482D01*
X5058256Y23950250D01*
X5058254Y23950248D01*
X5050851Y23939889D01*
X5047288Y23935144D01*
X5024080Y23905705D01*
X5024079Y23905703D01*
X5017632Y23897525D01*
X5014786Y23889420D01*
X5009790Y23882429D01*
X5006806Y23872450D01*
X4996066Y23836538D01*
X4994232Y23830893D01*
X4980979Y23793153D01*
X4978352Y23785671D01*
X4977900Y23780452D01*
X4977900Y23777741D01*
X4977802Y23775464D01*
X4977667Y23775015D01*
X4977613Y23775017D01*
X4977598Y23774784D01*
X4975823Y23768848D01*
X4976232Y23758444D01*
X4977803Y23718450D01*
X4977900Y23713504D01*
X4977900Y20935226D01*
X4957898Y20867105D01*
X4934729Y20840277D01*
X4849765Y20766158D01*
X4849761Y20766154D01*
X4844039Y20761162D01*
X4752950Y20631556D01*
X4695406Y20483963D01*
X4694414Y20476430D01*
X4694414Y20476429D01*
X4679920Y20366331D01*
X4674729Y20326904D01*
X254500Y20326904D01*
X254500Y29671000D01*
X3901693Y29671000D01*
X3920891Y29427071D01*
X3978011Y29189148D01*
X4071647Y28963089D01*
X4199494Y28754462D01*
X4358403Y28568403D01*
X4544462Y28409494D01*
X4753089Y28281647D01*
X4757659Y28279754D01*
X4757663Y28279752D01*
X4974575Y28189905D01*
X4979148Y28188011D01*
X5061452Y28168252D01*
X5212258Y28132046D01*
X5212264Y28132045D01*
X5217071Y28130891D01*
X5461000Y28111693D01*
X5704929Y28130891D01*
X5709736Y28132045D01*
X5709742Y28132046D01*
X5860548Y28168252D01*
X5942852Y28188011D01*
X5947425Y28189905D01*
X6164337Y28279752D01*
X6164341Y28279754D01*
X6168911Y28281647D01*
X6377538Y28409494D01*
X6563597Y28568403D01*
X6722506Y28754462D01*
X6850353Y28963089D01*
X6943989Y29189148D01*
X7001109Y29427071D01*
X7020307Y29671000D01*
X7001109Y29914929D01*
X6943989Y30152852D01*
X6850353Y30378911D01*
X6722506Y30587538D01*
X6624689Y30702067D01*
X51328500Y30702067D01*
X51328501Y28051934D01*
X51343266Y27977699D01*
X51399516Y27893516D01*
X51483699Y27837266D01*
X51557933Y27822500D01*
X52882785Y27822500D01*
X54208066Y27822501D01*
X54243818Y27829612D01*
X54270126Y27834844D01*
X54270128Y27834845D01*
X54282301Y27837266D01*
X54292621Y27844161D01*
X54292622Y27844162D01*
X54356168Y27886623D01*
X54366484Y27893516D01*
X54422734Y27977699D01*
X54437500Y28051933D01*
X54437499Y30702066D01*
X54422734Y30776301D01*
X54366484Y30860484D01*
X54282301Y30916734D01*
X54208067Y30931500D01*
X52883215Y30931500D01*
X51557934Y30931499D01*
X51522182Y30924388D01*
X51495874Y30919156D01*
X51495872Y30919155D01*
X51483699Y30916734D01*
X51473379Y30909839D01*
X51473378Y30909838D01*
X51412985Y30869484D01*
X51399516Y30860484D01*
X51343266Y30776301D01*
X51328500Y30702067D01*
X6624689Y30702067D01*
X6563597Y30773597D01*
X6377538Y30932506D01*
X6168911Y31060353D01*
X6164341Y31062246D01*
X6164337Y31062248D01*
X5947425Y31152095D01*
X5947423Y31152096D01*
X5942852Y31153989D01*
X5860548Y31173748D01*
X5709742Y31209954D01*
X5709736Y31209955D01*
X5704929Y31211109D01*
X5461000Y31230307D01*
X5217071Y31211109D01*
X5212264Y31209955D01*
X5212258Y31209954D01*
X5061452Y31173748D01*
X4979148Y31153989D01*
X4974577Y31152096D01*
X4974575Y31152095D01*
X4757663Y31062248D01*
X4757659Y31062246D01*
X4753089Y31060353D01*
X4544462Y30932506D01*
X4358403Y30773597D01*
X4199494Y30587538D01*
X4071647Y30378911D01*
X3978011Y30152852D01*
X3920891Y29914929D01*
X3901693Y29671000D01*
X254500Y29671000D01*
X254500Y41993033D01*
X256233Y42008031D01*
X256508Y42016162D01*
X259338Y42028245D01*
X257329Y42040491D01*
X257748Y42052893D01*
X257807Y42052891D01*
X257380Y42063916D01*
X284736Y42385031D01*
X286489Y42397818D01*
X351986Y42743099D01*
X355037Y42755641D01*
X374295Y42820185D01*
X455521Y43092432D01*
X459840Y43104593D01*
X594240Y43429314D01*
X599780Y43440972D01*
X675061Y43580456D01*
X766707Y43750261D01*
X773408Y43761286D01*
X971093Y44051868D01*
X978886Y44062148D01*
X1205264Y44330984D01*
X1214073Y44340418D01*
X1466759Y44584678D01*
X1476486Y44593161D01*
X1752833Y44810290D01*
X1763377Y44817734D01*
X2060491Y45005455D01*
X2071741Y45011781D01*
X2386498Y45168121D01*
X2398336Y45173263D01*
X2727439Y45296585D01*
X2739742Y45300489D01*
X3079729Y45389494D01*
X3092366Y45392119D01*
X3243251Y45415473D01*
X3439679Y45445877D01*
X3452504Y45447194D01*
X3774500Y45463657D01*
X3785381Y45462864D01*
X3785381Y45462939D01*
X3797787Y45462937D01*
X3809959Y45460514D01*
X3822887Y45463083D01*
X3847446Y45465500D01*
X54572524Y45465500D01*
X54597103Y45463079D01*
G37*
%TD.AperFunction*%
%TD*%
M02*
