%TF.GenerationSoftware,KiCad,Pcbnew,(6.0.6-0)*%
%TF.CreationDate,2022-08-07T14:06:52-04:00*%
%TF.ProjectId,BatteryLedStripDriver,42617474-6572-4794-9c65-645374726970,rev?*%
%TF.SameCoordinates,PX6160b60PY791ddc0*%
%TF.FileFunction,Copper,L1,Top*%
%TF.FilePolarity,Positive*%
%FSLAX46Y46*%
G04 Gerber Fmt 4.6, Leading zero omitted, Abs format (unit mm)*
G04 Created by KiCad (PCBNEW (6.0.6-0)) date 2022-08-07 14:06:52*
%MOMM*%
%LPD*%
G01*
G04 APERTURE LIST*
G04 Aperture macros list*
%AMRoundRect*
0 Rectangle with rounded corners*
0 $1 Rounding radius*
0 $2 $3 $4 $5 $6 $7 $8 $9 X,Y pos of 4 corners*
0 Add a 4 corners polygon primitive as box body*
4,1,4,$2,$3,$4,$5,$6,$7,$8,$9,$2,$3,0*
0 Add four circle primitives for the rounded corners*
1,1,$1+$1,$2,$3*
1,1,$1+$1,$4,$5*
1,1,$1+$1,$6,$7*
1,1,$1+$1,$8,$9*
0 Add four rect primitives between the rounded corners*
20,1,$1+$1,$2,$3,$4,$5,0*
20,1,$1+$1,$4,$5,$6,$7,0*
20,1,$1+$1,$6,$7,$8,$9,0*
20,1,$1+$1,$8,$9,$2,$3,0*%
G04 Aperture macros list end*
%TA.AperFunction,SMDPad,CuDef*%
%ADD10RoundRect,0.225000X0.225000X0.250000X-0.225000X0.250000X-0.225000X-0.250000X0.225000X-0.250000X0*%
%TD*%
%TA.AperFunction,SMDPad,CuDef*%
%ADD11RoundRect,0.250000X-0.350000X-0.450000X0.350000X-0.450000X0.350000X0.450000X-0.350000X0.450000X0*%
%TD*%
%TA.AperFunction,SMDPad,CuDef*%
%ADD12R,2.500000X1.800000*%
%TD*%
%TA.AperFunction,ComponentPad*%
%ADD13R,2.600000X2.600000*%
%TD*%
%TA.AperFunction,ComponentPad*%
%ADD14C,2.600000*%
%TD*%
%TA.AperFunction,SMDPad,CuDef*%
%ADD15R,1.200000X0.900000*%
%TD*%
%TA.AperFunction,SMDPad,CuDef*%
%ADD16RoundRect,0.135000X-0.135000X-0.185000X0.135000X-0.185000X0.135000X0.185000X-0.135000X0.185000X0*%
%TD*%
%TA.AperFunction,SMDPad,CuDef*%
%ADD17RoundRect,0.150000X0.150000X-0.587500X0.150000X0.587500X-0.150000X0.587500X-0.150000X-0.587500X0*%
%TD*%
%TA.AperFunction,SMDPad,CuDef*%
%ADD18RoundRect,0.160000X-0.197500X-0.160000X0.197500X-0.160000X0.197500X0.160000X-0.197500X0.160000X0*%
%TD*%
%TA.AperFunction,ComponentPad*%
%ADD19C,5.400000*%
%TD*%
%TA.AperFunction,SMDPad,CuDef*%
%ADD20RoundRect,0.135000X-0.185000X0.135000X-0.185000X-0.135000X0.185000X-0.135000X0.185000X0.135000X0*%
%TD*%
%TA.AperFunction,SMDPad,CuDef*%
%ADD21RoundRect,0.250000X0.250000X0.475000X-0.250000X0.475000X-0.250000X-0.475000X0.250000X-0.475000X0*%
%TD*%
%TA.AperFunction,SMDPad,CuDef*%
%ADD22RoundRect,0.140000X0.140000X0.170000X-0.140000X0.170000X-0.140000X-0.170000X0.140000X-0.170000X0*%
%TD*%
%TA.AperFunction,SMDPad,CuDef*%
%ADD23RoundRect,0.225000X-0.225000X-0.250000X0.225000X-0.250000X0.225000X0.250000X-0.225000X0.250000X0*%
%TD*%
%TA.AperFunction,SMDPad,CuDef*%
%ADD24RoundRect,0.150000X-0.587500X-0.150000X0.587500X-0.150000X0.587500X0.150000X-0.587500X0.150000X0*%
%TD*%
%TA.AperFunction,SMDPad,CuDef*%
%ADD25RoundRect,0.160000X0.160000X-0.197500X0.160000X0.197500X-0.160000X0.197500X-0.160000X-0.197500X0*%
%TD*%
%TA.AperFunction,SMDPad,CuDef*%
%ADD26RoundRect,0.140000X0.170000X-0.140000X0.170000X0.140000X-0.170000X0.140000X-0.170000X-0.140000X0*%
%TD*%
%TA.AperFunction,ComponentPad*%
%ADD27C,1.440000*%
%TD*%
%TA.AperFunction,SMDPad,CuDef*%
%ADD28RoundRect,0.160000X0.197500X0.160000X-0.197500X0.160000X-0.197500X-0.160000X0.197500X-0.160000X0*%
%TD*%
%TA.AperFunction,ComponentPad*%
%ADD29R,1.700000X1.700000*%
%TD*%
%TA.AperFunction,ComponentPad*%
%ADD30O,1.700000X1.700000*%
%TD*%
%TA.AperFunction,SMDPad,CuDef*%
%ADD31RoundRect,0.135000X0.135000X0.185000X-0.135000X0.185000X-0.135000X-0.185000X0.135000X-0.185000X0*%
%TD*%
%TA.AperFunction,SMDPad,CuDef*%
%ADD32RoundRect,0.225000X-0.250000X0.225000X-0.250000X-0.225000X0.250000X-0.225000X0.250000X0.225000X0*%
%TD*%
%TA.AperFunction,SMDPad,CuDef*%
%ADD33RoundRect,0.150000X-0.150000X0.825000X-0.150000X-0.825000X0.150000X-0.825000X0.150000X0.825000X0*%
%TD*%
%TA.AperFunction,SMDPad,CuDef*%
%ADD34RoundRect,0.100000X-0.100000X0.687500X-0.100000X-0.687500X0.100000X-0.687500X0.100000X0.687500X0*%
%TD*%
%TA.AperFunction,ComponentPad*%
%ADD35C,0.600000*%
%TD*%
%TA.AperFunction,SMDPad,CuDef*%
%ADD36R,5.000000X3.400000*%
%TD*%
%TA.AperFunction,SMDPad,CuDef*%
%ADD37R,2.350000X3.500000*%
%TD*%
%TA.AperFunction,ViaPad*%
%ADD38C,0.800000*%
%TD*%
%TA.AperFunction,Conductor*%
%ADD39C,0.203200*%
%TD*%
%TA.AperFunction,Conductor*%
%ADD40C,0.254000*%
%TD*%
%TA.AperFunction,Conductor*%
%ADD41C,1.270000*%
%TD*%
%TA.AperFunction,Conductor*%
%ADD42C,0.250000*%
%TD*%
G04 APERTURE END LIST*
D10*
%TO.P,C2,1*%
%TO.N,Net-(C2-Pad1)*%
X27191000Y5791200D03*
%TO.P,C2,2*%
%TO.N,GND*%
X25641000Y5791200D03*
%TD*%
D11*
%TO.P,R1,1*%
%TO.N,/VIN*%
X31131000Y2667000D03*
%TO.P,R1,2*%
%TO.N,Net-(R1-Pad2)*%
X33131000Y2667000D03*
%TD*%
D12*
%TO.P,D3,1,K*%
%TO.N,/BST_VOUT*%
X29940000Y24892000D03*
%TO.P,D3,2,A*%
%TO.N,/SW*%
X25940000Y24892000D03*
%TD*%
D13*
%TO.P,J1,1,Pin_1*%
%TO.N,GND*%
X5461000Y34671000D03*
D14*
%TO.P,J1,2,Pin_2*%
%TO.N,/VBATT*%
X5461000Y29671000D03*
%TD*%
D15*
%TO.P,D1,1,K*%
%TO.N,Net-(D1-Pad1)*%
X48387000Y12191000D03*
%TO.P,D1,2,A*%
%TO.N,Net-(D1-Pad2)*%
X48387000Y8891000D03*
%TD*%
D13*
%TO.P,J3,1,Pin_1*%
%TO.N,/VLED*%
X52883000Y29377000D03*
D14*
%TO.P,J3,2,Pin_2*%
%TO.N,GND*%
X52883000Y34377000D03*
%TD*%
D16*
%TO.P,R2,1*%
%TO.N,/VBATT*%
X6983000Y8991600D03*
%TO.P,R2,2*%
%TO.N,Net-(J2-Pad3)*%
X8003000Y8991600D03*
%TD*%
D17*
%TO.P,Q1,1,G*%
%TO.N,Net-(J2-Pad1)*%
X7432000Y10873500D03*
%TO.P,Q1,2,S*%
%TO.N,GND*%
X9332000Y10873500D03*
%TO.P,Q1,3,D*%
%TO.N,Net-(J2-Pad3)*%
X8382000Y12748500D03*
%TD*%
D18*
%TO.P,R8,1*%
%TO.N,/FB*%
X19227500Y7620000D03*
%TO.P,R8,2*%
%TO.N,GND*%
X20422500Y7620000D03*
%TD*%
D11*
%TO.P,R5,1*%
%TO.N,/BST_VOUT*%
X36592000Y25146000D03*
%TO.P,R5,2*%
%TO.N,Net-(Q4-Pad2)*%
X38592000Y25146000D03*
%TD*%
D19*
%TO.P,H1,1,1*%
%TO.N,GND*%
X3810000Y41910000D03*
%TD*%
%TO.P,H4,1,1*%
%TO.N,GND*%
X54610000Y3810000D03*
%TD*%
%TO.P,H2,1,1*%
%TO.N,GND*%
X54610000Y41910000D03*
%TD*%
D20*
%TO.P,R4,1*%
%TO.N,/VBATT*%
X5334000Y22354000D03*
%TO.P,R4,2*%
%TO.N,Net-(Q2-Pad1)*%
X5334000Y21334000D03*
%TD*%
D21*
%TO.P,C6,1*%
%TO.N,/BST_VOUT*%
X30795000Y22047200D03*
%TO.P,C6,2*%
%TO.N,GND*%
X28895000Y22047200D03*
%TD*%
D22*
%TO.P,C10,1*%
%TO.N,/BST_COMP*%
X16495000Y11049000D03*
%TO.P,C10,2*%
%TO.N,GND*%
X15535000Y11049000D03*
%TD*%
D23*
%TO.P,C1,1*%
%TO.N,Net-(C1-Pad1)*%
X31737000Y13538200D03*
%TO.P,C1,2*%
%TO.N,GND*%
X33287000Y13538200D03*
%TD*%
D18*
%TO.P,R3,1*%
%TO.N,Net-(R1-Pad2)*%
X48170500Y3302000D03*
%TO.P,R3,2*%
%TO.N,Net-(D1-Pad1)*%
X49365500Y3302000D03*
%TD*%
D24*
%TO.P,Q5,1,G*%
%TO.N,/LED_PWM_G*%
X39829500Y15997000D03*
%TO.P,Q5,2,S*%
%TO.N,GND*%
X39829500Y14097000D03*
%TO.P,Q5,3,D*%
%TO.N,Net-(Q4-Pad1)*%
X41704500Y15047000D03*
%TD*%
D25*
%TO.P,R9,1*%
%TO.N,/BST_FREQ*%
X14732000Y15367000D03*
%TO.P,R9,2*%
%TO.N,GND*%
X14732000Y16562000D03*
%TD*%
D24*
%TO.P,Q2,1,G*%
%TO.N,Net-(Q2-Pad1)*%
X7444500Y24572000D03*
%TO.P,Q2,2,S*%
%TO.N,/VBATT*%
X7444500Y22672000D03*
%TO.P,Q2,3,D*%
%TO.N,/VIN*%
X9319500Y23622000D03*
%TD*%
D26*
%TO.P,C9,1*%
%TO.N,/BST_SS*%
X15875000Y15540500D03*
%TO.P,C9,2*%
%TO.N,GND*%
X15875000Y16500500D03*
%TD*%
D22*
%TO.P,C5,1*%
%TO.N,/VIN*%
X16990000Y20828000D03*
%TO.P,C5,2*%
%TO.N,GND*%
X16030000Y20828000D03*
%TD*%
D27*
%TO.P,RV1,1,1*%
%TO.N,Net-(D2-Pad1)*%
X41006000Y10414000D03*
%TO.P,RV1,2,2*%
%TO.N,Net-(C1-Pad1)*%
X38466000Y7874000D03*
%TO.P,RV1,3,3*%
%TO.N,Net-(D1-Pad2)*%
X41006000Y5334000D03*
%TD*%
D19*
%TO.P,H3,1,1*%
%TO.N,GND*%
X8382000Y3810000D03*
%TD*%
D28*
%TO.P,R6,1*%
%TO.N,/BST_VOUT*%
X20422500Y6350000D03*
%TO.P,R6,2*%
%TO.N,/FB*%
X19227500Y6350000D03*
%TD*%
D29*
%TO.P,J4,1,Pin_1*%
%TO.N,GND*%
X49911000Y18542000D03*
D30*
%TO.P,J4,2,Pin_2*%
%TO.N,/BST_VOUT*%
X49911000Y21082000D03*
%TD*%
D29*
%TO.P,J2,1,Pin_1*%
%TO.N,Net-(J2-Pad1)*%
X2540000Y17257000D03*
D30*
%TO.P,J2,2,Pin_2*%
%TO.N,/PWR_EN*%
X2540000Y14717000D03*
%TO.P,J2,3,Pin_3*%
%TO.N,Net-(J2-Pad3)*%
X2540000Y12177000D03*
%TD*%
D31*
%TO.P,R10,1*%
%TO.N,/BST_COMP*%
X16525000Y9779000D03*
%TO.P,R10,2*%
%TO.N,Net-(C11-Pad1)*%
X15505000Y9779000D03*
%TD*%
D32*
%TO.P,C3,1*%
%TO.N,/VIN*%
X11684000Y22619000D03*
%TO.P,C3,2*%
%TO.N,GND*%
X11684000Y21069000D03*
%TD*%
D22*
%TO.P,C11,1*%
%TO.N,Net-(C11-Pad1)*%
X13983000Y9779000D03*
%TO.P,C11,2*%
%TO.N,GND*%
X13023000Y9779000D03*
%TD*%
D33*
%TO.P,U1,1,GND*%
%TO.N,GND*%
X33147000Y10806200D03*
%TO.P,U1,2,TR*%
%TO.N,Net-(C1-Pad1)*%
X31877000Y10806200D03*
%TO.P,U1,3,Q*%
%TO.N,/LED_PWM_G*%
X30607000Y10806200D03*
%TO.P,U1,4,R*%
%TO.N,Net-(R1-Pad2)*%
X29337000Y10806200D03*
%TO.P,U1,5,CV*%
%TO.N,Net-(C2-Pad1)*%
X29337000Y5856200D03*
%TO.P,U1,6,THR*%
%TO.N,Net-(C1-Pad1)*%
X30607000Y5856200D03*
%TO.P,U1,7,DIS*%
%TO.N,Net-(D1-Pad1)*%
X31877000Y5856200D03*
%TO.P,U1,8,VCC*%
%TO.N,Net-(R1-Pad2)*%
X33147000Y5856200D03*
%TD*%
D21*
%TO.P,C8,1*%
%TO.N,/BST_VOUT*%
X30795000Y17983200D03*
%TO.P,C8,2*%
%TO.N,GND*%
X28895000Y17983200D03*
%TD*%
D32*
%TO.P,C4,1*%
%TO.N,/VIN*%
X13462000Y22619000D03*
%TO.P,C4,2*%
%TO.N,GND*%
X13462000Y21069000D03*
%TD*%
D34*
%TO.P,U2,1,SW*%
%TO.N,/SW*%
X22524000Y16832500D03*
%TO.P,U2,2,SW*%
X21874000Y16832500D03*
%TO.P,U2,3,VIN*%
%TO.N,/VIN*%
X21224000Y16832500D03*
%TO.P,U2,4,EN*%
X20574000Y16832500D03*
%TO.P,U2,5,SS*%
%TO.N,/BST_SS*%
X19924000Y16832500D03*
%TO.P,U2,6,SYNC*%
%TO.N,GND*%
X19274000Y16832500D03*
%TO.P,U2,7,AGND*%
X18624000Y16832500D03*
%TO.P,U2,8,COMP*%
%TO.N,/BST_COMP*%
X18624000Y11107500D03*
%TO.P,U2,9,FB*%
%TO.N,/FB*%
X19274000Y11107500D03*
%TO.P,U2,10,FREQ*%
%TO.N,/BST_FREQ*%
X19924000Y11107500D03*
%TO.P,U2,11,NC*%
%TO.N,unconnected-(U2-Pad11)*%
X20574000Y11107500D03*
%TO.P,U2,12,PGND*%
%TO.N,GND*%
X21224000Y11107500D03*
%TO.P,U2,13,PGND*%
X21874000Y11107500D03*
%TO.P,U2,14,PGND*%
X22524000Y11107500D03*
D35*
%TO.P,U2,15,PAD*%
X17974000Y15270000D03*
X17974000Y13970000D03*
X19274000Y13970000D03*
X23174000Y13970000D03*
X21874000Y12670000D03*
X20574000Y15270000D03*
D36*
X20574000Y13970000D03*
D35*
X21874000Y13970000D03*
X20574000Y12670000D03*
X23174000Y15270000D03*
X23174000Y12670000D03*
X21874000Y15270000D03*
X19274000Y12670000D03*
X17974000Y12670000D03*
X19274000Y15270000D03*
X20574000Y13970000D03*
%TD*%
D25*
%TO.P,R7,1*%
%TO.N,Net-(Q4-Pad2)*%
X38862000Y28993500D03*
%TO.P,R7,2*%
%TO.N,Net-(Q4-Pad1)*%
X38862000Y30188500D03*
%TD*%
D37*
%TO.P,L1,1,1*%
%TO.N,/VIN*%
X15771000Y24892000D03*
%TO.P,L1,2,2*%
%TO.N,/SW*%
X21821000Y24892000D03*
%TD*%
D21*
%TO.P,C7,1*%
%TO.N,/BST_VOUT*%
X30795000Y20015200D03*
%TO.P,C7,2*%
%TO.N,GND*%
X28895000Y20015200D03*
%TD*%
D15*
%TO.P,D2,1,K*%
%TO.N,Net-(D2-Pad1)*%
X52324000Y8891000D03*
%TO.P,D2,2,A*%
%TO.N,Net-(D1-Pad1)*%
X52324000Y12191000D03*
%TD*%
D29*
%TO.P,SW1,1,1*%
%TO.N,/VBATT*%
X2540000Y4059000D03*
D30*
%TO.P,SW1,2,2*%
%TO.N,Net-(J2-Pad1)*%
X2540000Y6599000D03*
%TD*%
D24*
%TO.P,Q3,1,G*%
%TO.N,/PWR_EN*%
X7444500Y20381000D03*
%TO.P,Q3,2,S*%
%TO.N,GND*%
X7444500Y18481000D03*
%TO.P,Q3,3,D*%
%TO.N,Net-(Q2-Pad1)*%
X9319500Y19431000D03*
%TD*%
%TO.P,Q4,1,G*%
%TO.N,Net-(Q4-Pad1)*%
X40845500Y30287000D03*
%TO.P,Q4,2,S*%
%TO.N,Net-(Q4-Pad2)*%
X40845500Y28387000D03*
%TO.P,Q4,3,D*%
%TO.N,/VLED*%
X42720500Y29337000D03*
%TD*%
D38*
%TO.N,/BST_SS*%
X19939000Y19304000D03*
X16891000Y15494000D03*
%TO.N,Net-(D2-Pad1)*%
X50292000Y10414000D03*
%TO.N,/BST_FREQ*%
X15367000Y13462000D03*
X19998500Y8763000D03*
%TO.N,Net-(C1-Pad1)*%
X31877000Y9017000D03*
%TO.N,Net-(Q2-Pad1)*%
X5334000Y20320000D03*
X7467600Y25857200D03*
%TO.N,Net-(R1-Pad2)*%
X34950400Y2590800D03*
X29337000Y8890000D03*
%TO.N,GND*%
X11684000Y19507200D03*
X21590000Y34290000D03*
X17780000Y33020000D03*
X47396400Y18542000D03*
X44450000Y16510000D03*
X7569200Y38252400D03*
X40640000Y24130000D03*
X33020000Y30480000D03*
X49530000Y24130000D03*
X38049200Y14122400D03*
X13970000Y34290000D03*
X29210000Y31750000D03*
X21590000Y31750000D03*
X7366000Y16967200D03*
X27432000Y21793200D03*
X13970000Y36830000D03*
X34696400Y11734800D03*
X13462000Y19507200D03*
X14237000Y11049000D03*
X53340000Y18542000D03*
X36830000Y31826200D03*
X21844000Y7620000D03*
X27432000Y20015200D03*
X14986000Y20777200D03*
X44450000Y36830000D03*
X34645600Y13512800D03*
X55473600Y38100000D03*
X29210000Y36830000D03*
X25400000Y35560000D03*
X9296400Y9194800D03*
X33020000Y35560000D03*
X33020000Y33096200D03*
X36830000Y34290000D03*
X51460400Y38100000D03*
X21590000Y36830000D03*
X44450000Y33020000D03*
X40640000Y35560000D03*
X21590000Y29210000D03*
X29210000Y34290000D03*
X27432000Y18237200D03*
X17780000Y35560000D03*
X25400000Y33020000D03*
X29210000Y29210000D03*
X13970000Y31750000D03*
X53340000Y20320000D03*
X53441600Y38100000D03*
X24130000Y5791200D03*
X3556000Y38252400D03*
X25400000Y30480000D03*
X17780000Y30302200D03*
X5435600Y38252400D03*
X36830000Y36830000D03*
X13970000Y29210000D03*
X11841000Y9779000D03*
X44450000Y25400000D03*
%TD*%
D39*
%TO.N,/LED_PWM_G*%
X30607000Y10806200D02*
X30607000Y14554200D01*
X30607000Y14554200D02*
X32049800Y15997000D01*
X32049800Y15997000D02*
X39829500Y15997000D01*
%TO.N,GND*%
X25936000Y5791200D02*
X24130000Y5791200D01*
%TO.N,/VBATT*%
X2540000Y4059000D02*
X2540000Y4548600D01*
D40*
X762000Y5837000D02*
X762000Y17883600D01*
X762000Y17883600D02*
X5384800Y22506400D01*
D39*
X2540000Y4548600D02*
X6983000Y8991600D01*
D40*
X2540000Y4059000D02*
X762000Y5837000D01*
D39*
%TO.N,/BST_VOUT*%
X35941000Y21082000D02*
X35687000Y20828000D01*
X28945400Y16372400D02*
X29768400Y16372400D01*
X29768400Y16372400D02*
X30795000Y17399000D01*
X26162000Y10414000D02*
X26162000Y13589000D01*
X20422500Y6350000D02*
X22098000Y6350000D01*
X26162000Y13589000D02*
X28945400Y16372400D01*
X22098000Y6350000D02*
X26162000Y10414000D01*
D41*
X49911000Y21082000D02*
X35941000Y21082000D01*
D39*
%TO.N,/BST_SS*%
X19939000Y18625500D02*
X19924000Y18610500D01*
X19939000Y19304000D02*
X19939000Y18625500D01*
X19924000Y18610500D02*
X19924000Y16832500D01*
X15875000Y15540500D02*
X16844500Y15540500D01*
X16844500Y15540500D02*
X16891000Y15494000D01*
D42*
%TO.N,/BST_COMP*%
X16553500Y11107500D02*
X16495000Y11049000D01*
X18624000Y11107500D02*
X16553500Y11107500D01*
X16495000Y9809000D02*
X16525000Y9779000D01*
X16495000Y11049000D02*
X16495000Y9809000D01*
D39*
%TO.N,Net-(D2-Pad1)*%
X51181000Y10414000D02*
X52324000Y9271000D01*
X50292000Y10414000D02*
X51181000Y10414000D01*
X52324000Y9271000D02*
X52324000Y8891000D01*
D41*
%TO.N,/VLED*%
X52883003Y29377005D02*
X42760494Y29377005D01*
D39*
X42760500Y29377000D02*
X42720500Y29337000D01*
D42*
%TO.N,/FB*%
X19274000Y7666500D02*
X19227500Y7620000D01*
X19227500Y6350000D02*
X19227500Y7620000D01*
X19274000Y10599500D02*
X19274000Y7666500D01*
D39*
%TO.N,/BST_FREQ*%
X19998500Y8763000D02*
X19998500Y11033000D01*
X14732000Y15367000D02*
X15367000Y14732000D01*
X15367000Y14732000D02*
X15367000Y13462000D01*
X19998500Y11033000D02*
X19924000Y11107500D01*
%TO.N,/VIN*%
X31131000Y2667000D02*
X16891000Y2667000D01*
X17216000Y20828000D02*
X15425000Y22619000D01*
X21224000Y16832500D02*
X21224000Y18303000D01*
X21224000Y18303000D02*
X21224000Y19670000D01*
X20574000Y17653000D02*
X21224000Y18303000D01*
X10541000Y9017000D02*
X10541000Y14379000D01*
X20574000Y16832500D02*
X20574000Y17653000D01*
X15425000Y22619000D02*
X13462000Y22619000D01*
X21224000Y19670000D02*
X20066000Y20828000D01*
X20066000Y20828000D02*
X17216000Y20828000D01*
X10541000Y14379000D02*
X16990000Y20828000D01*
X16891000Y2667000D02*
X10541000Y9017000D01*
X9319500Y23622000D02*
X10718800Y23622000D01*
%TO.N,/PWR_EN*%
X5080000Y17257000D02*
X2540000Y14717000D01*
X5080000Y18796000D02*
X6665000Y20381000D01*
X5080000Y18796000D02*
X5080000Y17257000D01*
X6665000Y20381000D02*
X7444500Y20381000D01*
%TO.N,Net-(C1-Pad1)*%
X31737000Y13538200D02*
X31737000Y10946200D01*
X30607000Y7696200D02*
X31877000Y8966200D01*
X31877000Y9017000D02*
X31877000Y10806200D01*
X31737000Y10946200D02*
X31877000Y10806200D01*
X31877000Y8966200D02*
X31877000Y9017000D01*
X30607000Y5856200D02*
X30607000Y7696200D01*
%TO.N,Net-(C2-Pad1)*%
X27191000Y5791200D02*
X29272000Y5791200D01*
X29272000Y5791200D02*
X29337000Y5856200D01*
%TO.N,Net-(D1-Pad1)*%
X52324000Y12191000D02*
X52324000Y12192000D01*
X51181000Y12192000D02*
X51180000Y12191000D01*
X36829000Y12191000D02*
X48387000Y12191000D01*
X31877000Y5856200D02*
X31877000Y7239000D01*
X52324000Y12192000D02*
X51181000Y12192000D01*
X49365500Y11212500D02*
X49365500Y3302000D01*
X48387000Y12191000D02*
X49365500Y11212500D01*
X48387000Y12191000D02*
X51180000Y12191000D01*
X31877000Y7239000D02*
X36829000Y12191000D01*
X51180000Y12191000D02*
X51816000Y12191000D01*
%TO.N,Net-(D1-Pad2)*%
X48387000Y8891000D02*
X44563000Y8891000D01*
X44563000Y8891000D02*
X41006000Y5334000D01*
%TO.N,Net-(J2-Pad1)*%
X1388400Y16105400D02*
X1388400Y9914600D01*
X2540000Y6599000D02*
X2540000Y8636000D01*
X2540000Y17257000D02*
X1388400Y16105400D01*
X3441500Y9537500D02*
X6096000Y9537500D01*
X1388400Y9914600D02*
X2540000Y8763000D01*
X6096000Y9537500D02*
X7432000Y10873500D01*
X2540000Y8636000D02*
X3441500Y9537500D01*
X2540000Y8763000D02*
X2540000Y6599000D01*
%TO.N,Net-(J2-Pad3)*%
X8382000Y13256500D02*
X7302500Y12177000D01*
X8382000Y12748500D02*
X8382000Y9370600D01*
X7302500Y12177000D02*
X2540000Y12177000D01*
X8382000Y9370600D02*
X8003000Y8991600D01*
%TO.N,Net-(Q2-Pad1)*%
X7867659Y21334000D02*
X9319500Y19882159D01*
X7444500Y24572000D02*
X7444500Y25834100D01*
X5334000Y21334000D02*
X7867659Y21334000D01*
X5334000Y20320000D02*
X5334000Y21435600D01*
X9319500Y19882159D02*
X9319500Y19431000D01*
X7444500Y25834100D02*
X7467600Y25857200D01*
D41*
%TO.N,Net-(Q4-Pad2)*%
X38592000Y26019000D02*
X40845500Y28272500D01*
D39*
X39468511Y28386989D02*
X40705989Y28386989D01*
D41*
X40845500Y28272500D02*
X40845500Y28387000D01*
D39*
X38862000Y28993500D02*
X39468511Y28386989D01*
D41*
X38592000Y25146000D02*
X38592000Y26019000D01*
X40705989Y28386989D02*
X40845511Y28386989D01*
D39*
%TO.N,Net-(R1-Pad2)*%
X33131000Y2667000D02*
X33131000Y5840200D01*
X33131000Y5840200D02*
X33147000Y5856200D01*
X34874200Y2667000D02*
X34950400Y2590800D01*
X29337000Y10806200D02*
X29337000Y8890000D01*
X33131000Y2667000D02*
X34874200Y2667000D01*
X35661600Y3302000D02*
X34950400Y2590800D01*
X48170500Y3302000D02*
X35661600Y3302000D01*
%TO.N,Net-(Q4-Pad1)*%
X54991000Y31877000D02*
X42435500Y31877000D01*
X42435500Y31877000D02*
X40845500Y30287000D01*
X38862000Y30188500D02*
X40747000Y30188500D01*
X55626000Y31242000D02*
X54991000Y31877000D01*
X41704500Y15047000D02*
X52004000Y15047000D01*
X40747000Y30188500D02*
X40845500Y30287000D01*
X55626000Y18669000D02*
X55626000Y31242000D01*
X52004000Y15047000D02*
X55626000Y18669000D01*
%TO.N,GND*%
X29070000Y18288000D02*
X27482800Y18288000D01*
X13462000Y21069000D02*
X13462000Y19507200D01*
D42*
X15535000Y11049000D02*
X14237000Y11049000D01*
D39*
X33767800Y10806200D02*
X34696400Y11734800D01*
X9296400Y9194800D02*
X9296400Y10837900D01*
X21874000Y11107500D02*
X21874000Y12670000D01*
X21224000Y11107500D02*
X21224000Y11419600D01*
X33287000Y13538200D02*
X34620200Y13538200D01*
X27482800Y21844000D02*
X27432000Y21793200D01*
X19274000Y16832500D02*
X19274000Y15270000D01*
X15813500Y16562000D02*
X15875000Y16500500D01*
X22524000Y11107500D02*
X22524000Y12020000D01*
X27482800Y18288000D02*
X27432000Y18237200D01*
X15036800Y20828000D02*
X14986000Y20777200D01*
X21224000Y11419600D02*
X21234400Y11430000D01*
X29070000Y21844000D02*
X27482800Y21844000D01*
X33287000Y10946200D02*
X33147000Y10806200D01*
X33147000Y10806200D02*
X33767800Y10806200D01*
X16207000Y16832500D02*
X15875000Y16500500D01*
X39829500Y14097000D02*
X38074600Y14097000D01*
X29070000Y20066000D02*
X27482800Y20066000D01*
X7444500Y18481000D02*
X7444500Y17045700D01*
X22524000Y12020000D02*
X20574000Y13970000D01*
X19274000Y16832500D02*
X18624000Y16832500D01*
D42*
X13023000Y9779000D02*
X11824000Y9779000D01*
D39*
X33287000Y13538200D02*
X33287000Y10946200D01*
X18624000Y16832500D02*
X16207000Y16832500D01*
X14732000Y16562000D02*
X15813500Y16562000D01*
X9296400Y10837900D02*
X9332000Y10873500D01*
X21234400Y11430000D02*
X21234400Y13309600D01*
X18624000Y15920000D02*
X19274000Y15270000D01*
X16030000Y20828000D02*
X15036800Y20828000D01*
X27482800Y20066000D02*
X27432000Y20015200D01*
X7444500Y17045700D02*
X7366000Y16967200D01*
X18624000Y16832500D02*
X18624000Y15920000D01*
D42*
X21844000Y7620000D02*
X20422500Y7620000D01*
D39*
X34620200Y13538200D02*
X34645600Y13512800D01*
X38074600Y14097000D02*
X38049200Y14122400D01*
X21234400Y13309600D02*
X20574000Y13970000D01*
X11684000Y21069000D02*
X11684000Y19507200D01*
D42*
%TO.N,Net-(C11-Pad1)*%
X15505000Y9779000D02*
X13983000Y9779000D01*
%TD*%
%TA.AperFunction,Conductor*%
%TO.N,GND*%
G36*
X54597103Y45463079D02*
G01*
X54610000Y45460514D01*
X54622169Y45462934D01*
X54634569Y45462934D01*
X54645624Y45463749D01*
X54843942Y45454007D01*
X54952322Y45448682D01*
X54964618Y45447472D01*
X55297520Y45398090D01*
X55309642Y45395680D01*
X55405572Y45371650D01*
X55636101Y45313905D01*
X55647933Y45310316D01*
X55964803Y45196939D01*
X55976227Y45192207D01*
X56280456Y45048317D01*
X56291361Y45042488D01*
X56580024Y44869470D01*
X56590305Y44862600D01*
X56860613Y44662126D01*
X56870171Y44654282D01*
X57119531Y44428275D01*
X57128275Y44419531D01*
X57354282Y44170171D01*
X57362126Y44160613D01*
X57562600Y43890305D01*
X57569470Y43880024D01*
X57742488Y43591361D01*
X57748317Y43580456D01*
X57892207Y43276227D01*
X57896939Y43264803D01*
X58010316Y42947933D01*
X58013905Y42936101D01*
X58095679Y42609645D01*
X58098091Y42597517D01*
X58147471Y42264623D01*
X58148683Y42252317D01*
X58163749Y41945624D01*
X58162934Y41934569D01*
X58162934Y41922169D01*
X58160514Y41910000D01*
X58163079Y41897106D01*
X58165500Y41872524D01*
X58165500Y3847476D01*
X58163079Y3822897D01*
X58160514Y3810000D01*
X58162935Y3797829D01*
X58162935Y3785418D01*
X58162908Y3785418D01*
X58163716Y3774392D01*
X58147964Y3460006D01*
X58146704Y3447458D01*
X58095213Y3107195D01*
X58092704Y3094838D01*
X58007466Y2761446D01*
X58003735Y2749400D01*
X57885598Y2426194D01*
X57880682Y2414581D01*
X57730821Y2104785D01*
X57724768Y2093723D01*
X57544706Y1800481D01*
X57537578Y1790078D01*
X57329098Y1516292D01*
X57320971Y1506660D01*
X57086157Y1255070D01*
X57077116Y1246307D01*
X56818335Y1019454D01*
X56808455Y1011631D01*
X56718473Y947444D01*
X56528295Y811783D01*
X56517675Y804983D01*
X56218959Y634147D01*
X56207713Y628442D01*
X55893406Y488316D01*
X55881646Y483764D01*
X55760656Y443769D01*
X55554906Y375756D01*
X55542764Y372406D01*
X55414704Y343886D01*
X55206860Y297598D01*
X55194430Y295476D01*
X54881976Y258115D01*
X54870814Y258162D01*
X54870815Y258148D01*
X54858434Y257293D01*
X54846124Y258870D01*
X54834147Y255616D01*
X54822318Y254799D01*
X54813638Y254500D01*
X4089115Y254500D01*
X4072555Y255593D01*
X4059569Y257315D01*
X4059568Y257315D01*
X4047265Y258946D01*
X4035274Y255745D01*
X4022889Y254944D01*
X4022887Y254970D01*
X4011940Y253452D01*
X3923018Y252159D01*
X3697023Y248873D01*
X3684437Y249320D01*
X3512925Y264011D01*
X3341404Y278704D01*
X3328943Y280402D01*
X3146339Y314658D01*
X2990541Y343886D01*
X2978294Y346824D01*
X2647931Y443769D01*
X2636040Y447915D01*
X2317008Y577353D01*
X2305605Y582656D01*
X2001058Y743311D01*
X1990253Y749721D01*
X1703265Y939975D01*
X1693155Y947431D01*
X1426598Y1165379D01*
X1417270Y1173819D01*
X1173819Y1417270D01*
X1165379Y1426598D01*
X947431Y1693155D01*
X939975Y1703265D01*
X749721Y1990253D01*
X743311Y2001058D01*
X582656Y2305605D01*
X577353Y2317008D01*
X447915Y2636040D01*
X443769Y2647931D01*
X346824Y2978294D01*
X343886Y2990541D01*
X308744Y3177865D01*
X280402Y3328943D01*
X278703Y3341413D01*
X268545Y3460006D01*
X259630Y3564071D01*
X249320Y3684437D01*
X248873Y3697023D01*
X253452Y4011939D01*
X254970Y4022887D01*
X254944Y4022889D01*
X255745Y4035274D01*
X258946Y4047265D01*
X255593Y4072555D01*
X254500Y4089115D01*
X254500Y5498506D01*
X274502Y5566627D01*
X328158Y5613120D01*
X398432Y5623224D01*
X466029Y5591031D01*
X496209Y5563133D01*
X499775Y5559703D01*
X1398595Y4660883D01*
X1432621Y4598571D01*
X1435500Y4571788D01*
X1435501Y3183934D01*
X1439995Y3161339D01*
X1444323Y3139581D01*
X1450266Y3109699D01*
X1506516Y3025516D01*
X1590699Y2969266D01*
X1664933Y2954500D01*
X2539858Y2954500D01*
X3415066Y2954501D01*
X3450818Y2961612D01*
X3477126Y2966844D01*
X3477128Y2966845D01*
X3489301Y2969266D01*
X3499621Y2976161D01*
X3499622Y2976162D01*
X3563168Y3018623D01*
X3573484Y3025516D01*
X3629734Y3109699D01*
X3644500Y3183933D01*
X3644499Y4934066D01*
X3635472Y4979453D01*
X3632155Y4996131D01*
X3632154Y4996133D01*
X3629734Y5008301D01*
X3623041Y5018318D01*
X3615480Y5088662D01*
X3650382Y5155381D01*
X5246263Y6751261D01*
X6875197Y8380195D01*
X6937509Y8414221D01*
X6964291Y8417100D01*
X7128141Y8417101D01*
X7148652Y8417101D01*
X7171144Y8420663D01*
X7230064Y8429994D01*
X7230066Y8429995D01*
X7239862Y8431546D01*
X7263777Y8443731D01*
X7311111Y8467849D01*
X7349796Y8487560D01*
X7403905Y8541669D01*
X7466217Y8575695D01*
X7537032Y8570630D01*
X7582095Y8541669D01*
X7636204Y8487560D01*
X7746138Y8431546D01*
X7755927Y8429996D01*
X7755929Y8429995D01*
X7773426Y8427224D01*
X7837347Y8417100D01*
X8002966Y8417100D01*
X8168652Y8417101D01*
X8191144Y8420663D01*
X8250064Y8429994D01*
X8250066Y8429995D01*
X8259862Y8431546D01*
X8283777Y8443731D01*
X8331111Y8467849D01*
X8369796Y8487560D01*
X8457040Y8574804D01*
X8513054Y8684738D01*
X8515373Y8699376D01*
X8522915Y8746997D01*
X8527500Y8775947D01*
X8527499Y8960307D01*
X8547501Y9028427D01*
X8564405Y9049404D01*
X8568965Y9053963D01*
X8597437Y9082435D01*
X8613129Y9095108D01*
X8616227Y9097927D01*
X8624974Y9103575D01*
X8644203Y9127967D01*
X8647784Y9131997D01*
X8647686Y9132080D01*
X8651039Y9136037D01*
X8654720Y9139718D01*
X8658134Y9144495D01*
X8665149Y9154311D01*
X8668712Y9159056D01*
X8691920Y9188495D01*
X8691921Y9188497D01*
X8698368Y9196675D01*
X8701214Y9204780D01*
X8706210Y9211771D01*
X8719934Y9257662D01*
X8721768Y9263307D01*
X8735021Y9301047D01*
X8735022Y9301050D01*
X8737648Y9308529D01*
X8738100Y9313748D01*
X8738100Y9316459D01*
X8738198Y9318736D01*
X8738333Y9319185D01*
X8738387Y9319183D01*
X8738402Y9319416D01*
X8740177Y9325352D01*
X8738197Y9375750D01*
X8738100Y9380696D01*
X8738100Y11742861D01*
X8758102Y11810982D01*
X8775005Y11831956D01*
X8863326Y11920277D01*
X8921498Y12034445D01*
X8936500Y12129166D01*
X8936500Y13367834D01*
X8921498Y13462555D01*
X8863326Y13576723D01*
X8772723Y13667326D01*
X8658555Y13725498D01*
X8563834Y13740500D01*
X8200166Y13740500D01*
X8105445Y13725498D01*
X7991277Y13667326D01*
X7900674Y13576723D01*
X7842502Y13462555D01*
X7827500Y13367834D01*
X7827500Y13257792D01*
X7807498Y13189671D01*
X7790595Y13168696D01*
X7191902Y12570004D01*
X7129590Y12535979D01*
X7102807Y12533100D01*
X3674331Y12533100D01*
X3606210Y12553102D01*
X3561325Y12603372D01*
X3552752Y12620758D01*
X3493800Y12740301D01*
X3488331Y12751392D01*
X3488328Y12751396D01*
X3485776Y12756572D01*
X3364320Y12919221D01*
X3259916Y13015731D01*
X3219503Y13053089D01*
X3215258Y13057013D01*
X3210375Y13060094D01*
X3210371Y13060097D01*
X3048464Y13162252D01*
X3043581Y13165333D01*
X2855039Y13240554D01*
X2849379Y13241680D01*
X2849375Y13241681D01*
X2661613Y13279029D01*
X2661610Y13279029D01*
X2655946Y13280156D01*
X2650171Y13280232D01*
X2650167Y13280232D01*
X2548793Y13281559D01*
X2452971Y13282813D01*
X2447274Y13281834D01*
X2447273Y13281834D01*
X2307358Y13257792D01*
X2252910Y13248436D01*
X2062463Y13178176D01*
X1942825Y13106999D01*
X1934923Y13102298D01*
X1866152Y13084658D01*
X1798762Y13106999D01*
X1754149Y13162227D01*
X1744500Y13210583D01*
X1744500Y13684341D01*
X1764502Y13752462D01*
X1818158Y13798955D01*
X1888432Y13809059D01*
X1940502Y13789106D01*
X1991815Y13754820D01*
X2010720Y13742188D01*
X2016023Y13739910D01*
X2016026Y13739908D01*
X2174492Y13671826D01*
X2197228Y13662058D01*
X2245784Y13651071D01*
X2389579Y13618533D01*
X2389584Y13618532D01*
X2395216Y13617258D01*
X2400987Y13617031D01*
X2400989Y13617031D01*
X2460756Y13614683D01*
X2598053Y13609288D01*
X2698499Y13623852D01*
X2793231Y13637587D01*
X2793236Y13637588D01*
X2798945Y13638416D01*
X2804409Y13640271D01*
X2804414Y13640272D01*
X2985693Y13701808D01*
X2985698Y13701810D01*
X2991165Y13703666D01*
X3168276Y13802853D01*
X3183661Y13815648D01*
X3319913Y13928969D01*
X3324345Y13932655D01*
X3390694Y14012430D01*
X3450453Y14084282D01*
X3450455Y14084285D01*
X3454147Y14088724D01*
X3520796Y14207735D01*
X3550510Y14260792D01*
X3550511Y14260794D01*
X3553334Y14265835D01*
X3555190Y14271302D01*
X3555192Y14271307D01*
X3616728Y14452586D01*
X3616729Y14452591D01*
X3618584Y14458055D01*
X3619412Y14463764D01*
X3619413Y14463769D01*
X3639978Y14605610D01*
X3647712Y14658947D01*
X3649232Y14717000D01*
X3634836Y14873671D01*
X3631187Y14913387D01*
X3631186Y14913390D01*
X3630658Y14919141D01*
X3575557Y15114513D01*
X3571091Y15123569D01*
X3558898Y15193510D01*
X3586453Y15258941D01*
X3594999Y15268398D01*
X5295433Y16968832D01*
X5311129Y16981509D01*
X5314225Y16984326D01*
X5322974Y16989975D01*
X5342207Y17014372D01*
X5345783Y17018396D01*
X5345685Y17018479D01*
X5349044Y17022443D01*
X5352719Y17026118D01*
X5363167Y17040737D01*
X5366674Y17045408D01*
X5396368Y17083075D01*
X5399214Y17091181D01*
X5404210Y17098171D01*
X5417937Y17144071D01*
X5419771Y17149715D01*
X5433021Y17187447D01*
X5433022Y17187450D01*
X5435648Y17194929D01*
X5436100Y17200148D01*
X5436100Y17202859D01*
X5436198Y17205135D01*
X5436333Y17205585D01*
X5436387Y17205583D01*
X5436402Y17205814D01*
X5438177Y17211751D01*
X5436197Y17262149D01*
X5436100Y17267095D01*
X5436100Y18596309D01*
X5456102Y18664430D01*
X5473005Y18685404D01*
X6600589Y19812988D01*
X6662901Y19847014D01*
X6725804Y19843867D01*
X6730445Y19841502D01*
X6825166Y19826500D01*
X8063834Y19826500D01*
X8158555Y19841502D01*
X8167389Y19846003D01*
X8176822Y19849068D01*
X8177742Y19846237D01*
X8231849Y19856398D01*
X8297634Y19829698D01*
X8338540Y19771670D01*
X8341280Y19707749D01*
X8342502Y19707555D01*
X8327500Y19612834D01*
X8327500Y19249166D01*
X8342502Y19154445D01*
X8400674Y19040277D01*
X8491277Y18949674D01*
X8605445Y18891502D01*
X8700166Y18876500D01*
X9938834Y18876500D01*
X10033555Y18891502D01*
X10147723Y18949674D01*
X10238326Y19040277D01*
X10296498Y19154445D01*
X10311500Y19249166D01*
X10311500Y19612834D01*
X10296498Y19707555D01*
X10238326Y19821723D01*
X10147723Y19912326D01*
X10033555Y19970498D01*
X9938834Y19985500D01*
X9744202Y19985500D01*
X9676081Y20005502D01*
X9630619Y20056957D01*
X9618303Y20082604D01*
X9614872Y20089749D01*
X9611501Y20093759D01*
X9609563Y20095697D01*
X9608048Y20097348D01*
X9607827Y20097758D01*
X9607869Y20097796D01*
X9607708Y20097979D01*
X9604765Y20103433D01*
X9567705Y20137691D01*
X9564140Y20141120D01*
X8155826Y21549435D01*
X8143154Y21565125D01*
X8140332Y21568226D01*
X8134684Y21576974D01*
X8110292Y21596203D01*
X8106262Y21599784D01*
X8106179Y21599686D01*
X8102222Y21603039D01*
X8098541Y21606720D01*
X8094307Y21609746D01*
X8083948Y21617149D01*
X8079203Y21620712D01*
X8049764Y21643920D01*
X8049762Y21643921D01*
X8041584Y21650368D01*
X8033479Y21653214D01*
X8026488Y21658210D01*
X7980597Y21671934D01*
X7974952Y21673768D01*
X7937212Y21687021D01*
X7937209Y21687022D01*
X7929730Y21689648D01*
X7924511Y21690100D01*
X7921800Y21690100D01*
X7919523Y21690198D01*
X7919074Y21690333D01*
X7919076Y21690387D01*
X7918843Y21690402D01*
X7912907Y21692177D01*
X7863044Y21690218D01*
X7862509Y21690197D01*
X7857563Y21690100D01*
X5900926Y21690100D01*
X5832805Y21710102D01*
X5811831Y21727005D01*
X5783931Y21754905D01*
X5749905Y21817217D01*
X5754970Y21888032D01*
X5783931Y21933095D01*
X5838040Y21987204D01*
X5856637Y22023702D01*
X5905385Y22075318D01*
X5968904Y22092500D01*
X7240000Y22092500D01*
X7243346Y22092860D01*
X7243351Y22092860D01*
X7291795Y22098068D01*
X7291801Y22098069D01*
X7295159Y22098430D01*
X7347501Y22109816D01*
X7352325Y22111140D01*
X7359144Y22113010D01*
X7392480Y22117500D01*
X8063834Y22117500D01*
X8158555Y22132502D01*
X8272723Y22190674D01*
X8363326Y22281277D01*
X8421498Y22395445D01*
X8436500Y22490166D01*
X8436500Y22853834D01*
X8421498Y22948555D01*
X8424435Y22949020D01*
X8422867Y23004069D01*
X8459535Y23064864D01*
X8523250Y23096183D01*
X8586794Y23088887D01*
X8587178Y23090068D01*
X8593012Y23088173D01*
X8593783Y23088084D01*
X8594937Y23087547D01*
X8596611Y23087003D01*
X8605445Y23082502D01*
X8700166Y23067500D01*
X9524558Y23067500D01*
X9592679Y23047498D01*
X9639172Y22993842D01*
X9649836Y22954969D01*
X9652430Y22930841D01*
X9663816Y22878499D01*
X9671166Y22851709D01*
X9721269Y22763722D01*
X9767762Y22710066D01*
X9801051Y22677944D01*
X9890770Y22631013D01*
X9896706Y22629270D01*
X9954568Y22612280D01*
X9954572Y22612279D01*
X9958891Y22611011D01*
X9963339Y22610371D01*
X9963346Y22610370D01*
X10027552Y22601139D01*
X10027559Y22601139D01*
X10032000Y22600500D01*
X10828501Y22600500D01*
X10896622Y22580498D01*
X10943115Y22526842D01*
X10954501Y22474500D01*
X10954501Y22348612D01*
X10954870Y22345218D01*
X10954870Y22345212D01*
X10955034Y22343709D01*
X10960870Y22289976D01*
X11009083Y22161365D01*
X11014463Y22154186D01*
X11014465Y22154183D01*
X11067683Y22083176D01*
X11091456Y22051456D01*
X11098633Y22046077D01*
X11194183Y21974465D01*
X11194186Y21974463D01*
X11201365Y21969083D01*
X11209769Y21965933D01*
X11209770Y21965932D01*
X11322581Y21923642D01*
X11322582Y21923642D01*
X11329976Y21920870D01*
X11337826Y21920017D01*
X11337827Y21920017D01*
X11385205Y21914870D01*
X11388611Y21914500D01*
X11683956Y21914500D01*
X11979388Y21914501D01*
X11982782Y21914870D01*
X11982788Y21914870D01*
X12030166Y21920016D01*
X12030170Y21920017D01*
X12038024Y21920870D01*
X12137308Y21958089D01*
X12158230Y21965932D01*
X12158231Y21965933D01*
X12166635Y21969083D01*
X12173814Y21974463D01*
X12173817Y21974465D01*
X12269367Y22046077D01*
X12276544Y22051456D01*
X12300317Y22083176D01*
X12353535Y22154183D01*
X12353537Y22154186D01*
X12358917Y22161365D01*
X12369904Y22190674D01*
X12404358Y22282581D01*
X12404358Y22282582D01*
X12407130Y22289976D01*
X12412968Y22343709D01*
X12413131Y22345214D01*
X12413131Y22345215D01*
X12413500Y22348611D01*
X12413500Y22474500D01*
X12433502Y22542621D01*
X12487158Y22589114D01*
X12539500Y22600500D01*
X12606501Y22600500D01*
X12674622Y22580498D01*
X12721115Y22526842D01*
X12732501Y22474500D01*
X12732501Y22348612D01*
X12732870Y22345218D01*
X12732870Y22345212D01*
X12733034Y22343709D01*
X12738870Y22289976D01*
X12787083Y22161365D01*
X12792463Y22154186D01*
X12792465Y22154183D01*
X12845683Y22083176D01*
X12869456Y22051456D01*
X12876633Y22046077D01*
X12972183Y21974465D01*
X12972186Y21974463D01*
X12979365Y21969083D01*
X12987769Y21965933D01*
X12987770Y21965932D01*
X13100581Y21923642D01*
X13100582Y21923642D01*
X13107976Y21920870D01*
X13115826Y21920017D01*
X13115827Y21920017D01*
X13163205Y21914870D01*
X13166611Y21914500D01*
X13461956Y21914500D01*
X13757388Y21914501D01*
X13760782Y21914870D01*
X13760788Y21914870D01*
X13808166Y21920016D01*
X13808170Y21920017D01*
X13816024Y21920870D01*
X13915308Y21958089D01*
X13936230Y21965932D01*
X13936231Y21965933D01*
X13944635Y21969083D01*
X13951814Y21974463D01*
X13951817Y21974465D01*
X14047367Y22046077D01*
X14054544Y22051456D01*
X14078317Y22083176D01*
X14131535Y22154183D01*
X14131537Y22154186D01*
X14136917Y22161365D01*
X14144326Y22181128D01*
X14186967Y22237893D01*
X14253528Y22262594D01*
X14262308Y22262900D01*
X15225309Y22262900D01*
X15293430Y22242898D01*
X15314404Y22225995D01*
X16418862Y21121537D01*
X16452888Y21059225D01*
X16454940Y21029045D01*
X16455500Y21029045D01*
X16455501Y20920498D01*
X16455501Y20849293D01*
X16435499Y20781172D01*
X16418596Y20760197D01*
X13371786Y17713388D01*
X10325565Y14667167D01*
X10309875Y14654495D01*
X10306774Y14651673D01*
X10298026Y14646025D01*
X10291579Y14637847D01*
X10278797Y14621633D01*
X10275216Y14617603D01*
X10275314Y14617520D01*
X10271961Y14613563D01*
X10268280Y14609882D01*
X10265256Y14605650D01*
X10265254Y14605648D01*
X10257851Y14595289D01*
X10254288Y14590544D01*
X10231080Y14561105D01*
X10231079Y14561103D01*
X10224632Y14552925D01*
X10221786Y14544820D01*
X10216790Y14537829D01*
X10213806Y14527850D01*
X10203066Y14491938D01*
X10201232Y14486293D01*
X10187979Y14448553D01*
X10185352Y14441071D01*
X10184900Y14435852D01*
X10184900Y14433141D01*
X10184802Y14430864D01*
X10184667Y14430415D01*
X10184613Y14430417D01*
X10184598Y14430184D01*
X10182823Y14424248D01*
X10184803Y14373850D01*
X10184900Y14368904D01*
X10184900Y9068428D01*
X10182766Y9048379D01*
X10182568Y9044189D01*
X10180376Y9034007D01*
X10181600Y9023666D01*
X10184027Y9003160D01*
X10184344Y8997785D01*
X10184472Y8997796D01*
X10184900Y8992618D01*
X10184900Y8987416D01*
X10185754Y8982286D01*
X10187839Y8969757D01*
X10188674Y8963885D01*
X10193084Y8926626D01*
X10193086Y8926619D01*
X10194310Y8916278D01*
X10198030Y8908532D01*
X10199440Y8900058D01*
X10217576Y8866447D01*
X10222192Y8857891D01*
X10224885Y8852604D01*
X10242195Y8816558D01*
X10242197Y8816555D01*
X10245628Y8809410D01*
X10248999Y8805400D01*
X10250937Y8803462D01*
X10252452Y8801811D01*
X10252673Y8801401D01*
X10252631Y8801363D01*
X10252792Y8801180D01*
X10255735Y8795726D01*
X10263382Y8788658D01*
X10263382Y8788657D01*
X10292795Y8761468D01*
X10296361Y8758038D01*
X16602833Y2451565D01*
X16615505Y2435875D01*
X16618327Y2432774D01*
X16623975Y2424026D01*
X16632153Y2417579D01*
X16648367Y2404797D01*
X16652397Y2401216D01*
X16652480Y2401314D01*
X16656437Y2397961D01*
X16660118Y2394280D01*
X16664350Y2391256D01*
X16664352Y2391254D01*
X16674711Y2383851D01*
X16679456Y2380288D01*
X16708895Y2357080D01*
X16708897Y2357079D01*
X16717075Y2350632D01*
X16725180Y2347786D01*
X16732171Y2342790D01*
X16767462Y2332236D01*
X16778071Y2329063D01*
X16783715Y2327229D01*
X16821447Y2313979D01*
X16821450Y2313978D01*
X16828929Y2311352D01*
X16834148Y2310900D01*
X16836859Y2310900D01*
X16839135Y2310802D01*
X16839585Y2310667D01*
X16839583Y2310613D01*
X16839814Y2310598D01*
X16845751Y2308823D01*
X16896149Y2310803D01*
X16901095Y2310900D01*
X30150500Y2310900D01*
X30218621Y2290898D01*
X30265114Y2237242D01*
X30276500Y2184900D01*
X30276500Y2169244D01*
X30283202Y2107552D01*
X30333929Y1972236D01*
X30339309Y1965057D01*
X30339311Y1965054D01*
X30361757Y1935105D01*
X30420596Y1856596D01*
X30427776Y1851215D01*
X30529054Y1775311D01*
X30529057Y1775309D01*
X30536236Y1769929D01*
X30625954Y1736296D01*
X30664157Y1721974D01*
X30664159Y1721974D01*
X30671552Y1719202D01*
X30679402Y1718349D01*
X30679403Y1718349D01*
X30729847Y1712869D01*
X30733244Y1712500D01*
X31528756Y1712500D01*
X31532153Y1712869D01*
X31582597Y1718349D01*
X31582598Y1718349D01*
X31590448Y1719202D01*
X31597841Y1721974D01*
X31597843Y1721974D01*
X31636046Y1736296D01*
X31725764Y1769929D01*
X31732943Y1775309D01*
X31732946Y1775311D01*
X31834224Y1851215D01*
X31841404Y1856596D01*
X31900243Y1935105D01*
X31922689Y1965054D01*
X31922691Y1965057D01*
X31928071Y1972236D01*
X31978798Y2107552D01*
X31985500Y2169244D01*
X31985500Y3164756D01*
X31978798Y3226448D01*
X31928071Y3361764D01*
X31922691Y3368943D01*
X31922689Y3368946D01*
X31846785Y3470224D01*
X31841404Y3477404D01*
X31811901Y3499515D01*
X31732946Y3558689D01*
X31732943Y3558691D01*
X31725764Y3564071D01*
X31597848Y3612024D01*
X31597843Y3612026D01*
X31597841Y3612026D01*
X31590448Y3614798D01*
X31582598Y3615651D01*
X31582597Y3615651D01*
X31532153Y3621131D01*
X31532152Y3621131D01*
X31528756Y3621500D01*
X30733244Y3621500D01*
X30729848Y3621131D01*
X30729847Y3621131D01*
X30679403Y3615651D01*
X30679402Y3615651D01*
X30671552Y3614798D01*
X30664159Y3612026D01*
X30664157Y3612026D01*
X30664152Y3612024D01*
X30536236Y3564071D01*
X30529057Y3558691D01*
X30529054Y3558689D01*
X30450099Y3499515D01*
X30420596Y3477404D01*
X30415215Y3470224D01*
X30339311Y3368946D01*
X30339309Y3368943D01*
X30333929Y3361764D01*
X30283202Y3226448D01*
X30276500Y3164756D01*
X30276500Y3149100D01*
X30256498Y3080979D01*
X30202842Y3034486D01*
X30150500Y3023100D01*
X17090691Y3023100D01*
X17022570Y3043102D01*
X17001596Y3060005D01*
X10934005Y9127597D01*
X10899979Y9189909D01*
X10897100Y9216692D01*
X10897100Y9980045D01*
X13448500Y9980045D01*
X13448501Y9577956D01*
X13451589Y9558457D01*
X13461538Y9495640D01*
X13463132Y9485573D01*
X13467635Y9476736D01*
X13467635Y9476735D01*
X13472940Y9466323D01*
X13519865Y9374229D01*
X13608229Y9285865D01*
X13719573Y9229132D01*
X13729363Y9227581D01*
X13729364Y9227581D01*
X13755101Y9223505D01*
X13811955Y9214500D01*
X13982965Y9214500D01*
X14154044Y9214501D01*
X14199816Y9221750D01*
X14236629Y9227580D01*
X14236631Y9227581D01*
X14246427Y9229132D01*
X14357771Y9285865D01*
X14434501Y9362595D01*
X14496813Y9396621D01*
X14523596Y9399500D01*
X14961581Y9399500D01*
X15029702Y9379498D01*
X15049527Y9360771D01*
X15050960Y9362204D01*
X15138204Y9274960D01*
X15248138Y9218946D01*
X15257927Y9217396D01*
X15257929Y9217395D01*
X15276209Y9214500D01*
X15339347Y9204500D01*
X15504966Y9204500D01*
X15670652Y9204501D01*
X15687158Y9207115D01*
X15752064Y9217394D01*
X15752066Y9217395D01*
X15761862Y9218946D01*
X15778808Y9227580D01*
X15848786Y9263236D01*
X15871796Y9274960D01*
X15925905Y9329069D01*
X15988217Y9363095D01*
X16059032Y9358030D01*
X16104095Y9329069D01*
X16158204Y9274960D01*
X16268138Y9218946D01*
X16277927Y9217396D01*
X16277929Y9217395D01*
X16296209Y9214500D01*
X16359347Y9204500D01*
X16524966Y9204500D01*
X16690652Y9204501D01*
X16707158Y9207115D01*
X16772064Y9217394D01*
X16772066Y9217395D01*
X16781862Y9218946D01*
X16798808Y9227580D01*
X16868786Y9263236D01*
X16891796Y9274960D01*
X16979040Y9362204D01*
X17035054Y9472138D01*
X17049500Y9563347D01*
X17049499Y9994652D01*
X17042650Y10037898D01*
X17036606Y10076064D01*
X17036605Y10076066D01*
X17035054Y10085862D01*
X17023387Y10108761D01*
X16983540Y10186964D01*
X16979040Y10195796D01*
X16911405Y10263431D01*
X16877379Y10325743D01*
X16874500Y10352526D01*
X16874500Y10508404D01*
X16894502Y10576525D01*
X16911405Y10597499D01*
X16958135Y10644229D01*
X16965766Y10659205D01*
X17014515Y10710819D01*
X17078032Y10728000D01*
X18043500Y10728000D01*
X18111621Y10707998D01*
X18158114Y10654342D01*
X18169500Y10602000D01*
X18169500Y10386398D01*
X18170170Y10381848D01*
X18170170Y10381845D01*
X18178331Y10326408D01*
X18179757Y10316722D01*
X18184073Y10307932D01*
X18226926Y10220651D01*
X18231770Y10210784D01*
X18315294Y10127405D01*
X18421323Y10075577D01*
X18451645Y10071153D01*
X18485872Y10066160D01*
X18485876Y10066160D01*
X18490398Y10065500D01*
X18757602Y10065500D01*
X18759883Y10065836D01*
X18828698Y10050988D01*
X18878985Y10000871D01*
X18894500Y9940298D01*
X18894500Y8253377D01*
X18874498Y8185256D01*
X18825702Y8141110D01*
X18792161Y8124020D01*
X18792159Y8124019D01*
X18783326Y8119518D01*
X18690482Y8026674D01*
X18630873Y7909684D01*
X18629322Y7899895D01*
X18629322Y7899893D01*
X18626414Y7881529D01*
X18615500Y7812623D01*
X18615501Y7427378D01*
X18617713Y7413410D01*
X18628343Y7346293D01*
X18630873Y7330316D01*
X18690482Y7213326D01*
X18783326Y7120482D01*
X18792161Y7115980D01*
X18796062Y7113146D01*
X18839416Y7056923D01*
X18848000Y7011211D01*
X18848000Y6958789D01*
X18827998Y6890668D01*
X18796062Y6856854D01*
X18792161Y6854020D01*
X18783326Y6849518D01*
X18690482Y6756674D01*
X18630873Y6639684D01*
X18615500Y6542623D01*
X18615501Y6157378D01*
X18630873Y6060316D01*
X18635376Y6051479D01*
X18635376Y6051478D01*
X18664997Y5993344D01*
X18690482Y5943326D01*
X18783326Y5850482D01*
X18900316Y5790873D01*
X18910105Y5789322D01*
X18910107Y5789322D01*
X18937880Y5784923D01*
X18997377Y5775500D01*
X19227453Y5775500D01*
X19457622Y5775501D01*
X19501329Y5782423D01*
X19544886Y5789321D01*
X19544888Y5789322D01*
X19554684Y5790873D01*
X19583015Y5805308D01*
X19662842Y5845982D01*
X19671674Y5850482D01*
X19735905Y5914713D01*
X19798217Y5948739D01*
X19869032Y5943674D01*
X19914095Y5914713D01*
X19978326Y5850482D01*
X20095316Y5790873D01*
X20105105Y5789322D01*
X20105107Y5789322D01*
X20132880Y5784923D01*
X20192377Y5775500D01*
X20422453Y5775500D01*
X20652622Y5775501D01*
X20696329Y5782423D01*
X20739886Y5789321D01*
X20739888Y5789322D01*
X20749684Y5790873D01*
X20778015Y5805308D01*
X20857842Y5845982D01*
X20866674Y5850482D01*
X20959518Y5943326D01*
X20960256Y5944775D01*
X21012836Y5985317D01*
X21058545Y5993900D01*
X22046572Y5993900D01*
X22066621Y5991766D01*
X22070811Y5991568D01*
X22080993Y5989376D01*
X22111840Y5993027D01*
X22117215Y5993344D01*
X22117204Y5993472D01*
X22122382Y5993900D01*
X22127584Y5993900D01*
X22138919Y5995787D01*
X22145243Y5996839D01*
X22151115Y5997674D01*
X22188374Y6002084D01*
X22188381Y6002086D01*
X22198722Y6003310D01*
X22206468Y6007030D01*
X22214942Y6008440D01*
X22257109Y6031192D01*
X22262396Y6033885D01*
X22298442Y6051195D01*
X22298445Y6051197D01*
X22305590Y6054628D01*
X22309600Y6057999D01*
X22311538Y6059937D01*
X22313189Y6061452D01*
X22313599Y6061673D01*
X22313637Y6061631D01*
X22313819Y6061792D01*
X22319274Y6064735D01*
X22339476Y6086589D01*
X26486500Y6086589D01*
X26486501Y5495812D01*
X26492870Y5437176D01*
X26541083Y5308565D01*
X26546463Y5301386D01*
X26546465Y5301383D01*
X26556733Y5287683D01*
X26623456Y5198656D01*
X26630633Y5193277D01*
X26726183Y5121665D01*
X26726186Y5121663D01*
X26733365Y5116283D01*
X26741769Y5113133D01*
X26741770Y5113132D01*
X26854581Y5070842D01*
X26854582Y5070842D01*
X26861976Y5068070D01*
X26869826Y5067217D01*
X26869827Y5067217D01*
X26917205Y5062070D01*
X26920611Y5061700D01*
X27190920Y5061700D01*
X27461388Y5061701D01*
X27464782Y5062070D01*
X27464788Y5062070D01*
X27512166Y5067216D01*
X27512170Y5067217D01*
X27520024Y5068070D01*
X27612665Y5102799D01*
X27640230Y5113132D01*
X27640231Y5113133D01*
X27648635Y5116283D01*
X27655814Y5121663D01*
X27655817Y5121665D01*
X27751367Y5193277D01*
X27758544Y5198656D01*
X27825267Y5287683D01*
X27835535Y5301383D01*
X27835537Y5301386D01*
X27840917Y5308565D01*
X27853275Y5341529D01*
X27857698Y5353329D01*
X27900339Y5410094D01*
X27966900Y5434794D01*
X27975680Y5435100D01*
X28656500Y5435100D01*
X28724621Y5415098D01*
X28771114Y5361442D01*
X28782500Y5309100D01*
X28782500Y4999366D01*
X28797502Y4904645D01*
X28855674Y4790477D01*
X28946277Y4699874D01*
X29060445Y4641702D01*
X29155166Y4626700D01*
X29518834Y4626700D01*
X29613555Y4641702D01*
X29727723Y4699874D01*
X29818326Y4790477D01*
X29859733Y4871742D01*
X29908482Y4923357D01*
X29977397Y4940423D01*
X30044598Y4917522D01*
X30084267Y4871742D01*
X30125674Y4790477D01*
X30216277Y4699874D01*
X30330445Y4641702D01*
X30425166Y4626700D01*
X30788834Y4626700D01*
X30883555Y4641702D01*
X30997723Y4699874D01*
X31088326Y4790477D01*
X31129733Y4871742D01*
X31178482Y4923357D01*
X31247397Y4940423D01*
X31314598Y4917522D01*
X31354267Y4871742D01*
X31395674Y4790477D01*
X31486277Y4699874D01*
X31600445Y4641702D01*
X31695166Y4626700D01*
X32058834Y4626700D01*
X32153555Y4641702D01*
X32267723Y4699874D01*
X32358326Y4790477D01*
X32399733Y4871742D01*
X32448482Y4923357D01*
X32517397Y4940423D01*
X32584598Y4917522D01*
X32624267Y4871742D01*
X32665674Y4790477D01*
X32737995Y4718156D01*
X32772021Y4655844D01*
X32774900Y4629061D01*
X32774900Y3737911D01*
X32754898Y3669790D01*
X32701242Y3623297D01*
X32678795Y3615585D01*
X32671552Y3614798D01*
X32536236Y3564071D01*
X32529057Y3558691D01*
X32529054Y3558689D01*
X32450099Y3499515D01*
X32420596Y3477404D01*
X32415215Y3470224D01*
X32339311Y3368946D01*
X32339309Y3368943D01*
X32333929Y3361764D01*
X32283202Y3226448D01*
X32276500Y3164756D01*
X32276500Y2169244D01*
X32283202Y2107552D01*
X32333929Y1972236D01*
X32339309Y1965057D01*
X32339311Y1965054D01*
X32361757Y1935105D01*
X32420596Y1856596D01*
X32427776Y1851215D01*
X32529054Y1775311D01*
X32529057Y1775309D01*
X32536236Y1769929D01*
X32625954Y1736296D01*
X32664157Y1721974D01*
X32664159Y1721974D01*
X32671552Y1719202D01*
X32679402Y1718349D01*
X32679403Y1718349D01*
X32729847Y1712869D01*
X32733244Y1712500D01*
X33528756Y1712500D01*
X33532153Y1712869D01*
X33582597Y1718349D01*
X33582598Y1718349D01*
X33590448Y1719202D01*
X33597841Y1721974D01*
X33597843Y1721974D01*
X33636046Y1736296D01*
X33725764Y1769929D01*
X33732943Y1775309D01*
X33732946Y1775311D01*
X33834224Y1851215D01*
X33841404Y1856596D01*
X33900243Y1935105D01*
X33922689Y1965054D01*
X33922691Y1965057D01*
X33928071Y1972236D01*
X33978798Y2107552D01*
X33985500Y2169244D01*
X33985500Y2184900D01*
X34005502Y2253021D01*
X34059158Y2299514D01*
X34111500Y2310900D01*
X34282767Y2310900D01*
X34350888Y2290898D01*
X34387349Y2255176D01*
X34434573Y2184900D01*
X34451308Y2159995D01*
X34456927Y2154882D01*
X34456928Y2154881D01*
X34518220Y2099110D01*
X34568476Y2053381D01*
X34707693Y1977792D01*
X34860922Y1937593D01*
X34944877Y1936274D01*
X35011719Y1935224D01*
X35011722Y1935224D01*
X35019316Y1935105D01*
X35173732Y1970471D01*
X35244142Y2005883D01*
X35308472Y2038237D01*
X35308475Y2038239D01*
X35315255Y2041649D01*
X35321026Y2046578D01*
X35321029Y2046580D01*
X35429936Y2139596D01*
X35429936Y2139597D01*
X35435714Y2144531D01*
X35528155Y2273176D01*
X35587242Y2420159D01*
X35609562Y2576993D01*
X35609707Y2590800D01*
X35600265Y2668825D01*
X35611938Y2738854D01*
X35636257Y2773056D01*
X35772196Y2908995D01*
X35834508Y2943021D01*
X35861291Y2945900D01*
X47534455Y2945900D01*
X47602576Y2925898D01*
X47632123Y2897993D01*
X47633482Y2895326D01*
X47726326Y2802482D01*
X47843316Y2742873D01*
X47853105Y2741322D01*
X47853107Y2741322D01*
X47880880Y2736923D01*
X47940377Y2727500D01*
X48170453Y2727500D01*
X48400622Y2727501D01*
X48424988Y2731360D01*
X48487886Y2741321D01*
X48487888Y2741322D01*
X48497684Y2742873D01*
X48522129Y2755328D01*
X48605842Y2797982D01*
X48614674Y2802482D01*
X48678905Y2866713D01*
X48741217Y2900739D01*
X48812032Y2895674D01*
X48857095Y2866713D01*
X48921326Y2802482D01*
X49038316Y2742873D01*
X49048105Y2741322D01*
X49048107Y2741322D01*
X49075880Y2736923D01*
X49135377Y2727500D01*
X49365453Y2727500D01*
X49595622Y2727501D01*
X49619988Y2731360D01*
X49682886Y2741321D01*
X49682888Y2741322D01*
X49692684Y2742873D01*
X49717129Y2755328D01*
X49800842Y2797982D01*
X49809674Y2802482D01*
X49902518Y2895326D01*
X49962127Y3012316D01*
X49965639Y3034486D01*
X49975916Y3099378D01*
X49977500Y3109377D01*
X49977499Y3494622D01*
X49962127Y3591684D01*
X49946020Y3623297D01*
X49907018Y3699842D01*
X49902518Y3708674D01*
X49809674Y3801518D01*
X49800841Y3806019D01*
X49800839Y3806020D01*
X49790398Y3811340D01*
X49738782Y3860088D01*
X49721600Y3923607D01*
X49721600Y9767523D01*
X49741602Y9835644D01*
X49795258Y9882137D01*
X49865532Y9892241D01*
X49909117Y9874815D01*
X49910076Y9876581D01*
X50049293Y9800992D01*
X50202522Y9760793D01*
X50286477Y9759474D01*
X50353319Y9758424D01*
X50353322Y9758424D01*
X50360916Y9758305D01*
X50515332Y9793671D01*
X50619004Y9845812D01*
X50650072Y9861437D01*
X50650075Y9861439D01*
X50656855Y9864849D01*
X50662626Y9869778D01*
X50662629Y9869780D01*
X50771542Y9962801D01*
X50771543Y9962802D01*
X50777314Y9967731D01*
X50781745Y9973897D01*
X50804402Y10005427D01*
X50860397Y10049074D01*
X50906724Y10057900D01*
X50981309Y10057900D01*
X51049430Y10037898D01*
X51070404Y10020995D01*
X51477971Y9613428D01*
X51511997Y9551116D01*
X51506932Y9480301D01*
X51493642Y9454333D01*
X51484266Y9440301D01*
X51469500Y9366067D01*
X51469501Y8415934D01*
X51476609Y8380195D01*
X51480343Y8361424D01*
X51484266Y8341699D01*
X51491161Y8331380D01*
X51491162Y8331378D01*
X51527502Y8276992D01*
X51540516Y8257516D01*
X51624699Y8201266D01*
X51698933Y8186500D01*
X52323898Y8186500D01*
X52949066Y8186501D01*
X52984818Y8193612D01*
X53011126Y8198844D01*
X53011128Y8198845D01*
X53023301Y8201266D01*
X53033621Y8208161D01*
X53033622Y8208162D01*
X53097168Y8250623D01*
X53107484Y8257516D01*
X53163734Y8341699D01*
X53178500Y8415933D01*
X53178499Y9366066D01*
X53163734Y9440301D01*
X53155244Y9453008D01*
X53114377Y9514168D01*
X53107484Y9524484D01*
X53023301Y9580734D01*
X52949067Y9595500D01*
X52555291Y9595500D01*
X52487170Y9615502D01*
X52466196Y9632405D01*
X51975771Y10122831D01*
X51469167Y10629435D01*
X51456495Y10645125D01*
X51453673Y10648226D01*
X51448025Y10656974D01*
X51423633Y10676203D01*
X51419603Y10679784D01*
X51419520Y10679686D01*
X51415563Y10683039D01*
X51411882Y10686720D01*
X51407648Y10689746D01*
X51397289Y10697149D01*
X51392544Y10700712D01*
X51363105Y10723920D01*
X51363103Y10723921D01*
X51354925Y10730368D01*
X51346820Y10733214D01*
X51339829Y10738210D01*
X51293938Y10751934D01*
X51288293Y10753768D01*
X51250553Y10767021D01*
X51250550Y10767022D01*
X51243071Y10769648D01*
X51237852Y10770100D01*
X51235141Y10770100D01*
X51232864Y10770198D01*
X51232415Y10770333D01*
X51232417Y10770387D01*
X51232184Y10770402D01*
X51226248Y10772177D01*
X51176385Y10770218D01*
X51175850Y10770197D01*
X51170904Y10770100D01*
X50907764Y10770100D01*
X50839643Y10790102D01*
X50803924Y10824733D01*
X50790855Y10843749D01*
X50790854Y10843751D01*
X50786553Y10850008D01*
X50668275Y10955389D01*
X50660889Y10959300D01*
X50534988Y11025961D01*
X50534989Y11025961D01*
X50528274Y11029516D01*
X50374633Y11068108D01*
X50367034Y11068148D01*
X50367033Y11068148D01*
X50301181Y11068493D01*
X50216221Y11068938D01*
X50208841Y11067166D01*
X50208839Y11067166D01*
X50069563Y11033729D01*
X50069560Y11033728D01*
X50062184Y11031957D01*
X50055439Y11028476D01*
X50055440Y11028476D01*
X49928163Y10962784D01*
X49928159Y10962782D01*
X49921414Y10959300D01*
X49917466Y10955856D01*
X49850839Y10934418D01*
X49782226Y10952662D01*
X49734370Y11005105D01*
X49721600Y11060376D01*
X49721600Y11161072D01*
X49723734Y11181121D01*
X49723932Y11185311D01*
X49726124Y11195493D01*
X49722473Y11226340D01*
X49722156Y11231715D01*
X49722028Y11231704D01*
X49721600Y11236882D01*
X49721600Y11242084D01*
X49718661Y11259743D01*
X49717826Y11265615D01*
X49713416Y11302874D01*
X49713414Y11302881D01*
X49712190Y11313222D01*
X49708470Y11320968D01*
X49707060Y11329442D01*
X49684308Y11371609D01*
X49681615Y11376896D01*
X49664305Y11412942D01*
X49664303Y11412945D01*
X49660872Y11420090D01*
X49657501Y11424100D01*
X49655563Y11426038D01*
X49654048Y11427689D01*
X49653827Y11428099D01*
X49653869Y11428137D01*
X49653708Y11428320D01*
X49650765Y11433774D01*
X49613705Y11468032D01*
X49610140Y11471461D01*
X49461796Y11619805D01*
X49427770Y11682117D01*
X49432835Y11752932D01*
X49475382Y11809768D01*
X49541902Y11834579D01*
X49550891Y11834900D01*
X51128572Y11834900D01*
X51148621Y11832766D01*
X51152811Y11832568D01*
X51162993Y11830376D01*
X51193840Y11834027D01*
X51208650Y11834900D01*
X51344194Y11834900D01*
X51412315Y11814898D01*
X51458808Y11761242D01*
X51469501Y11721569D01*
X51469501Y11715934D01*
X51472328Y11701723D01*
X51480023Y11663034D01*
X51484266Y11641699D01*
X51491161Y11631380D01*
X51491162Y11631378D01*
X51515894Y11594365D01*
X51540516Y11557516D01*
X51624699Y11501266D01*
X51698933Y11486500D01*
X52323898Y11486500D01*
X52949066Y11486501D01*
X52984818Y11493612D01*
X53011126Y11498844D01*
X53011128Y11498845D01*
X53023301Y11501266D01*
X53033621Y11508161D01*
X53033622Y11508162D01*
X53097168Y11550623D01*
X53107484Y11557516D01*
X53163734Y11641699D01*
X53178500Y11715933D01*
X53178499Y12666066D01*
X53163734Y12740301D01*
X53149771Y12761199D01*
X53114377Y12814168D01*
X53107484Y12824484D01*
X53023301Y12880734D01*
X52949067Y12895500D01*
X52324102Y12895500D01*
X51698934Y12895499D01*
X51663182Y12888388D01*
X51636874Y12883156D01*
X51636872Y12883155D01*
X51624699Y12880734D01*
X51614379Y12873839D01*
X51614378Y12873838D01*
X51587494Y12855874D01*
X51540516Y12824484D01*
X51484266Y12740301D01*
X51469500Y12666067D01*
X51469500Y12661293D01*
X51443101Y12595917D01*
X51385146Y12554907D01*
X51344291Y12548100D01*
X51232427Y12548100D01*
X51212378Y12550234D01*
X51208188Y12550432D01*
X51198006Y12552624D01*
X51187665Y12551400D01*
X51167161Y12548973D01*
X51161785Y12548656D01*
X51161796Y12548528D01*
X51156618Y12548100D01*
X51151416Y12548100D01*
X51147413Y12547434D01*
X51139318Y12547100D01*
X49366806Y12547100D01*
X49298685Y12567102D01*
X49252192Y12620758D01*
X49241499Y12660431D01*
X49241499Y12666066D01*
X49226734Y12740301D01*
X49212771Y12761199D01*
X49177377Y12814168D01*
X49170484Y12824484D01*
X49086301Y12880734D01*
X49012067Y12895500D01*
X48387102Y12895500D01*
X47761934Y12895499D01*
X47726182Y12888388D01*
X47699874Y12883156D01*
X47699872Y12883155D01*
X47687699Y12880734D01*
X47677379Y12873839D01*
X47677378Y12873838D01*
X47650494Y12855874D01*
X47603516Y12824484D01*
X47547266Y12740301D01*
X47532500Y12666067D01*
X47532500Y12660537D01*
X47506005Y12594919D01*
X47448051Y12553909D01*
X47407193Y12547100D01*
X36880432Y12547100D01*
X36860371Y12549235D01*
X36856187Y12549432D01*
X36846007Y12551624D01*
X36816233Y12548100D01*
X36815160Y12547973D01*
X36809785Y12547656D01*
X36809796Y12547528D01*
X36804618Y12547100D01*
X36799416Y12547100D01*
X36788081Y12545213D01*
X36781757Y12544161D01*
X36775885Y12543326D01*
X36738626Y12538916D01*
X36738619Y12538914D01*
X36728278Y12537690D01*
X36720532Y12533970D01*
X36712058Y12532560D01*
X36673452Y12511730D01*
X36669891Y12509808D01*
X36664604Y12507115D01*
X36628558Y12489805D01*
X36628555Y12489803D01*
X36621410Y12486372D01*
X36617400Y12483001D01*
X36615462Y12481063D01*
X36613811Y12479548D01*
X36613401Y12479327D01*
X36613363Y12479369D01*
X36613180Y12479208D01*
X36607726Y12476265D01*
X36600658Y12468618D01*
X36600657Y12468618D01*
X36573468Y12439205D01*
X36570038Y12435639D01*
X32582385Y8447987D01*
X32520075Y8413962D01*
X32475410Y8417157D01*
X32480935Y8397831D01*
X32460447Y8329855D01*
X32444033Y8309635D01*
X31661565Y7527167D01*
X31645875Y7514495D01*
X31642774Y7511673D01*
X31634026Y7506025D01*
X31627579Y7497847D01*
X31614797Y7481633D01*
X31611216Y7477603D01*
X31611314Y7477520D01*
X31607961Y7473563D01*
X31604280Y7469882D01*
X31601256Y7465650D01*
X31601254Y7465648D01*
X31593851Y7455289D01*
X31590288Y7450544D01*
X31567080Y7421105D01*
X31567079Y7421103D01*
X31560632Y7412925D01*
X31557786Y7404820D01*
X31552790Y7397829D01*
X31549806Y7387850D01*
X31539066Y7351938D01*
X31537232Y7346293D01*
X31528520Y7321483D01*
X31521352Y7301071D01*
X31520900Y7295852D01*
X31520900Y7293141D01*
X31520802Y7290864D01*
X31520667Y7290415D01*
X31520613Y7290417D01*
X31520598Y7290184D01*
X31518823Y7284248D01*
X31519232Y7273844D01*
X31520803Y7233850D01*
X31520900Y7228904D01*
X31520900Y7099339D01*
X31500898Y7031218D01*
X31483995Y7010244D01*
X31395674Y6921923D01*
X31357250Y6846513D01*
X31354267Y6840658D01*
X31305518Y6789043D01*
X31236603Y6771977D01*
X31169402Y6794878D01*
X31129733Y6840658D01*
X31126750Y6846513D01*
X31088326Y6921923D01*
X31000005Y7010244D01*
X30965979Y7072556D01*
X30963100Y7099339D01*
X30963100Y7496508D01*
X30983102Y7564629D01*
X31000005Y7585604D01*
X31740613Y8326211D01*
X31802925Y8360236D01*
X31831687Y8363099D01*
X31938318Y8361424D01*
X31938321Y8361424D01*
X31945916Y8361305D01*
X32100332Y8396671D01*
X32184896Y8439202D01*
X32235072Y8464437D01*
X32235075Y8464439D01*
X32241855Y8467849D01*
X32273107Y8494541D01*
X32337897Y8523572D01*
X32371175Y8518545D01*
X32367613Y8528094D01*
X32382704Y8597468D01*
X32390969Y8610609D01*
X32421001Y8652403D01*
X32454755Y8699376D01*
X32513842Y8846359D01*
X32529271Y8954772D01*
X32535581Y8999109D01*
X32535581Y8999112D01*
X32536162Y9003193D01*
X32536307Y9017000D01*
X32517276Y9174267D01*
X32461280Y9322454D01*
X32421252Y9380696D01*
X32375855Y9446749D01*
X32375854Y9446751D01*
X32371553Y9453008D01*
X32365887Y9458057D01*
X32365880Y9458064D01*
X32312193Y9505897D01*
X32274637Y9566147D01*
X32275617Y9637137D01*
X32306917Y9689068D01*
X32358326Y9740477D01*
X32416498Y9854645D01*
X32431500Y9949366D01*
X32431500Y11663034D01*
X32416498Y11757755D01*
X32358326Y11871923D01*
X32267723Y11962526D01*
X32258889Y11967027D01*
X32258888Y11967028D01*
X32161896Y12016449D01*
X32110281Y12065197D01*
X32093100Y12128715D01*
X32093100Y12737892D01*
X32113102Y12806013D01*
X32166758Y12852506D01*
X32174872Y12855874D01*
X32186228Y12860131D01*
X32186230Y12860132D01*
X32194635Y12863283D01*
X32201814Y12868663D01*
X32201817Y12868665D01*
X32297367Y12940277D01*
X32304544Y12945656D01*
X32326040Y12974338D01*
X32381535Y13048383D01*
X32381537Y13048386D01*
X32386917Y13055565D01*
X32428066Y13165333D01*
X32432358Y13176781D01*
X32432358Y13176782D01*
X32435130Y13184176D01*
X32441500Y13242811D01*
X32441499Y13833588D01*
X32441130Y13836988D01*
X32435984Y13884366D01*
X32435983Y13884370D01*
X32435130Y13892224D01*
X32386917Y14020835D01*
X32381537Y14028014D01*
X32381535Y14028017D01*
X32309923Y14123567D01*
X32304544Y14130744D01*
X32277155Y14151271D01*
X32201817Y14207735D01*
X32201814Y14207737D01*
X32194635Y14213117D01*
X32182167Y14217791D01*
X32073419Y14258558D01*
X32073418Y14258558D01*
X32066024Y14261330D01*
X32058174Y14262183D01*
X32058173Y14262183D01*
X32010786Y14267331D01*
X32010785Y14267331D01*
X32007389Y14267700D01*
X31737080Y14267700D01*
X31466612Y14267699D01*
X31463218Y14267330D01*
X31463212Y14267330D01*
X31415834Y14262184D01*
X31415830Y14262183D01*
X31407976Y14261330D01*
X31279365Y14213117D01*
X31272186Y14207737D01*
X31272183Y14207735D01*
X31169456Y14130744D01*
X31168302Y14132283D01*
X31115883Y14103659D01*
X31045068Y14108724D01*
X30988232Y14151271D01*
X30963421Y14217791D01*
X30963100Y14226780D01*
X30963100Y14354509D01*
X30983102Y14422630D01*
X31000005Y14443604D01*
X32160397Y15603995D01*
X32222709Y15638021D01*
X32249492Y15640900D01*
X38823861Y15640900D01*
X38891982Y15620898D01*
X38912956Y15603995D01*
X39001277Y15515674D01*
X39115445Y15457502D01*
X39210166Y15442500D01*
X40448834Y15442500D01*
X40543555Y15457502D01*
X40552389Y15462003D01*
X40561822Y15465068D01*
X40562742Y15462237D01*
X40616849Y15472398D01*
X40682634Y15445698D01*
X40723540Y15387670D01*
X40726280Y15323749D01*
X40727502Y15323555D01*
X40712500Y15228834D01*
X40712500Y14865166D01*
X40727502Y14770445D01*
X40785674Y14656277D01*
X40876277Y14565674D01*
X40990445Y14507502D01*
X41085166Y14492500D01*
X42323834Y14492500D01*
X42418555Y14507502D01*
X42532723Y14565674D01*
X42621044Y14653995D01*
X42683356Y14688021D01*
X42710139Y14690900D01*
X51952572Y14690900D01*
X51972621Y14688766D01*
X51976811Y14688568D01*
X51986993Y14686376D01*
X52017840Y14690027D01*
X52023215Y14690344D01*
X52023204Y14690472D01*
X52028382Y14690900D01*
X52033584Y14690900D01*
X52044919Y14692787D01*
X52051243Y14693839D01*
X52057115Y14694674D01*
X52094374Y14699084D01*
X52094381Y14699086D01*
X52104722Y14700310D01*
X52112468Y14704030D01*
X52120942Y14705440D01*
X52163109Y14728192D01*
X52168396Y14730885D01*
X52204442Y14748195D01*
X52204445Y14748197D01*
X52211590Y14751628D01*
X52215600Y14754999D01*
X52217538Y14756937D01*
X52219189Y14758452D01*
X52219599Y14758673D01*
X52219637Y14758631D01*
X52219820Y14758792D01*
X52225274Y14761735D01*
X52233326Y14770445D01*
X52259532Y14798795D01*
X52262962Y14802361D01*
X55841433Y18380832D01*
X55857129Y18393509D01*
X55860225Y18396326D01*
X55868974Y18401975D01*
X55888207Y18426372D01*
X55891785Y18430399D01*
X55891687Y18430482D01*
X55895042Y18434441D01*
X55898720Y18438119D01*
X55901739Y18442343D01*
X55901747Y18442353D01*
X55909136Y18452694D01*
X55912701Y18457443D01*
X55935919Y18486895D01*
X55942368Y18495075D01*
X55945214Y18503180D01*
X55950210Y18510171D01*
X55963934Y18556062D01*
X55965768Y18561707D01*
X55979021Y18599447D01*
X55979022Y18599450D01*
X55981648Y18606929D01*
X55982100Y18612148D01*
X55982100Y18614859D01*
X55982198Y18617136D01*
X55982333Y18617585D01*
X55982387Y18617583D01*
X55982402Y18617816D01*
X55984177Y18623752D01*
X55982197Y18674150D01*
X55982100Y18679096D01*
X55982100Y31190568D01*
X55984235Y31210629D01*
X55984432Y31214813D01*
X55986624Y31224993D01*
X55982973Y31255840D01*
X55982656Y31261215D01*
X55982528Y31261204D01*
X55982100Y31266382D01*
X55982100Y31271584D01*
X55979161Y31289243D01*
X55978326Y31295115D01*
X55973916Y31332374D01*
X55973914Y31332381D01*
X55972690Y31342722D01*
X55968970Y31350468D01*
X55967560Y31358942D01*
X55944808Y31401109D01*
X55942115Y31406396D01*
X55924805Y31442442D01*
X55924803Y31442445D01*
X55921372Y31449590D01*
X55918001Y31453600D01*
X55916063Y31455538D01*
X55914548Y31457189D01*
X55914327Y31457599D01*
X55914369Y31457637D01*
X55914208Y31457820D01*
X55911265Y31463274D01*
X55874219Y31497519D01*
X55870652Y31500949D01*
X55279166Y32092436D01*
X55266492Y32108129D01*
X55263673Y32111227D01*
X55258025Y32119974D01*
X55233633Y32139203D01*
X55229603Y32142784D01*
X55229520Y32142686D01*
X55225563Y32146039D01*
X55221882Y32149720D01*
X55217648Y32152746D01*
X55207289Y32160149D01*
X55202544Y32163712D01*
X55173105Y32186920D01*
X55173103Y32186921D01*
X55164925Y32193368D01*
X55156820Y32196214D01*
X55149829Y32201210D01*
X55103938Y32214934D01*
X55098293Y32216768D01*
X55060553Y32230021D01*
X55060550Y32230022D01*
X55053071Y32232648D01*
X55047852Y32233100D01*
X55045141Y32233100D01*
X55042864Y32233198D01*
X55042415Y32233333D01*
X55042417Y32233387D01*
X55042184Y32233402D01*
X55036248Y32235177D01*
X54986385Y32233218D01*
X54985850Y32233197D01*
X54980904Y32233100D01*
X42486932Y32233100D01*
X42466871Y32235235D01*
X42462687Y32235432D01*
X42452507Y32237624D01*
X42422682Y32234094D01*
X42421660Y32233973D01*
X42416285Y32233656D01*
X42416296Y32233528D01*
X42411118Y32233100D01*
X42405916Y32233100D01*
X42394581Y32231213D01*
X42388257Y32230161D01*
X42382385Y32229326D01*
X42345126Y32224916D01*
X42345119Y32224914D01*
X42334778Y32223690D01*
X42327032Y32219970D01*
X42318558Y32218560D01*
X42281599Y32198618D01*
X42276391Y32195808D01*
X42271104Y32193115D01*
X42235058Y32175805D01*
X42235055Y32175803D01*
X42227910Y32172372D01*
X42223900Y32169001D01*
X42221962Y32167063D01*
X42220311Y32165548D01*
X42219901Y32165327D01*
X42219863Y32165369D01*
X42219680Y32165208D01*
X42214226Y32162265D01*
X42207158Y32154618D01*
X42207157Y32154618D01*
X42179969Y32125206D01*
X42176539Y32121640D01*
X40933303Y30878405D01*
X40870991Y30844379D01*
X40844208Y30841500D01*
X40226166Y30841500D01*
X40131445Y30826498D01*
X40017277Y30768326D01*
X39926674Y30677723D01*
X39893898Y30613397D01*
X39845149Y30561782D01*
X39781631Y30544600D01*
X39483607Y30544600D01*
X39415486Y30564602D01*
X39371340Y30613398D01*
X39366020Y30623839D01*
X39366018Y30623842D01*
X39361518Y30632674D01*
X39268674Y30725518D01*
X39151684Y30785127D01*
X39141895Y30786678D01*
X39141893Y30786678D01*
X39114120Y30791077D01*
X39054623Y30800500D01*
X38862039Y30800500D01*
X38669378Y30800499D01*
X38645012Y30796640D01*
X38582114Y30786679D01*
X38582112Y30786678D01*
X38572316Y30785127D01*
X38563479Y30780624D01*
X38563478Y30780624D01*
X38539342Y30768326D01*
X38455326Y30725518D01*
X38362482Y30632674D01*
X38302873Y30515684D01*
X38287500Y30418623D01*
X38287501Y29958378D01*
X38288276Y29953485D01*
X38301251Y29871560D01*
X38302873Y29861316D01*
X38307376Y29852479D01*
X38307376Y29852478D01*
X38331224Y29805674D01*
X38362482Y29744326D01*
X38426713Y29680095D01*
X38460739Y29617783D01*
X38455674Y29546968D01*
X38426713Y29501905D01*
X38362482Y29437674D01*
X38302873Y29320684D01*
X38287500Y29223623D01*
X38287501Y28763378D01*
X38302873Y28666316D01*
X38362482Y28549326D01*
X38455326Y28456482D01*
X38572316Y28396873D01*
X38582105Y28395322D01*
X38582107Y28395322D01*
X38609880Y28390923D01*
X38669377Y28381500D01*
X38695468Y28381500D01*
X38918207Y28381501D01*
X38986327Y28361499D01*
X39007303Y28344596D01*
X39180345Y28171553D01*
X39193019Y28155860D01*
X39195838Y28152762D01*
X39201486Y28144015D01*
X39209663Y28137569D01*
X39225878Y28124786D01*
X39229915Y28121199D01*
X39229998Y28121297D01*
X39233952Y28117946D01*
X39237629Y28114269D01*
X39238059Y28113962D01*
X39276345Y28055800D01*
X39277123Y27984807D01*
X39244940Y27929883D01*
X38019546Y26704489D01*
X38004518Y26691652D01*
X37993530Y26683669D01*
X37989117Y26678767D01*
X37989115Y26678766D01*
X37948751Y26633937D01*
X37944210Y26629153D01*
X37930063Y26615006D01*
X37927986Y26612441D01*
X37917463Y26599446D01*
X37913175Y26594425D01*
X37872830Y26549619D01*
X37872827Y26549615D01*
X37868415Y26544715D01*
X37865119Y26539005D01*
X37865116Y26539002D01*
X37861625Y26532955D01*
X37850432Y26516670D01*
X37841893Y26506125D01*
X37824341Y26471676D01*
X37811523Y26446520D01*
X37808376Y26440724D01*
X37774925Y26382785D01*
X37772884Y26376503D01*
X37770731Y26369877D01*
X37763167Y26351616D01*
X37757006Y26339524D01*
X37749613Y26311934D01*
X37739691Y26274906D01*
X37737818Y26268582D01*
X37717145Y26204956D01*
X37716455Y26198389D01*
X37716454Y26198385D01*
X37715728Y26191471D01*
X37712125Y26172028D01*
X37708611Y26158915D01*
X37708265Y26152318D01*
X37708265Y26152316D01*
X37705110Y26092113D01*
X37704593Y26085539D01*
X37702500Y26065620D01*
X37702500Y26045593D01*
X37702327Y26038999D01*
X37699360Y25982377D01*
X37698826Y25972190D01*
X37699858Y25965675D01*
X37699858Y25965673D01*
X37700949Y25958786D01*
X37702500Y25939075D01*
X37702500Y25099380D01*
X37710714Y25021230D01*
X37716127Y24969734D01*
X37717145Y24960044D01*
X37719185Y24953767D01*
X37719185Y24953765D01*
X37731333Y24916378D01*
X37737500Y24877442D01*
X37737500Y24648244D01*
X37744202Y24586552D01*
X37794929Y24451236D01*
X37800309Y24444057D01*
X37800311Y24444054D01*
X37866287Y24356023D01*
X37881596Y24335596D01*
X37888776Y24330215D01*
X37990054Y24254311D01*
X37990057Y24254309D01*
X37997236Y24248929D01*
X38086954Y24215296D01*
X38125157Y24200974D01*
X38125159Y24200974D01*
X38132552Y24198202D01*
X38140402Y24197349D01*
X38140403Y24197349D01*
X38190847Y24191869D01*
X38194244Y24191500D01*
X38989756Y24191500D01*
X38993153Y24191869D01*
X39043597Y24197349D01*
X39043598Y24197349D01*
X39051448Y24198202D01*
X39058841Y24200974D01*
X39058843Y24200974D01*
X39097046Y24215296D01*
X39186764Y24248929D01*
X39193943Y24254309D01*
X39193946Y24254311D01*
X39295224Y24330215D01*
X39302404Y24335596D01*
X39317713Y24356023D01*
X39383689Y24444054D01*
X39383691Y24444057D01*
X39389071Y24451236D01*
X39439798Y24586552D01*
X39446500Y24648244D01*
X39446500Y24877442D01*
X39452667Y24916378D01*
X39464815Y24953765D01*
X39464815Y24953767D01*
X39466855Y24960044D01*
X39467874Y24969734D01*
X39473286Y25021230D01*
X39481500Y25099380D01*
X39481500Y25598367D01*
X39501502Y25666488D01*
X39518405Y25687462D01*
X41417954Y27587011D01*
X41432982Y27599848D01*
X41443970Y27607831D01*
X41488749Y27657563D01*
X41493290Y27662347D01*
X41507437Y27676494D01*
X41520043Y27692061D01*
X41524327Y27697076D01*
X41564666Y27741877D01*
X41564667Y27741878D01*
X41569085Y27746785D01*
X41575874Y27758544D01*
X41587067Y27774829D01*
X41591448Y27780240D01*
X41591449Y27780241D01*
X41595606Y27785375D01*
X41598606Y27791262D01*
X41625975Y27844975D01*
X41629119Y27850766D01*
X41640009Y27869630D01*
X41671393Y27904487D01*
X41673723Y27905674D01*
X41764326Y27996277D01*
X41822498Y28110445D01*
X41837500Y28205166D01*
X41837500Y28568834D01*
X41822498Y28663555D01*
X41825435Y28664020D01*
X41823867Y28719069D01*
X41860535Y28779864D01*
X41924250Y28811183D01*
X41987794Y28803887D01*
X41988178Y28805068D01*
X41994011Y28803173D01*
X41994783Y28803084D01*
X41995938Y28802547D01*
X41997610Y28802004D01*
X42006445Y28797502D01*
X42016235Y28795951D01*
X42016236Y28795951D01*
X42036373Y28792762D01*
X42052480Y28790211D01*
X42117078Y28759398D01*
X42118093Y28758485D01*
X42223007Y28664020D01*
X42234779Y28653420D01*
X42240500Y28650117D01*
X42372814Y28573726D01*
X42396709Y28559930D01*
X42402995Y28557888D01*
X42402994Y28557888D01*
X42568259Y28504190D01*
X42568260Y28504190D01*
X42574538Y28502150D01*
X42581101Y28501460D01*
X42581102Y28501460D01*
X42603691Y28499086D01*
X42713874Y28487505D01*
X51202501Y28487505D01*
X51270622Y28467503D01*
X51317115Y28413847D01*
X51328501Y28361505D01*
X51328501Y28051934D01*
X51343266Y27977699D01*
X51399516Y27893516D01*
X51483699Y27837266D01*
X51557933Y27822500D01*
X52882785Y27822500D01*
X54208066Y27822501D01*
X54243818Y27829612D01*
X54270126Y27834844D01*
X54270128Y27834845D01*
X54282301Y27837266D01*
X54292621Y27844161D01*
X54292622Y27844162D01*
X54356168Y27886623D01*
X54366484Y27893516D01*
X54422734Y27977699D01*
X54437500Y28051933D01*
X54437499Y30702066D01*
X54428373Y30747951D01*
X54425156Y30764126D01*
X54425155Y30764128D01*
X54422734Y30776301D01*
X54415801Y30786678D01*
X54373377Y30850168D01*
X54366484Y30860484D01*
X54282301Y30916734D01*
X54208067Y30931500D01*
X52883215Y30931500D01*
X51557934Y30931499D01*
X51522182Y30924388D01*
X51495874Y30919156D01*
X51495872Y30919155D01*
X51483699Y30916734D01*
X51473379Y30909839D01*
X51473378Y30909838D01*
X51426336Y30878405D01*
X51399516Y30860484D01*
X51343266Y30776301D01*
X51328500Y30702067D01*
X51328500Y30392505D01*
X51308498Y30324384D01*
X51254842Y30277891D01*
X51202500Y30266505D01*
X42713874Y30266505D01*
X42603691Y30254924D01*
X42581102Y30252550D01*
X42581101Y30252550D01*
X42574538Y30251860D01*
X42568260Y30249820D01*
X42568259Y30249820D01*
X42470772Y30218144D01*
X42396709Y30194080D01*
X42390987Y30190777D01*
X42390986Y30190776D01*
X42248547Y30108539D01*
X42234779Y30100590D01*
X42229872Y30096172D01*
X42229871Y30096171D01*
X42134448Y30010251D01*
X42095825Y29975475D01*
X42091946Y29970136D01*
X42051825Y29914914D01*
X42005193Y29878955D01*
X42006445Y29876498D01*
X42002928Y29874706D01*
X41998638Y29873900D01*
X41995603Y29871560D01*
X41988788Y29869130D01*
X41988141Y29868920D01*
X41987220Y29871756D01*
X41933151Y29861602D01*
X41867366Y29888302D01*
X41826460Y29946330D01*
X41823720Y30010251D01*
X41822498Y30010445D01*
X41823454Y30016478D01*
X41823454Y30016480D01*
X41837500Y30105166D01*
X41837500Y30468834D01*
X41822498Y30563555D01*
X41797616Y30612389D01*
X41784512Y30682166D01*
X41811212Y30747951D01*
X41820788Y30758687D01*
X42546096Y31483995D01*
X42608408Y31518021D01*
X42635191Y31520900D01*
X54791309Y31520900D01*
X54859430Y31500898D01*
X54880404Y31483995D01*
X55232995Y31131404D01*
X55267021Y31069092D01*
X55269900Y31042309D01*
X55269900Y18868691D01*
X55249898Y18800570D01*
X55232995Y18779596D01*
X51893403Y15440005D01*
X51831091Y15405979D01*
X51804308Y15403100D01*
X42710139Y15403100D01*
X42642018Y15423102D01*
X42621044Y15440005D01*
X42532723Y15528326D01*
X42418555Y15586498D01*
X42323834Y15601500D01*
X41085166Y15601500D01*
X40990445Y15586498D01*
X40981611Y15581997D01*
X40972178Y15578932D01*
X40971258Y15581763D01*
X40917151Y15571602D01*
X40851366Y15598302D01*
X40810460Y15656330D01*
X40807720Y15720251D01*
X40806498Y15720445D01*
X40807454Y15726478D01*
X40807454Y15726480D01*
X40821500Y15815166D01*
X40821500Y16178834D01*
X40806498Y16273555D01*
X40748326Y16387723D01*
X40657723Y16478326D01*
X40543555Y16536498D01*
X40448834Y16551500D01*
X39210166Y16551500D01*
X39115445Y16536498D01*
X39001277Y16478326D01*
X38912956Y16390005D01*
X38850644Y16355979D01*
X38823861Y16353100D01*
X32101227Y16353100D01*
X32081178Y16355234D01*
X32076988Y16355432D01*
X32066806Y16357624D01*
X32056465Y16356400D01*
X32035961Y16353973D01*
X32030583Y16353656D01*
X32030594Y16353528D01*
X32025416Y16353100D01*
X32020216Y16353100D01*
X32015088Y16352246D01*
X32015084Y16352246D01*
X32002539Y16350158D01*
X31996661Y16349321D01*
X31978382Y16347157D01*
X31949077Y16343689D01*
X31941334Y16339971D01*
X31932858Y16338560D01*
X31890674Y16315798D01*
X31885411Y16313117D01*
X31842209Y16292372D01*
X31838199Y16289001D01*
X31836260Y16287062D01*
X31834608Y16285547D01*
X31834200Y16285327D01*
X31834162Y16285368D01*
X31833981Y16285208D01*
X31828526Y16282265D01*
X31821458Y16274618D01*
X31821457Y16274618D01*
X31794281Y16245219D01*
X31790851Y16241653D01*
X30391565Y14842367D01*
X30375875Y14829695D01*
X30372774Y14826873D01*
X30364026Y14821225D01*
X30357579Y14813047D01*
X30344797Y14796833D01*
X30341216Y14792803D01*
X30341314Y14792720D01*
X30337961Y14788763D01*
X30334280Y14785082D01*
X30331256Y14780850D01*
X30331254Y14780848D01*
X30323851Y14770489D01*
X30320288Y14765744D01*
X30297080Y14736305D01*
X30297079Y14736303D01*
X30290632Y14728125D01*
X30287786Y14720020D01*
X30282790Y14713029D01*
X30277093Y14693980D01*
X30269066Y14667138D01*
X30267232Y14661493D01*
X30253979Y14623753D01*
X30251352Y14616271D01*
X30250900Y14611052D01*
X30250900Y14608341D01*
X30250802Y14606064D01*
X30250667Y14605615D01*
X30250613Y14605617D01*
X30250598Y14605384D01*
X30248823Y14599448D01*
X30250632Y14553410D01*
X30250803Y14549050D01*
X30250900Y14544104D01*
X30250900Y12049339D01*
X30230898Y11981218D01*
X30213995Y11960244D01*
X30125674Y11871923D01*
X30099348Y11820256D01*
X30084267Y11790658D01*
X30035518Y11739043D01*
X29966603Y11721977D01*
X29899402Y11744878D01*
X29859733Y11790658D01*
X29844652Y11820256D01*
X29818326Y11871923D01*
X29727723Y11962526D01*
X29613555Y12020698D01*
X29518834Y12035700D01*
X29155166Y12035700D01*
X29060445Y12020698D01*
X28946277Y11962526D01*
X28855674Y11871923D01*
X28797502Y11757755D01*
X28782500Y11663034D01*
X28782500Y9949366D01*
X28797502Y9854645D01*
X28855674Y9740477D01*
X28943995Y9652156D01*
X28978021Y9589844D01*
X28980900Y9563061D01*
X28980900Y9505226D01*
X28960898Y9437105D01*
X28937729Y9410277D01*
X28852765Y9336158D01*
X28852761Y9336154D01*
X28847039Y9331162D01*
X28755950Y9201556D01*
X28728830Y9131997D01*
X28704046Y9068428D01*
X28698406Y9053963D01*
X28697414Y9046430D01*
X28697414Y9046429D01*
X28678900Y8905795D01*
X28677729Y8896904D01*
X28684761Y8833215D01*
X28693582Y8753318D01*
X28695113Y8739447D01*
X28697723Y8732316D01*
X28697723Y8732314D01*
X28746185Y8599885D01*
X28749553Y8590681D01*
X28753789Y8584378D01*
X28753789Y8584377D01*
X28818217Y8488499D01*
X28837908Y8459195D01*
X28843527Y8454082D01*
X28843528Y8454081D01*
X28945488Y8361305D01*
X28955076Y8352581D01*
X29094293Y8276992D01*
X29247522Y8236793D01*
X29331477Y8235474D01*
X29398319Y8234424D01*
X29398322Y8234424D01*
X29405916Y8234305D01*
X29560332Y8269671D01*
X29644089Y8311796D01*
X29695072Y8337437D01*
X29695075Y8337439D01*
X29701855Y8340849D01*
X29707626Y8345778D01*
X29707629Y8345780D01*
X29816536Y8438796D01*
X29816536Y8438797D01*
X29822314Y8443731D01*
X29914755Y8572376D01*
X29973842Y8719359D01*
X29984710Y8795726D01*
X29995581Y8872109D01*
X29995581Y8872112D01*
X29996162Y8876193D01*
X29996307Y8890000D01*
X29994697Y8903309D01*
X29987011Y8966820D01*
X29977276Y9047267D01*
X29921280Y9195454D01*
X29902040Y9223449D01*
X29835855Y9319749D01*
X29835854Y9319751D01*
X29831553Y9326008D01*
X29825768Y9331162D01*
X29735281Y9411783D01*
X29697725Y9472034D01*
X29693100Y9505860D01*
X29693100Y9563061D01*
X29713102Y9631182D01*
X29730005Y9652156D01*
X29818326Y9740477D01*
X29859733Y9821742D01*
X29908482Y9873357D01*
X29977397Y9890423D01*
X30044598Y9867522D01*
X30084267Y9821742D01*
X30125674Y9740477D01*
X30216277Y9649874D01*
X30330445Y9591702D01*
X30425166Y9576700D01*
X30788834Y9576700D01*
X30883555Y9591702D01*
X30997723Y9649874D01*
X31088326Y9740477D01*
X31129733Y9821742D01*
X31178482Y9873357D01*
X31247397Y9890423D01*
X31314598Y9867522D01*
X31354267Y9821742D01*
X31395674Y9740477D01*
X31447055Y9689096D01*
X31481081Y9626784D01*
X31476016Y9555969D01*
X31440789Y9505052D01*
X31392765Y9463158D01*
X31392761Y9463154D01*
X31387039Y9458162D01*
X31295950Y9328556D01*
X31290692Y9315070D01*
X31241343Y9188495D01*
X31238406Y9180963D01*
X31237414Y9173430D01*
X31237414Y9173429D01*
X31220805Y9047267D01*
X31217729Y9023904D01*
X31232060Y8894108D01*
X31232305Y8891885D01*
X31219899Y8821981D01*
X31196161Y8788962D01*
X30787393Y8380195D01*
X30391563Y7984365D01*
X30375883Y7971702D01*
X30372775Y7968874D01*
X30364026Y7963225D01*
X30357579Y7955047D01*
X30344797Y7938833D01*
X30341216Y7934803D01*
X30341314Y7934720D01*
X30337961Y7930763D01*
X30334280Y7927082D01*
X30331256Y7922850D01*
X30331254Y7922848D01*
X30323851Y7912489D01*
X30320288Y7907744D01*
X30297080Y7878305D01*
X30297079Y7878303D01*
X30290632Y7870125D01*
X30287786Y7862020D01*
X30282790Y7855029D01*
X30271571Y7817515D01*
X30269066Y7809138D01*
X30267232Y7803493D01*
X30253979Y7765753D01*
X30251352Y7758271D01*
X30250900Y7753052D01*
X30250900Y7750341D01*
X30250802Y7748064D01*
X30250667Y7747615D01*
X30250613Y7747617D01*
X30250598Y7747384D01*
X30248823Y7741448D01*
X30249232Y7731044D01*
X30250803Y7691050D01*
X30250900Y7686104D01*
X30250900Y7099339D01*
X30230898Y7031218D01*
X30213995Y7010244D01*
X30125674Y6921923D01*
X30087250Y6846513D01*
X30084267Y6840658D01*
X30035518Y6789043D01*
X29966603Y6771977D01*
X29899402Y6794878D01*
X29859733Y6840658D01*
X29856750Y6846513D01*
X29818326Y6921923D01*
X29727723Y7012526D01*
X29613555Y7070698D01*
X29518834Y7085700D01*
X29155166Y7085700D01*
X29060445Y7070698D01*
X28946277Y7012526D01*
X28855674Y6921923D01*
X28797502Y6807755D01*
X28782500Y6713034D01*
X28782500Y6273300D01*
X28762498Y6205179D01*
X28708842Y6158686D01*
X28656500Y6147300D01*
X27975680Y6147300D01*
X27907559Y6167302D01*
X27861066Y6220958D01*
X27857698Y6229071D01*
X27844068Y6265430D01*
X27844067Y6265431D01*
X27840917Y6273835D01*
X27835537Y6281014D01*
X27835535Y6281017D01*
X27763923Y6376567D01*
X27758544Y6383744D01*
X27751367Y6389123D01*
X27655817Y6460735D01*
X27655814Y6460737D01*
X27648635Y6466117D01*
X27636426Y6470694D01*
X27527419Y6511558D01*
X27527418Y6511558D01*
X27520024Y6514330D01*
X27512174Y6515183D01*
X27512173Y6515183D01*
X27464786Y6520331D01*
X27464785Y6520331D01*
X27461389Y6520700D01*
X27191080Y6520700D01*
X26920612Y6520699D01*
X26917218Y6520330D01*
X26917212Y6520330D01*
X26869834Y6515184D01*
X26869830Y6515183D01*
X26861976Y6514330D01*
X26733365Y6466117D01*
X26726186Y6460737D01*
X26726183Y6460735D01*
X26630633Y6389123D01*
X26623456Y6383744D01*
X26618077Y6376567D01*
X26546465Y6281017D01*
X26546463Y6281014D01*
X26541083Y6273835D01*
X26537933Y6265431D01*
X26537932Y6265430D01*
X26497917Y6158686D01*
X26492870Y6145224D01*
X26486500Y6086589D01*
X22339476Y6086589D01*
X22353520Y6101781D01*
X22356947Y6105345D01*
X26377435Y10125833D01*
X26393125Y10138505D01*
X26396226Y10141327D01*
X26404974Y10146975D01*
X26424203Y10171367D01*
X26427784Y10175397D01*
X26427686Y10175480D01*
X26431039Y10179437D01*
X26434720Y10183118D01*
X26445149Y10197711D01*
X26448712Y10202456D01*
X26471920Y10231895D01*
X26471921Y10231897D01*
X26478368Y10240075D01*
X26481214Y10248180D01*
X26486210Y10255171D01*
X26499934Y10301062D01*
X26501768Y10306707D01*
X26515021Y10344447D01*
X26515022Y10344450D01*
X26517648Y10351929D01*
X26518100Y10357148D01*
X26518100Y10359859D01*
X26518198Y10362136D01*
X26518333Y10362585D01*
X26518387Y10362583D01*
X26518402Y10362816D01*
X26520177Y10368752D01*
X26518197Y10419150D01*
X26518100Y10424096D01*
X26518100Y13389309D01*
X26538102Y13457430D01*
X26555005Y13478404D01*
X29055997Y15979395D01*
X29118309Y16013421D01*
X29145092Y16016300D01*
X29716972Y16016300D01*
X29737021Y16014166D01*
X29741211Y16013968D01*
X29751393Y16011776D01*
X29782240Y16015427D01*
X29787615Y16015744D01*
X29787604Y16015872D01*
X29792782Y16016300D01*
X29797984Y16016300D01*
X29809319Y16018187D01*
X29815643Y16019239D01*
X29821515Y16020074D01*
X29858774Y16024484D01*
X29858781Y16024486D01*
X29869122Y16025710D01*
X29876868Y16029430D01*
X29885342Y16030840D01*
X29927509Y16053592D01*
X29932796Y16056285D01*
X29968842Y16073595D01*
X29968845Y16073597D01*
X29975990Y16077028D01*
X29980000Y16080399D01*
X29981938Y16082337D01*
X29983589Y16083852D01*
X29983999Y16084073D01*
X29984037Y16084031D01*
X29984220Y16084192D01*
X29989674Y16087135D01*
X30009402Y16108476D01*
X30023932Y16124195D01*
X30027362Y16127761D01*
X30749917Y16850316D01*
X30812229Y16884342D01*
X30851003Y16885730D01*
X30851055Y16886461D01*
X30855553Y16886139D01*
X30860000Y16885500D01*
X36450000Y16885500D01*
X36453346Y16885860D01*
X36453351Y16885860D01*
X36501795Y16891068D01*
X36501801Y16891069D01*
X36505159Y16891430D01*
X36557501Y16902816D01*
X36584291Y16910166D01*
X36591142Y16914067D01*
X36591144Y16914068D01*
X36666899Y16957206D01*
X36672278Y16960269D01*
X36725934Y17006762D01*
X36758056Y17040051D01*
X36804987Y17129770D01*
X36815025Y17163956D01*
X36823720Y17193568D01*
X36823721Y17193572D01*
X36824989Y17197891D01*
X36825984Y17204806D01*
X36834861Y17266552D01*
X36834861Y17266559D01*
X36835500Y17271000D01*
X36835500Y20066500D01*
X36855502Y20134621D01*
X36909158Y20181114D01*
X36961500Y20192500D01*
X49215820Y20192500D01*
X49285822Y20171265D01*
X49319042Y20149068D01*
X49381720Y20107188D01*
X49387023Y20104910D01*
X49387026Y20104908D01*
X49475707Y20066808D01*
X49568228Y20027058D01*
X49624270Y20014377D01*
X49760579Y19983533D01*
X49760584Y19983532D01*
X49766216Y19982258D01*
X49771987Y19982031D01*
X49771989Y19982031D01*
X49831756Y19979683D01*
X49969053Y19974288D01*
X50079327Y19990277D01*
X50164231Y20002587D01*
X50164236Y20002588D01*
X50169945Y20003416D01*
X50175409Y20005271D01*
X50175414Y20005272D01*
X50356693Y20066808D01*
X50356698Y20066810D01*
X50362165Y20068666D01*
X50383127Y20080405D01*
X50453068Y20119574D01*
X50539276Y20167853D01*
X50549278Y20176171D01*
X50671871Y20278132D01*
X50695345Y20297655D01*
X50758090Y20373097D01*
X50821453Y20449282D01*
X50821455Y20449285D01*
X50825147Y20453724D01*
X50902472Y20591797D01*
X50921510Y20625792D01*
X50921511Y20625794D01*
X50924334Y20630835D01*
X50926190Y20636302D01*
X50926192Y20636307D01*
X50987728Y20817586D01*
X50987729Y20817591D01*
X50989584Y20823055D01*
X50990412Y20828764D01*
X50990413Y20828769D01*
X51012035Y20977900D01*
X51018712Y21023947D01*
X51020232Y21082000D01*
X51001658Y21284141D01*
X50991225Y21321135D01*
X50948125Y21473954D01*
X50948124Y21473956D01*
X50946557Y21479513D01*
X50856776Y21661572D01*
X50735320Y21824221D01*
X50586258Y21962013D01*
X50581375Y21965094D01*
X50581371Y21965097D01*
X50419464Y22067252D01*
X50414581Y22070333D01*
X50226039Y22145554D01*
X50220379Y22146680D01*
X50220375Y22146681D01*
X50032613Y22184029D01*
X50032610Y22184029D01*
X50026946Y22185156D01*
X50021171Y22185232D01*
X50021167Y22185232D01*
X49919793Y22186559D01*
X49823971Y22187813D01*
X49818274Y22186834D01*
X49818273Y22186834D01*
X49629607Y22154415D01*
X49623910Y22153436D01*
X49433463Y22083176D01*
X49428502Y22080224D01*
X49428501Y22080224D01*
X49275528Y21989215D01*
X49211105Y21971500D01*
X36961500Y21971500D01*
X36893379Y21991502D01*
X36846886Y22045158D01*
X36835500Y22097500D01*
X36835500Y24065500D01*
X36855502Y24133621D01*
X36909158Y24180114D01*
X36961500Y24191500D01*
X36989756Y24191500D01*
X36993153Y24191869D01*
X37043597Y24197349D01*
X37043598Y24197349D01*
X37051448Y24198202D01*
X37058841Y24200974D01*
X37058843Y24200974D01*
X37097046Y24215296D01*
X37186764Y24248929D01*
X37193943Y24254309D01*
X37193946Y24254311D01*
X37295224Y24330215D01*
X37302404Y24335596D01*
X37317713Y24356023D01*
X37383689Y24444054D01*
X37383691Y24444057D01*
X37389071Y24451236D01*
X37439798Y24586552D01*
X37446500Y24648244D01*
X37446500Y25643756D01*
X37445761Y25650557D01*
X37440651Y25697597D01*
X37440651Y25697598D01*
X37439798Y25705448D01*
X37389071Y25840764D01*
X37383691Y25847943D01*
X37383689Y25847946D01*
X37307785Y25949224D01*
X37302404Y25956404D01*
X37226049Y26013629D01*
X37193946Y26037689D01*
X37193943Y26037691D01*
X37186764Y26043071D01*
X37095521Y26077276D01*
X37058843Y26091026D01*
X37058841Y26091026D01*
X37051448Y26093798D01*
X37043598Y26094651D01*
X37043597Y26094651D01*
X36993153Y26100131D01*
X36993152Y26100131D01*
X36989756Y26100500D01*
X36922869Y26100500D01*
X36854748Y26120502D01*
X36812396Y26171180D01*
X36810834Y26170291D01*
X36763794Y26252899D01*
X36760731Y26258278D01*
X36726123Y26298218D01*
X36716078Y26309811D01*
X36716073Y26309816D01*
X36714238Y26311934D01*
X36680949Y26344056D01*
X36591230Y26390987D01*
X36571317Y26396834D01*
X36527432Y26409720D01*
X36527428Y26409721D01*
X36523109Y26410989D01*
X36518661Y26411629D01*
X36518654Y26411630D01*
X36454448Y26420861D01*
X36454441Y26420861D01*
X36450000Y26421500D01*
X30860000Y26421500D01*
X30856654Y26421140D01*
X30856649Y26421140D01*
X30808205Y26415932D01*
X30808199Y26415931D01*
X30804841Y26415570D01*
X30752499Y26404184D01*
X30725709Y26396834D01*
X30718858Y26392933D01*
X30718856Y26392932D01*
X30710406Y26388120D01*
X30637722Y26346731D01*
X30584066Y26300238D01*
X30551944Y26266949D01*
X30505013Y26177230D01*
X30503270Y26171294D01*
X30493201Y26137002D01*
X30454817Y26077276D01*
X30390237Y26047783D01*
X30372305Y26046500D01*
X28766930Y26046499D01*
X28664934Y26046499D01*
X28629182Y26039388D01*
X28602874Y26034156D01*
X28602872Y26034155D01*
X28590699Y26031734D01*
X28580379Y26024839D01*
X28580378Y26024838D01*
X28564857Y26014467D01*
X28506516Y25975484D01*
X28450266Y25891301D01*
X28435500Y25817067D01*
X28435501Y23966934D01*
X28450266Y23892699D01*
X28506516Y23808516D01*
X28590699Y23752266D01*
X28664933Y23737500D01*
X28749630Y23737500D01*
X30348500Y23737501D01*
X30416621Y23717499D01*
X30463114Y23663843D01*
X30474500Y23611501D01*
X30474500Y23121927D01*
X30454498Y23053806D01*
X30400842Y23007313D01*
X30392729Y23003945D01*
X30365780Y22993842D01*
X30300236Y22969271D01*
X30293057Y22963891D01*
X30293054Y22963889D01*
X30244554Y22927540D01*
X30184596Y22882604D01*
X30179215Y22875424D01*
X30103311Y22774146D01*
X30103309Y22774143D01*
X30097929Y22766964D01*
X30047202Y22631648D01*
X30040500Y22569956D01*
X30040500Y21524444D01*
X30047202Y21462752D01*
X30097929Y21327436D01*
X30103309Y21320257D01*
X30103311Y21320254D01*
X30134689Y21278387D01*
X30184596Y21211796D01*
X30191776Y21206415D01*
X30291033Y21132026D01*
X30333548Y21075167D01*
X30338574Y21004348D01*
X30304514Y20942055D01*
X30291033Y20930374D01*
X30256165Y20904242D01*
X30184596Y20850604D01*
X30179215Y20843424D01*
X30103311Y20742146D01*
X30103309Y20742143D01*
X30097929Y20734964D01*
X30073292Y20669243D01*
X30058288Y20629219D01*
X30047202Y20599648D01*
X30040500Y20537956D01*
X30040500Y19492444D01*
X30040869Y19489048D01*
X30040869Y19489047D01*
X30043160Y19467963D01*
X30047202Y19430752D01*
X30097929Y19295436D01*
X30103309Y19288257D01*
X30103311Y19288254D01*
X30169287Y19200223D01*
X30184596Y19179796D01*
X30191776Y19174415D01*
X30291033Y19100026D01*
X30333548Y19043167D01*
X30338574Y18972348D01*
X30304514Y18910055D01*
X30291033Y18898374D01*
X30247240Y18865553D01*
X30184596Y18818604D01*
X30179215Y18811424D01*
X30103311Y18710146D01*
X30103309Y18710143D01*
X30097929Y18702964D01*
X30071745Y18633118D01*
X30050556Y18576594D01*
X30047202Y18567648D01*
X30040500Y18505956D01*
X30040500Y17460444D01*
X30047202Y17398752D01*
X30049974Y17391357D01*
X30049975Y17391354D01*
X30085241Y17297279D01*
X30090424Y17226472D01*
X30056354Y17163956D01*
X29657803Y16765405D01*
X29595491Y16731379D01*
X29568708Y16728500D01*
X28996828Y16728500D01*
X28976779Y16730634D01*
X28972589Y16730832D01*
X28962407Y16733024D01*
X28952066Y16731800D01*
X28931562Y16729373D01*
X28926185Y16729056D01*
X28926196Y16728928D01*
X28921020Y16728500D01*
X28915816Y16728500D01*
X28904448Y16726608D01*
X28898150Y16725560D01*
X28892275Y16724724D01*
X28855024Y16720315D01*
X28855016Y16720313D01*
X28844678Y16719089D01*
X28836935Y16715371D01*
X28828458Y16713960D01*
X28786255Y16691188D01*
X28781010Y16688516D01*
X28737810Y16667772D01*
X28733800Y16664401D01*
X28731862Y16662463D01*
X28730210Y16660948D01*
X28729801Y16660727D01*
X28729763Y16660769D01*
X28729580Y16660608D01*
X28724126Y16657665D01*
X28717058Y16650018D01*
X28717057Y16650018D01*
X28689869Y16620606D01*
X28686439Y16617040D01*
X25946565Y13877167D01*
X25930875Y13864495D01*
X25927774Y13861673D01*
X25919026Y13856025D01*
X25912579Y13847847D01*
X25899797Y13831633D01*
X25896216Y13827603D01*
X25896314Y13827520D01*
X25892961Y13823563D01*
X25889280Y13819882D01*
X25886256Y13815650D01*
X25886254Y13815648D01*
X25878851Y13805289D01*
X25875288Y13800544D01*
X25852080Y13771105D01*
X25852079Y13771103D01*
X25845632Y13762925D01*
X25842786Y13754820D01*
X25837790Y13747829D01*
X25834806Y13737850D01*
X25824066Y13701938D01*
X25822232Y13696293D01*
X25809598Y13660315D01*
X25806352Y13651071D01*
X25805900Y13645852D01*
X25805900Y13643141D01*
X25805802Y13640864D01*
X25805667Y13640415D01*
X25805613Y13640417D01*
X25805598Y13640184D01*
X25803823Y13634248D01*
X25804708Y13611727D01*
X25805803Y13583850D01*
X25805900Y13578904D01*
X25805900Y10613691D01*
X25785898Y10545570D01*
X25768995Y10524596D01*
X21987403Y6743005D01*
X21925091Y6708979D01*
X21898308Y6706100D01*
X21058545Y6706100D01*
X20990424Y6726102D01*
X20960877Y6754007D01*
X20959518Y6756674D01*
X20866674Y6849518D01*
X20749684Y6909127D01*
X20739895Y6910678D01*
X20739893Y6910678D01*
X20712120Y6915077D01*
X20652623Y6924500D01*
X20422547Y6924500D01*
X20192378Y6924499D01*
X20176113Y6921923D01*
X20105114Y6910679D01*
X20105112Y6910678D01*
X20095316Y6909127D01*
X19978326Y6849518D01*
X19914095Y6785287D01*
X19851783Y6751261D01*
X19780968Y6756326D01*
X19735905Y6785287D01*
X19671674Y6849518D01*
X19662839Y6854020D01*
X19658938Y6856854D01*
X19615584Y6913077D01*
X19607000Y6958789D01*
X19607000Y7011211D01*
X19627002Y7079332D01*
X19658938Y7113146D01*
X19662839Y7115980D01*
X19671674Y7120482D01*
X19764518Y7213326D01*
X19824127Y7330316D01*
X19839500Y7427377D01*
X19839499Y7812622D01*
X19830315Y7870610D01*
X19825679Y7899886D01*
X19825678Y7899888D01*
X19824127Y7909684D01*
X19819624Y7918521D01*
X19819623Y7918525D01*
X19815672Y7926279D01*
X19802568Y7996055D01*
X19829268Y8061840D01*
X19887296Y8102746D01*
X19929917Y8109465D01*
X19982803Y8108634D01*
X20059819Y8107424D01*
X20059822Y8107424D01*
X20067416Y8107305D01*
X20221832Y8142671D01*
X20333523Y8198845D01*
X20356572Y8210437D01*
X20356575Y8210439D01*
X20363355Y8213849D01*
X20369126Y8218778D01*
X20369129Y8218780D01*
X20478036Y8311796D01*
X20478036Y8311797D01*
X20483814Y8316731D01*
X20576255Y8445376D01*
X20635342Y8592359D01*
X20649058Y8688736D01*
X20657081Y8745109D01*
X20657081Y8745112D01*
X20657662Y8749193D01*
X20657807Y8763000D01*
X20655519Y8781912D01*
X20650670Y8821981D01*
X20638776Y8920267D01*
X20582780Y9068454D01*
X20537871Y9133797D01*
X20497355Y9192749D01*
X20497354Y9192751D01*
X20493053Y9199008D01*
X20483488Y9207530D01*
X20396781Y9284783D01*
X20359225Y9345034D01*
X20354600Y9378860D01*
X20354600Y9939500D01*
X20374602Y10007621D01*
X20428258Y10054114D01*
X20480600Y10065500D01*
X20707602Y10065500D01*
X20712152Y10066170D01*
X20712155Y10066170D01*
X20767592Y10074331D01*
X20767593Y10074331D01*
X20777278Y10075757D01*
X20855765Y10114292D01*
X20873868Y10123180D01*
X20873870Y10123181D01*
X20883216Y10127770D01*
X20966595Y10211294D01*
X20980664Y10240075D01*
X20987681Y10254431D01*
X21018423Y10317323D01*
X21022847Y10347645D01*
X21027840Y10381872D01*
X21027840Y10381876D01*
X21028500Y10386398D01*
X21028500Y11828602D01*
X21027702Y11834027D01*
X21019669Y11888592D01*
X21019669Y11888593D01*
X21018243Y11898278D01*
X20986699Y11962526D01*
X20970820Y11994868D01*
X20970819Y11994870D01*
X20966230Y12004216D01*
X20882706Y12087595D01*
X20776677Y12139423D01*
X20746355Y12143847D01*
X20712128Y12148840D01*
X20712124Y12148840D01*
X20707602Y12149500D01*
X20440398Y12149500D01*
X20435848Y12148830D01*
X20435845Y12148830D01*
X20380408Y12140669D01*
X20380407Y12140669D01*
X20370722Y12139243D01*
X20361930Y12134926D01*
X20361929Y12134926D01*
X20304560Y12106760D01*
X20234597Y12094692D01*
X20193697Y12106663D01*
X20189899Y12108519D01*
X20126677Y12139423D01*
X20096355Y12143847D01*
X20062128Y12148840D01*
X20062124Y12148840D01*
X20057602Y12149500D01*
X19790398Y12149500D01*
X19785848Y12148830D01*
X19785845Y12148830D01*
X19730408Y12140669D01*
X19730407Y12140669D01*
X19720722Y12139243D01*
X19711930Y12134926D01*
X19711929Y12134926D01*
X19654560Y12106760D01*
X19584597Y12094692D01*
X19543697Y12106663D01*
X19539899Y12108519D01*
X19476677Y12139423D01*
X19446355Y12143847D01*
X19412128Y12148840D01*
X19412124Y12148840D01*
X19407602Y12149500D01*
X19140398Y12149500D01*
X19135848Y12148830D01*
X19135845Y12148830D01*
X19080408Y12140669D01*
X19080407Y12140669D01*
X19070722Y12139243D01*
X19061930Y12134926D01*
X19061929Y12134926D01*
X19004560Y12106760D01*
X18934597Y12094692D01*
X18893697Y12106663D01*
X18889899Y12108519D01*
X18826677Y12139423D01*
X18796355Y12143847D01*
X18762128Y12148840D01*
X18762124Y12148840D01*
X18757602Y12149500D01*
X18490398Y12149500D01*
X18485848Y12148830D01*
X18485845Y12148830D01*
X18430408Y12140669D01*
X18430407Y12140669D01*
X18420722Y12139243D01*
X18410288Y12134120D01*
X18324132Y12091820D01*
X18324130Y12091819D01*
X18314784Y12087230D01*
X18231405Y12003706D01*
X18179577Y11897677D01*
X18169500Y11828602D01*
X18169500Y11613000D01*
X18149498Y11544879D01*
X18095842Y11498386D01*
X18043500Y11487000D01*
X16977096Y11487000D01*
X16908975Y11507002D01*
X16888001Y11523905D01*
X16869771Y11542135D01*
X16758427Y11598868D01*
X16748637Y11600419D01*
X16748636Y11600419D01*
X16722899Y11604495D01*
X16666045Y11613500D01*
X16495035Y11613500D01*
X16323956Y11613499D01*
X16300792Y11609830D01*
X16241371Y11600420D01*
X16241369Y11600419D01*
X16231573Y11598868D01*
X16120229Y11542135D01*
X16031865Y11453771D01*
X15975132Y11342427D01*
X15973581Y11332637D01*
X15973581Y11332636D01*
X15970782Y11314965D01*
X15960500Y11250045D01*
X15960501Y10847956D01*
X15961276Y10843063D01*
X15972813Y10770218D01*
X15975132Y10755573D01*
X15979635Y10746736D01*
X15979635Y10746735D01*
X15987321Y10731650D01*
X16031865Y10644229D01*
X16078595Y10597499D01*
X16112621Y10535187D01*
X16115500Y10508404D01*
X16115500Y10343526D01*
X16095498Y10275405D01*
X16041842Y10228912D01*
X15971568Y10218808D01*
X15906988Y10248302D01*
X15900405Y10254431D01*
X15871796Y10283040D01*
X15761862Y10339054D01*
X15752073Y10340604D01*
X15752071Y10340605D01*
X15725579Y10344801D01*
X15670653Y10353500D01*
X15505034Y10353500D01*
X15339348Y10353499D01*
X15334455Y10352724D01*
X15334454Y10352724D01*
X15257936Y10340606D01*
X15257934Y10340605D01*
X15248138Y10339054D01*
X15239301Y10334551D01*
X15239300Y10334551D01*
X15219313Y10324367D01*
X15138204Y10283040D01*
X15050960Y10195796D01*
X15048158Y10198598D01*
X15007310Y10167091D01*
X14961581Y10158500D01*
X14523596Y10158500D01*
X14455475Y10178502D01*
X14434501Y10195405D01*
X14357771Y10272135D01*
X14246427Y10328868D01*
X14236637Y10330419D01*
X14236636Y10330419D01*
X14210534Y10334553D01*
X14154045Y10343500D01*
X13983035Y10343500D01*
X13811956Y10343499D01*
X13793689Y10340606D01*
X13729371Y10330420D01*
X13729369Y10330419D01*
X13719573Y10328868D01*
X13608229Y10272135D01*
X13519865Y10183771D01*
X13463132Y10072427D01*
X13461581Y10062637D01*
X13461581Y10062636D01*
X13458832Y10045277D01*
X13448500Y9980045D01*
X10897100Y9980045D01*
X10897100Y14179309D01*
X10917102Y14247430D01*
X10934005Y14268404D01*
X12262724Y15597123D01*
X14157500Y15597123D01*
X14157501Y15136878D01*
X14161043Y15114513D01*
X14170642Y15053905D01*
X14172873Y15039816D01*
X14232482Y14922826D01*
X14325326Y14829982D01*
X14442316Y14770373D01*
X14452105Y14768822D01*
X14452107Y14768822D01*
X14471542Y14765744D01*
X14539377Y14755000D01*
X14565468Y14755000D01*
X14788208Y14755001D01*
X14856328Y14734999D01*
X14877303Y14718096D01*
X14973995Y14621404D01*
X15008021Y14559092D01*
X15010900Y14532309D01*
X15010900Y14077226D01*
X14990898Y14009105D01*
X14967729Y13982277D01*
X14882765Y13908158D01*
X14882761Y13908154D01*
X14877039Y13903162D01*
X14785950Y13773556D01*
X14775107Y13745744D01*
X14734039Y13640410D01*
X14728406Y13625963D01*
X14727414Y13618430D01*
X14727414Y13618429D01*
X14708980Y13478404D01*
X14707729Y13468904D01*
X14710755Y13441499D01*
X14719435Y13362880D01*
X14725113Y13311447D01*
X14727723Y13304316D01*
X14727723Y13304314D01*
X14773883Y13178176D01*
X14779553Y13162681D01*
X14783789Y13156378D01*
X14783789Y13156377D01*
X14848487Y13060097D01*
X14867908Y13031195D01*
X14873527Y13026082D01*
X14873528Y13026081D01*
X14954027Y12952833D01*
X14985076Y12924581D01*
X15124293Y12848992D01*
X15277522Y12808793D01*
X15361477Y12807474D01*
X15428319Y12806424D01*
X15428322Y12806424D01*
X15435916Y12806305D01*
X15590332Y12841671D01*
X15672815Y12883155D01*
X15725072Y12909437D01*
X15725075Y12909439D01*
X15731855Y12912849D01*
X15737626Y12917778D01*
X15737629Y12917780D01*
X15846536Y13010796D01*
X15846536Y13010797D01*
X15852314Y13015731D01*
X15944755Y13144376D01*
X16003842Y13291359D01*
X16017782Y13389309D01*
X16025581Y13444109D01*
X16025581Y13444112D01*
X16026162Y13448193D01*
X16026307Y13462000D01*
X16007276Y13619267D01*
X15951280Y13767454D01*
X15884586Y13864495D01*
X15865855Y13891749D01*
X15865854Y13891751D01*
X15861553Y13898008D01*
X15822666Y13932655D01*
X15765281Y13983783D01*
X15727725Y14044034D01*
X15723100Y14077860D01*
X15723100Y14680568D01*
X15725235Y14700629D01*
X15725432Y14704813D01*
X15727624Y14714993D01*
X15723973Y14745840D01*
X15723656Y14751215D01*
X15723528Y14751204D01*
X15723100Y14756382D01*
X15723100Y14761584D01*
X15720161Y14779243D01*
X15719326Y14785115D01*
X15714916Y14822374D01*
X15714914Y14822381D01*
X15713690Y14832722D01*
X15709970Y14840468D01*
X15708560Y14848942D01*
X15708408Y14849223D01*
X15708577Y14915805D01*
X15747112Y14975433D01*
X15811767Y15004763D01*
X15829382Y15006000D01*
X16063621Y15006001D01*
X16076044Y15006001D01*
X16099208Y15009670D01*
X16158629Y15019080D01*
X16158631Y15019081D01*
X16168427Y15020632D01*
X16177265Y15025135D01*
X16264081Y15069370D01*
X16333858Y15082474D01*
X16399643Y15055774D01*
X16406080Y15050300D01*
X16509076Y14956581D01*
X16648293Y14880992D01*
X16801522Y14840793D01*
X16885477Y14839474D01*
X16952319Y14838424D01*
X16952322Y14838424D01*
X16959916Y14838305D01*
X17114332Y14873671D01*
X17215795Y14924701D01*
X17249072Y14941437D01*
X17249075Y14941439D01*
X17255855Y14944849D01*
X17261626Y14949778D01*
X17261629Y14949780D01*
X17370536Y15042796D01*
X17370536Y15042797D01*
X17376314Y15047731D01*
X17468755Y15176376D01*
X17527842Y15323359D01*
X17534402Y15369456D01*
X17549581Y15476109D01*
X17549581Y15476112D01*
X17550162Y15480193D01*
X17550307Y15494000D01*
X17531276Y15651267D01*
X17475280Y15799454D01*
X17427740Y15868626D01*
X17389855Y15923749D01*
X17389854Y15923751D01*
X17385553Y15930008D01*
X17267275Y16035389D01*
X17259889Y16039300D01*
X17182266Y16080399D01*
X17127274Y16109516D01*
X16973633Y16148108D01*
X16966034Y16148148D01*
X16966033Y16148148D01*
X16900181Y16148493D01*
X16815221Y16148938D01*
X16807841Y16147166D01*
X16807839Y16147166D01*
X16668563Y16113729D01*
X16668560Y16113728D01*
X16661184Y16111957D01*
X16520414Y16039300D01*
X16514697Y16034313D01*
X16514690Y16034308D01*
X16461537Y15987939D01*
X16397055Y15958231D01*
X16326748Y15968101D01*
X16289613Y15993793D01*
X16279771Y16003635D01*
X16168427Y16060368D01*
X16158637Y16061919D01*
X16158636Y16061919D01*
X16132899Y16065995D01*
X16076045Y16075000D01*
X15875041Y16075000D01*
X15673956Y16074999D01*
X15665091Y16073595D01*
X15591371Y16061920D01*
X15591369Y16061919D01*
X15581573Y16060368D01*
X15572736Y16055865D01*
X15572735Y16055865D01*
X15568274Y16053592D01*
X15470229Y16003635D01*
X15381865Y15915271D01*
X15377365Y15906440D01*
X15377361Y15906434D01*
X15374709Y15901229D01*
X15325959Y15849616D01*
X15257043Y15832553D01*
X15189843Y15855457D01*
X15173350Y15869342D01*
X15138674Y15904018D01*
X15021684Y15963627D01*
X15011895Y15965178D01*
X15011893Y15965178D01*
X14984120Y15969577D01*
X14924623Y15979000D01*
X14732039Y15979000D01*
X14539378Y15978999D01*
X14515012Y15975140D01*
X14452114Y15965179D01*
X14452112Y15965178D01*
X14442316Y15963627D01*
X14433479Y15959124D01*
X14433478Y15959124D01*
X14431074Y15957899D01*
X14325326Y15904018D01*
X14232482Y15811174D01*
X14172873Y15694184D01*
X14157500Y15597123D01*
X12262724Y15597123D01*
X16892197Y20226595D01*
X16954509Y20260621D01*
X16981291Y20263500D01*
X17140932Y20263501D01*
X17161044Y20263501D01*
X17165938Y20264276D01*
X17243629Y20276580D01*
X17243631Y20276581D01*
X17253427Y20278132D01*
X17364771Y20334865D01*
X17453135Y20423229D01*
X17453171Y20423300D01*
X17505068Y20463316D01*
X17550779Y20471900D01*
X19866308Y20471900D01*
X19934429Y20451898D01*
X19955404Y20434995D01*
X20247681Y20142717D01*
X20281706Y20080405D01*
X20276641Y20009589D01*
X20234094Y19952754D01*
X20167574Y19927943D01*
X20127891Y19931418D01*
X20021633Y19958108D01*
X20014034Y19958148D01*
X20014033Y19958148D01*
X19948181Y19958493D01*
X19863221Y19958938D01*
X19855841Y19957166D01*
X19855839Y19957166D01*
X19716563Y19923729D01*
X19716560Y19923728D01*
X19709184Y19921957D01*
X19568414Y19849300D01*
X19449039Y19745162D01*
X19357950Y19615556D01*
X19344110Y19580057D01*
X19309951Y19492444D01*
X19300406Y19467963D01*
X19299414Y19460430D01*
X19299414Y19460429D01*
X19294534Y19423357D01*
X19279729Y19310904D01*
X19285998Y19254120D01*
X19295922Y19164238D01*
X19297113Y19153447D01*
X19299723Y19146316D01*
X19299723Y19146314D01*
X19343429Y19026882D01*
X19351553Y19004681D01*
X19355789Y18998378D01*
X19355789Y18998377D01*
X19424582Y18896003D01*
X19439908Y18873195D01*
X19530637Y18790639D01*
X19567559Y18730000D01*
X19568933Y18674225D01*
X19568352Y18672571D01*
X19567900Y18667352D01*
X19567900Y18664641D01*
X19567802Y18662364D01*
X19567667Y18661915D01*
X19567613Y18661917D01*
X19567598Y18661684D01*
X19565823Y18655748D01*
X19566232Y18645344D01*
X19567803Y18605350D01*
X19567900Y18600404D01*
X19567900Y17817258D01*
X19544478Y17744089D01*
X19538763Y17736076D01*
X19531405Y17728706D01*
X19479577Y17622677D01*
X19469500Y17553602D01*
X19469500Y16111398D01*
X19470170Y16106848D01*
X19470170Y16106845D01*
X19478331Y16051408D01*
X19479757Y16041722D01*
X19498457Y16003635D01*
X19526926Y15945651D01*
X19531770Y15935784D01*
X19615294Y15852405D01*
X19721323Y15800577D01*
X19751645Y15796153D01*
X19785872Y15791160D01*
X19785876Y15791160D01*
X19790398Y15790500D01*
X20057602Y15790500D01*
X20062152Y15791170D01*
X20062155Y15791170D01*
X20117592Y15799331D01*
X20117593Y15799331D01*
X20127278Y15800757D01*
X20146662Y15810274D01*
X20193440Y15833240D01*
X20263403Y15845308D01*
X20304303Y15833337D01*
X20371323Y15800577D01*
X20401645Y15796153D01*
X20435872Y15791160D01*
X20435876Y15791160D01*
X20440398Y15790500D01*
X20707602Y15790500D01*
X20712152Y15791170D01*
X20712155Y15791170D01*
X20767592Y15799331D01*
X20767593Y15799331D01*
X20777278Y15800757D01*
X20796662Y15810274D01*
X20843440Y15833240D01*
X20913403Y15845308D01*
X20954303Y15833337D01*
X21021323Y15800577D01*
X21051645Y15796153D01*
X21085872Y15791160D01*
X21085876Y15791160D01*
X21090398Y15790500D01*
X21357602Y15790500D01*
X21362152Y15791170D01*
X21362155Y15791170D01*
X21417592Y15799331D01*
X21417593Y15799331D01*
X21427278Y15800757D01*
X21446662Y15810274D01*
X21493440Y15833240D01*
X21563403Y15845308D01*
X21604303Y15833337D01*
X21671323Y15800577D01*
X21701645Y15796153D01*
X21735872Y15791160D01*
X21735876Y15791160D01*
X21740398Y15790500D01*
X22007602Y15790500D01*
X22012152Y15791170D01*
X22012155Y15791170D01*
X22067592Y15799331D01*
X22067593Y15799331D01*
X22077278Y15800757D01*
X22096662Y15810274D01*
X22143440Y15833240D01*
X22213403Y15845308D01*
X22254303Y15833337D01*
X22321323Y15800577D01*
X22351645Y15796153D01*
X22385872Y15791160D01*
X22385876Y15791160D01*
X22390398Y15790500D01*
X22657602Y15790500D01*
X22662152Y15791170D01*
X22662155Y15791170D01*
X22717592Y15799331D01*
X22717593Y15799331D01*
X22727278Y15800757D01*
X22818018Y15845308D01*
X22823868Y15848180D01*
X22823870Y15848181D01*
X22833216Y15852770D01*
X22916595Y15936294D01*
X22968423Y16042323D01*
X22974526Y16084157D01*
X22977840Y16106872D01*
X22977840Y16106876D01*
X22978500Y16111398D01*
X22978500Y16759500D01*
X22998502Y16827621D01*
X23052158Y16874114D01*
X23104500Y16885500D01*
X25274000Y16885500D01*
X25277346Y16885860D01*
X25277351Y16885860D01*
X25325795Y16891068D01*
X25325801Y16891069D01*
X25329159Y16891430D01*
X25381501Y16902816D01*
X25408291Y16910166D01*
X25415142Y16914067D01*
X25415144Y16914068D01*
X25490899Y16957206D01*
X25496278Y16960269D01*
X25549934Y17006762D01*
X25582056Y17040051D01*
X25628987Y17129770D01*
X25639025Y17163956D01*
X25647720Y17193568D01*
X25647721Y17193572D01*
X25648989Y17197891D01*
X25649984Y17204806D01*
X25658861Y17266552D01*
X25658861Y17266559D01*
X25659500Y17271000D01*
X25659500Y23611501D01*
X25679502Y23679621D01*
X25733158Y23726114D01*
X25785500Y23737500D01*
X27142235Y23737501D01*
X27215066Y23737501D01*
X27250818Y23744612D01*
X27277126Y23749844D01*
X27277128Y23749845D01*
X27289301Y23752266D01*
X27299621Y23759161D01*
X27299622Y23759162D01*
X27363168Y23801623D01*
X27373484Y23808516D01*
X27429734Y23892699D01*
X27444500Y23966933D01*
X27444499Y25817066D01*
X27436517Y25857200D01*
X27432156Y25879126D01*
X27432155Y25879128D01*
X27429734Y25891301D01*
X27373484Y25975484D01*
X27289301Y26031734D01*
X27215067Y26046500D01*
X27142259Y26046500D01*
X25785500Y26046499D01*
X25717379Y26066501D01*
X25670886Y26120157D01*
X25659500Y26172499D01*
X25659500Y26798000D01*
X25659140Y26801351D01*
X25653932Y26849795D01*
X25653931Y26849801D01*
X25653570Y26853159D01*
X25642184Y26905501D01*
X25634834Y26932291D01*
X25584731Y27020278D01*
X25548373Y27062238D01*
X25540078Y27071811D01*
X25540073Y27071816D01*
X25538238Y27073934D01*
X25504949Y27106056D01*
X25415230Y27152987D01*
X25408606Y27154932D01*
X25351432Y27171720D01*
X25351428Y27171721D01*
X25347109Y27172989D01*
X25342661Y27173629D01*
X25342654Y27173630D01*
X25278448Y27182861D01*
X25278441Y27182861D01*
X25274000Y27183500D01*
X21843000Y27183500D01*
X21839654Y27183140D01*
X21839649Y27183140D01*
X21791205Y27177932D01*
X21791199Y27177931D01*
X21787841Y27177570D01*
X21735499Y27166184D01*
X21733877Y27165739D01*
X21733873Y27165738D01*
X21716312Y27160920D01*
X21708709Y27158834D01*
X21701858Y27154933D01*
X21701856Y27154932D01*
X21693406Y27150120D01*
X21620722Y27108731D01*
X21567066Y27062238D01*
X21534944Y27028949D01*
X21530767Y27020964D01*
X21530765Y27020961D01*
X21501021Y26964098D01*
X21451723Y26913007D01*
X21389373Y26896499D01*
X20620934Y26896499D01*
X20585182Y26889388D01*
X20558874Y26884156D01*
X20558872Y26884155D01*
X20546699Y26881734D01*
X20536379Y26874839D01*
X20536378Y26874838D01*
X20475985Y26834484D01*
X20462516Y26825484D01*
X20406266Y26741301D01*
X20391500Y26667067D01*
X20391501Y23116934D01*
X20406266Y23042699D01*
X20413161Y23032380D01*
X20413162Y23032378D01*
X20453225Y22972421D01*
X20462516Y22958516D01*
X20546699Y22902266D01*
X20620933Y22887500D01*
X21331500Y22887500D01*
X21399621Y22867498D01*
X21446114Y22813842D01*
X21457500Y22761500D01*
X21457500Y20244292D01*
X21437498Y20176171D01*
X21383842Y20129678D01*
X21313568Y20119574D01*
X21248988Y20149068D01*
X21242405Y20155197D01*
X20354167Y21043435D01*
X20341495Y21059125D01*
X20338673Y21062226D01*
X20333025Y21070974D01*
X20308633Y21090203D01*
X20304603Y21093784D01*
X20304520Y21093686D01*
X20300563Y21097039D01*
X20296882Y21100720D01*
X20292648Y21103746D01*
X20282289Y21111149D01*
X20277544Y21114712D01*
X20248105Y21137920D01*
X20248103Y21137921D01*
X20239925Y21144368D01*
X20231820Y21147214D01*
X20224829Y21152210D01*
X20178938Y21165934D01*
X20173293Y21167768D01*
X20135553Y21181021D01*
X20135550Y21181022D01*
X20128071Y21183648D01*
X20122852Y21184100D01*
X20120141Y21184100D01*
X20117864Y21184198D01*
X20117415Y21184333D01*
X20117417Y21184387D01*
X20117184Y21184402D01*
X20111248Y21186177D01*
X20061385Y21184218D01*
X20060850Y21184197D01*
X20055904Y21184100D01*
X17550779Y21184100D01*
X17482658Y21204102D01*
X17453908Y21231255D01*
X17453135Y21232771D01*
X17364771Y21321135D01*
X17253427Y21377868D01*
X17243637Y21379419D01*
X17243636Y21379419D01*
X17215924Y21383808D01*
X17194417Y21387214D01*
X17130265Y21417626D01*
X17125034Y21422568D01*
X15875197Y22672405D01*
X15841171Y22734717D01*
X15846236Y22805532D01*
X15888783Y22862368D01*
X15955303Y22887179D01*
X15964292Y22887500D01*
X16944925Y22887501D01*
X16971066Y22887501D01*
X17006818Y22894612D01*
X17033126Y22899844D01*
X17033128Y22899845D01*
X17045301Y22902266D01*
X17055621Y22909161D01*
X17055622Y22909162D01*
X17119168Y22951623D01*
X17129484Y22958516D01*
X17185734Y23042699D01*
X17200500Y23116933D01*
X17200499Y26667066D01*
X17185734Y26741301D01*
X17147849Y26798000D01*
X17136377Y26815168D01*
X17129484Y26825484D01*
X17045301Y26881734D01*
X16971067Y26896500D01*
X16902190Y26896500D01*
X15625500Y26896499D01*
X15557379Y26916501D01*
X15510886Y26970157D01*
X15499500Y27022499D01*
X15499500Y27052000D01*
X15498617Y27060218D01*
X15493932Y27103795D01*
X15493931Y27103801D01*
X15493570Y27107159D01*
X15482184Y27159501D01*
X15480351Y27166184D01*
X15476920Y27178688D01*
X15476920Y27178689D01*
X15474834Y27186291D01*
X15424731Y27274278D01*
X15388373Y27316238D01*
X15380078Y27325811D01*
X15380073Y27325816D01*
X15378238Y27327934D01*
X15344949Y27360056D01*
X15255230Y27406987D01*
X15228213Y27414920D01*
X15191432Y27425720D01*
X15191428Y27425721D01*
X15187109Y27426989D01*
X15182661Y27427629D01*
X15182654Y27427630D01*
X15118448Y27436861D01*
X15118441Y27436861D01*
X15114000Y27437500D01*
X10032000Y27437500D01*
X10028654Y27437140D01*
X10028649Y27437140D01*
X9980205Y27431932D01*
X9980199Y27431931D01*
X9976841Y27431570D01*
X9924499Y27420184D01*
X9897709Y27412834D01*
X9890858Y27408933D01*
X9890856Y27408932D01*
X9882406Y27404120D01*
X9809722Y27362731D01*
X9756066Y27316238D01*
X9723944Y27282949D01*
X9677013Y27193230D01*
X9675270Y27187294D01*
X9665197Y27152987D01*
X9657011Y27125109D01*
X9656371Y27120661D01*
X9656370Y27120654D01*
X9647139Y27056448D01*
X9646500Y27052000D01*
X9646500Y24302500D01*
X9626498Y24234379D01*
X9572842Y24187886D01*
X9520500Y24176500D01*
X8700166Y24176500D01*
X8605445Y24161498D01*
X8596611Y24156997D01*
X8587178Y24153932D01*
X8586258Y24156763D01*
X8532151Y24146602D01*
X8466366Y24173302D01*
X8425460Y24231330D01*
X8422720Y24295251D01*
X8421498Y24295445D01*
X8422454Y24301478D01*
X8422454Y24301480D01*
X8436500Y24390166D01*
X8436500Y24753834D01*
X8421498Y24848555D01*
X8363326Y24962723D01*
X8272723Y25053326D01*
X8158555Y25111498D01*
X8063834Y25126500D01*
X7961427Y25126500D01*
X7893306Y25146502D01*
X7846813Y25200158D01*
X7836709Y25270432D01*
X7866203Y25335012D01*
X7879596Y25348311D01*
X7947136Y25405996D01*
X7947136Y25405997D01*
X7952914Y25410931D01*
X8045355Y25539576D01*
X8104442Y25686559D01*
X8110565Y25729585D01*
X8126181Y25839309D01*
X8126181Y25839312D01*
X8126762Y25843393D01*
X8126907Y25857200D01*
X8124254Y25879128D01*
X8114251Y25961785D01*
X8107876Y26014467D01*
X8051880Y26162654D01*
X7982946Y26262954D01*
X7966455Y26286949D01*
X7966454Y26286951D01*
X7962153Y26293208D01*
X7952198Y26302078D01*
X7910169Y26339524D01*
X7843875Y26398589D01*
X7836489Y26402500D01*
X7710588Y26469161D01*
X7710589Y26469161D01*
X7703874Y26472716D01*
X7550233Y26511308D01*
X7542634Y26511348D01*
X7542633Y26511348D01*
X7476781Y26511693D01*
X7391821Y26512138D01*
X7384441Y26510366D01*
X7384439Y26510366D01*
X7245163Y26476929D01*
X7245160Y26476928D01*
X7237784Y26475157D01*
X7097014Y26402500D01*
X6977639Y26298362D01*
X6886550Y26168756D01*
X6876704Y26143501D01*
X6834072Y26034156D01*
X6829006Y26021163D01*
X6828014Y26013630D01*
X6828014Y26013629D01*
X6810307Y25879126D01*
X6808329Y25864104D01*
X6825713Y25706647D01*
X6828323Y25699516D01*
X6828323Y25699514D01*
X6848728Y25643756D01*
X6880153Y25557881D01*
X6968508Y25426395D01*
X6974127Y25421282D01*
X6974128Y25421281D01*
X7047199Y25354792D01*
X7084122Y25294152D01*
X7088400Y25261598D01*
X7088400Y25252500D01*
X7068398Y25184379D01*
X7014742Y25137886D01*
X6962400Y25126500D01*
X6825166Y25126500D01*
X6730445Y25111498D01*
X6616277Y25053326D01*
X6570595Y25007644D01*
X6508283Y24973618D01*
X6437468Y24978683D01*
X6380632Y25021230D01*
X6355821Y25087750D01*
X6355500Y25096739D01*
X6355500Y28332585D01*
X6375502Y28400706D01*
X6399670Y28428396D01*
X6559835Y28565190D01*
X6563597Y28568403D01*
X6722506Y28754462D01*
X6850353Y28963089D01*
X6855373Y28975207D01*
X6942095Y29184575D01*
X6942096Y29184577D01*
X6943989Y29189148D01*
X6975568Y29320684D01*
X6999954Y29422258D01*
X6999955Y29422264D01*
X7001109Y29427071D01*
X7020307Y29671000D01*
X7001109Y29914929D01*
X6993571Y29946330D01*
X6945144Y30148040D01*
X6943989Y30152852D01*
X6942095Y30157425D01*
X6852248Y30374337D01*
X6852246Y30374341D01*
X6850353Y30378911D01*
X6722506Y30587538D01*
X6563597Y30773597D01*
X6377538Y30932506D01*
X6168911Y31060353D01*
X6164341Y31062246D01*
X6164337Y31062248D01*
X5947425Y31152095D01*
X5947423Y31152096D01*
X5942852Y31153989D01*
X5860548Y31173748D01*
X5709742Y31209954D01*
X5709736Y31209955D01*
X5704929Y31211109D01*
X5461000Y31230307D01*
X5217071Y31211109D01*
X5212264Y31209955D01*
X5212258Y31209954D01*
X5061452Y31173748D01*
X4979148Y31153989D01*
X4974577Y31152096D01*
X4974575Y31152095D01*
X4757663Y31062248D01*
X4757659Y31062246D01*
X4753089Y31060353D01*
X4544462Y30932506D01*
X4358403Y30773597D01*
X4199494Y30587538D01*
X4071647Y30378911D01*
X4069754Y30374341D01*
X4069752Y30374337D01*
X3979905Y30157425D01*
X3978011Y30152852D01*
X3976856Y30148040D01*
X3928430Y29946330D01*
X3920891Y29914929D01*
X3901693Y29671000D01*
X3920891Y29427071D01*
X3922045Y29422264D01*
X3922046Y29422258D01*
X3946432Y29320684D01*
X3978011Y29189148D01*
X3979904Y29184577D01*
X3979905Y29184575D01*
X4048909Y29017984D01*
X4058500Y28969766D01*
X4058500Y22478000D01*
X4064430Y22422841D01*
X4075816Y22370499D01*
X4083166Y22343709D01*
X4087067Y22336858D01*
X4087068Y22336856D01*
X4117978Y22282575D01*
X4133269Y22255722D01*
X4179762Y22202066D01*
X4213051Y22169944D01*
X4229452Y22161365D01*
X4255290Y22147849D01*
X4306380Y22098550D01*
X4322707Y22029457D01*
X4299088Y21962504D01*
X4285983Y21947106D01*
X530521Y18191644D01*
X511505Y18176285D01*
X510444Y18175319D01*
X501696Y18169671D01*
X495250Y18161494D01*
X480771Y18143128D01*
X476770Y18138626D01*
X476841Y18138565D01*
X476607Y18138289D01*
X476278Y18138073D01*
X470916Y18132039D01*
X469829Y18130952D01*
X468094Y18132687D01*
X417298Y18099264D01*
X346306Y18098500D01*
X286170Y18136238D01*
X255983Y18200497D01*
X254500Y18219771D01*
X254500Y41993033D01*
X256233Y42008031D01*
X256508Y42016162D01*
X259338Y42028245D01*
X257329Y42040491D01*
X257748Y42052893D01*
X257807Y42052891D01*
X257380Y42063916D01*
X284736Y42385031D01*
X286489Y42397818D01*
X351986Y42743099D01*
X355037Y42755641D01*
X374295Y42820185D01*
X455521Y43092432D01*
X459840Y43104593D01*
X594240Y43429314D01*
X599780Y43440972D01*
X675061Y43580456D01*
X766707Y43750261D01*
X773408Y43761286D01*
X971093Y44051868D01*
X978886Y44062148D01*
X1205264Y44330984D01*
X1214073Y44340418D01*
X1466759Y44584678D01*
X1476486Y44593161D01*
X1752833Y44810290D01*
X1763377Y44817734D01*
X2060491Y45005455D01*
X2071741Y45011781D01*
X2386498Y45168121D01*
X2398336Y45173263D01*
X2727439Y45296585D01*
X2739742Y45300489D01*
X3079729Y45389494D01*
X3092366Y45392119D01*
X3243251Y45415473D01*
X3439679Y45445877D01*
X3452504Y45447194D01*
X3774500Y45463657D01*
X3785381Y45462864D01*
X3785381Y45462939D01*
X3797787Y45462937D01*
X3809959Y45460514D01*
X3822887Y45463083D01*
X3847446Y45465500D01*
X54572524Y45465500D01*
X54597103Y45463079D01*
G37*
%TD.AperFunction*%
%TD*%
%TA.AperFunction,Conductor*%
%TO.N,/BST_VOUT*%
G36*
X36518121Y26141998D02*
G01*
X36564614Y26088342D01*
X36576000Y26036000D01*
X36576000Y17271000D01*
X36555998Y17202879D01*
X36502342Y17156386D01*
X36450000Y17145000D01*
X30860000Y17145000D01*
X30791879Y17165002D01*
X30745386Y17218658D01*
X30734000Y17271000D01*
X30734000Y26036000D01*
X30754002Y26104121D01*
X30807658Y26150614D01*
X30860000Y26162000D01*
X36450000Y26162000D01*
X36518121Y26141998D01*
G37*
%TD.AperFunction*%
%TD*%
%TA.AperFunction,Conductor*%
%TO.N,/SW*%
G36*
X25342121Y26903998D02*
G01*
X25388614Y26850342D01*
X25400000Y26798000D01*
X25400000Y17271000D01*
X25379998Y17202879D01*
X25326342Y17156386D01*
X25274000Y17145000D01*
X21843000Y17145000D01*
X21774879Y17165002D01*
X21728386Y17218658D01*
X21717000Y17271000D01*
X21717000Y26798000D01*
X21737002Y26866121D01*
X21790658Y26912614D01*
X21843000Y26924000D01*
X25274000Y26924000D01*
X25342121Y26903998D01*
G37*
%TD.AperFunction*%
%TD*%
%TA.AperFunction,Conductor*%
%TO.N,/VIN*%
G36*
X15182121Y27157998D02*
G01*
X15228614Y27104342D01*
X15240000Y27052000D01*
X15240000Y22986000D01*
X15219998Y22917879D01*
X15166342Y22871386D01*
X15114000Y22860000D01*
X10032000Y22860000D01*
X9963879Y22880002D01*
X9917386Y22933658D01*
X9906000Y22986000D01*
X9906000Y27052000D01*
X9926002Y27120121D01*
X9979658Y27166614D01*
X10032000Y27178000D01*
X15114000Y27178000D01*
X15182121Y27157998D01*
G37*
%TD.AperFunction*%
%TD*%
%TA.AperFunction,Conductor*%
%TO.N,/VBATT*%
G36*
X6038121Y29951998D02*
G01*
X6084614Y29898342D01*
X6096000Y29846000D01*
X6096000Y24130000D01*
X6706642Y23763615D01*
X7304826Y23404704D01*
X7352949Y23352505D01*
X7366000Y23296660D01*
X7366000Y22478000D01*
X7345998Y22409879D01*
X7292342Y22363386D01*
X7240000Y22352000D01*
X4444000Y22352000D01*
X4375879Y22372002D01*
X4329386Y22425658D01*
X4318000Y22478000D01*
X4318000Y29846000D01*
X4338002Y29914121D01*
X4391658Y29960614D01*
X4444000Y29972000D01*
X5970000Y29972000D01*
X6038121Y29951998D01*
G37*
%TD.AperFunction*%
%TD*%
M02*
