%TF.GenerationSoftware,KiCad,Pcbnew,(6.0.6-0)*%
%TF.CreationDate,2022-08-07T14:06:52-04:00*%
%TF.ProjectId,BatteryLedStripDriver,42617474-6572-4794-9c65-645374726970,rev?*%
%TF.SameCoordinates,PX6160b60PY791ddc0*%
%TF.FileFunction,Paste,Top*%
%TF.FilePolarity,Positive*%
%FSLAX46Y46*%
G04 Gerber Fmt 4.6, Leading zero omitted, Abs format (unit mm)*
G04 Created by KiCad (PCBNEW (6.0.6-0)) date 2022-08-07 14:06:52*
%MOMM*%
%LPD*%
G01*
G04 APERTURE LIST*
G04 Aperture macros list*
%AMRoundRect*
0 Rectangle with rounded corners*
0 $1 Rounding radius*
0 $2 $3 $4 $5 $6 $7 $8 $9 X,Y pos of 4 corners*
0 Add a 4 corners polygon primitive as box body*
4,1,4,$2,$3,$4,$5,$6,$7,$8,$9,$2,$3,0*
0 Add four circle primitives for the rounded corners*
1,1,$1+$1,$2,$3*
1,1,$1+$1,$4,$5*
1,1,$1+$1,$6,$7*
1,1,$1+$1,$8,$9*
0 Add four rect primitives between the rounded corners*
20,1,$1+$1,$2,$3,$4,$5,0*
20,1,$1+$1,$4,$5,$6,$7,0*
20,1,$1+$1,$6,$7,$8,$9,0*
20,1,$1+$1,$8,$9,$2,$3,0*%
G04 Aperture macros list end*
%ADD10RoundRect,0.225000X0.225000X0.250000X-0.225000X0.250000X-0.225000X-0.250000X0.225000X-0.250000X0*%
%ADD11RoundRect,0.250000X-0.350000X-0.450000X0.350000X-0.450000X0.350000X0.450000X-0.350000X0.450000X0*%
%ADD12R,2.500000X1.800000*%
%ADD13R,1.200000X0.900000*%
%ADD14RoundRect,0.135000X-0.135000X-0.185000X0.135000X-0.185000X0.135000X0.185000X-0.135000X0.185000X0*%
%ADD15RoundRect,0.150000X0.150000X-0.587500X0.150000X0.587500X-0.150000X0.587500X-0.150000X-0.587500X0*%
%ADD16RoundRect,0.160000X-0.197500X-0.160000X0.197500X-0.160000X0.197500X0.160000X-0.197500X0.160000X0*%
%ADD17RoundRect,0.135000X-0.185000X0.135000X-0.185000X-0.135000X0.185000X-0.135000X0.185000X0.135000X0*%
%ADD18RoundRect,0.250000X0.250000X0.475000X-0.250000X0.475000X-0.250000X-0.475000X0.250000X-0.475000X0*%
%ADD19RoundRect,0.140000X0.140000X0.170000X-0.140000X0.170000X-0.140000X-0.170000X0.140000X-0.170000X0*%
%ADD20RoundRect,0.225000X-0.225000X-0.250000X0.225000X-0.250000X0.225000X0.250000X-0.225000X0.250000X0*%
%ADD21RoundRect,0.150000X-0.587500X-0.150000X0.587500X-0.150000X0.587500X0.150000X-0.587500X0.150000X0*%
%ADD22RoundRect,0.160000X0.160000X-0.197500X0.160000X0.197500X-0.160000X0.197500X-0.160000X-0.197500X0*%
%ADD23RoundRect,0.140000X0.170000X-0.140000X0.170000X0.140000X-0.170000X0.140000X-0.170000X-0.140000X0*%
%ADD24RoundRect,0.160000X0.197500X0.160000X-0.197500X0.160000X-0.197500X-0.160000X0.197500X-0.160000X0*%
%ADD25RoundRect,0.135000X0.135000X0.185000X-0.135000X0.185000X-0.135000X-0.185000X0.135000X-0.185000X0*%
%ADD26RoundRect,0.225000X-0.250000X0.225000X-0.250000X-0.225000X0.250000X-0.225000X0.250000X0.225000X0*%
%ADD27RoundRect,0.150000X-0.150000X0.825000X-0.150000X-0.825000X0.150000X-0.825000X0.150000X0.825000X0*%
%ADD28RoundRect,0.250001X-0.374999X0.354999X-0.374999X-0.354999X0.374999X-0.354999X0.374999X0.354999X0*%
%ADD29RoundRect,0.100000X-0.100000X0.687500X-0.100000X-0.687500X0.100000X-0.687500X0.100000X0.687500X0*%
%ADD30R,2.350000X3.500000*%
G04 APERTURE END LIST*
D10*
%TO.C,C2*%
X27191000Y5791200D03*
X25641000Y5791200D03*
%TD*%
D11*
%TO.C,R1*%
X31131000Y2667000D03*
X33131000Y2667000D03*
%TD*%
D12*
%TO.C,D3*%
X29940000Y24892000D03*
X25940000Y24892000D03*
%TD*%
D13*
%TO.C,D1*%
X48387000Y12191000D03*
X48387000Y8891000D03*
%TD*%
D14*
%TO.C,R2*%
X6983000Y8991600D03*
X8003000Y8991600D03*
%TD*%
D15*
%TO.C,Q1*%
X7432000Y10873500D03*
X9332000Y10873500D03*
X8382000Y12748500D03*
%TD*%
D16*
%TO.C,R8*%
X19227500Y7620000D03*
X20422500Y7620000D03*
%TD*%
D11*
%TO.C,R5*%
X36592000Y25146000D03*
X38592000Y25146000D03*
%TD*%
D17*
%TO.C,R4*%
X5334000Y22354000D03*
X5334000Y21334000D03*
%TD*%
D18*
%TO.C,C6*%
X30795000Y22047200D03*
X28895000Y22047200D03*
%TD*%
D19*
%TO.C,C10*%
X16495000Y11049000D03*
X15535000Y11049000D03*
%TD*%
D20*
%TO.C,C1*%
X31737000Y13538200D03*
X33287000Y13538200D03*
%TD*%
D16*
%TO.C,R3*%
X48170500Y3302000D03*
X49365500Y3302000D03*
%TD*%
D21*
%TO.C,Q5*%
X39829500Y15997000D03*
X39829500Y14097000D03*
X41704500Y15047000D03*
%TD*%
D22*
%TO.C,R9*%
X14732000Y15367000D03*
X14732000Y16562000D03*
%TD*%
D21*
%TO.C,Q2*%
X7444500Y24572000D03*
X7444500Y22672000D03*
X9319500Y23622000D03*
%TD*%
D23*
%TO.C,C9*%
X15875000Y15540500D03*
X15875000Y16500500D03*
%TD*%
D19*
%TO.C,C5*%
X16990000Y20828000D03*
X16030000Y20828000D03*
%TD*%
D24*
%TO.C,R6*%
X20422500Y6350000D03*
X19227500Y6350000D03*
%TD*%
D25*
%TO.C,R10*%
X16525000Y9779000D03*
X15505000Y9779000D03*
%TD*%
D26*
%TO.C,C3*%
X11684000Y22619000D03*
X11684000Y21069000D03*
%TD*%
D19*
%TO.C,C11*%
X13983000Y9779000D03*
X13023000Y9779000D03*
%TD*%
D27*
%TO.C,U1*%
X33147000Y10806200D03*
X31877000Y10806200D03*
X30607000Y10806200D03*
X29337000Y10806200D03*
X29337000Y5856200D03*
X30607000Y5856200D03*
X31877000Y5856200D03*
X33147000Y5856200D03*
%TD*%
D18*
%TO.C,C8*%
X30795000Y17983200D03*
X28895000Y17983200D03*
%TD*%
D26*
%TO.C,C4*%
X13462000Y22619000D03*
X13462000Y21069000D03*
%TD*%
D28*
%TO.C,U2*%
X21349000Y13220000D03*
X19799000Y13220000D03*
X19799000Y14720000D03*
X21349000Y14720000D03*
D29*
X22524000Y16832500D03*
X21874000Y16832500D03*
X21224000Y16832500D03*
X20574000Y16832500D03*
X19924000Y16832500D03*
X19274000Y16832500D03*
X18624000Y16832500D03*
X18624000Y11107500D03*
X19274000Y11107500D03*
X19924000Y11107500D03*
X20574000Y11107500D03*
X21224000Y11107500D03*
X21874000Y11107500D03*
X22524000Y11107500D03*
%TD*%
D22*
%TO.C,R7*%
X38862000Y28993500D03*
X38862000Y30188500D03*
%TD*%
D30*
%TO.C,L1*%
X15771000Y24892000D03*
X21821000Y24892000D03*
%TD*%
D18*
%TO.C,C7*%
X30795000Y20015200D03*
X28895000Y20015200D03*
%TD*%
D13*
%TO.C,D2*%
X52324000Y8891000D03*
X52324000Y12191000D03*
%TD*%
D21*
%TO.C,Q3*%
X7444500Y20381000D03*
X7444500Y18481000D03*
X9319500Y19431000D03*
%TD*%
%TO.C,Q4*%
X40845500Y30287000D03*
X40845500Y28387000D03*
X42720500Y29337000D03*
%TD*%
M02*
