M48
; DRILL file {KiCad (6.0.6-0)} date Sunday, August 07, 2022 at 02:06:55 PM
; FORMAT={-:-/ absolute / inch / decimal}
; #@! TF.CreationDate,2022-08-07T14:06:55-04:00
; #@! TF.GenerationSoftware,Kicad,Pcbnew,(6.0.6-0)
; #@! TF.FileFunction,Plated,1,2,PTH
FMAT,2
INCH
; #@! TA.AperFunction,Plated,PTH,ComponentDrill
T1C0.0118
; #@! TA.AperFunction,Plated,PTH,ViaDrill
T2C0.0157
; #@! TA.AperFunction,Plated,PTH,ComponentDrill
T3C0.0315
; #@! TA.AperFunction,Plated,PTH,ComponentDrill
T4C0.0394
; #@! TA.AperFunction,Plated,PTH,ComponentDrill
T5C0.0512
; #@! TA.AperFunction,Plated,PTH,ComponentDrill
T6C0.1063
%
G90
G05
T1
X0.7076Y0.6012
X0.7076Y0.55
X0.7076Y0.4988
X0.7588Y0.6012
X0.7588Y0.55
X0.7588Y0.4988
X0.81Y0.6012
X0.81Y0.55
X0.81Y0.4988
X0.8612Y0.6012
X0.8612Y0.55
X0.8612Y0.4988
X0.9124Y0.6012
X0.9124Y0.55
X0.9124Y0.4988
T2
X0.14Y1.506
X0.21Y0.8
X0.214Y1.506
X0.29Y0.668
X0.294Y1.018
X0.298Y1.506
X0.366Y0.362
X0.46Y0.768
X0.4662Y0.385
X0.53Y0.768
X0.55Y1.45
X0.55Y1.35
X0.55Y1.25
X0.55Y1.15
X0.5605Y0.435
X0.59Y0.818
X0.605Y0.53
X0.665Y0.61
X0.7Y1.4
X0.7Y1.3
X0.7Y1.193
X0.785Y0.76
X0.7873Y0.345
X0.85Y1.45
X0.85Y1.35
X0.85Y1.25
X0.85Y1.15
X0.86Y0.3
X0.95Y0.228
X1.0Y1.4
X1.0Y1.3
X1.0Y1.2
X1.08Y0.858
X1.08Y0.788
X1.08Y0.718
X1.15Y1.45
X1.15Y1.35
X1.15Y1.25
X1.15Y1.15
X1.155Y0.35
X1.255Y0.355
X1.3Y1.4
X1.3Y1.303
X1.3Y1.2
X1.364Y0.532
X1.366Y0.462
X1.376Y0.102
X1.45Y1.45
X1.45Y1.35
X1.45Y1.253
X1.498Y0.556
X1.6Y1.4
X1.6Y0.95
X1.75Y1.45
X1.75Y1.3
X1.75Y1.0
X1.75Y0.65
X1.866Y0.73
X1.95Y0.95
X1.98Y0.41
X2.026Y1.5
X2.1Y0.8
X2.1Y0.73
X2.104Y1.5
X2.184Y1.5
T3
X1.5144Y0.31
X1.6144Y0.41
X1.6144Y0.21
T4
X0.1Y0.6794
X0.1Y0.5794
X0.1Y0.4794
X0.1Y0.2598
X0.1Y0.1598
X1.965Y0.83
X1.965Y0.73
T5
X0.215Y1.365
X0.215Y1.1681
X2.082Y1.3534
X2.082Y1.1566
T6
X0.15Y1.65
X0.33Y0.15
X2.15Y1.65
X2.15Y0.15
T0
M30
